<?xml version="1.0" encoding="utf-8"?>
<!-- Generator: Adobe Illustrator 19.0.0, SVG Export Plug-In . SVG Version: 6.00 Build 0)  -->
<svg version="1.1" id="Calque_1" xmlns="http://www.w3.org/2000/svg" xmlns:xlink="http://www.w3.org/1999/xlink" x="0px" y="0px"
	 viewBox="-193 284 225 225" style="enable-background:new -193 284 225 225;" xml:space="preserve">
<style type="text/css">
	.st0{fill:#689DF6;}
</style>
<g id="_x23_000000ff">
	<path class="st0" d="M-81.5,284h2c2.6,0.6,5.2,1.5,7,3.5c33.7,33.7,67.4,67.3,101,101c2,1.8,2.9,4.4,3.4,7v2
		c-0.6,2.6-1.5,5.2-3.5,7c-33.7,33.7-67.4,67.4-101,101c-1.8,2-4.5,2.9-7.1,3.5h-1.9c-2.6-0.6-5.3-1.4-7-3.5
		c-33.7-33.6-67.3-67.3-101-100.9c-2.1-1.8-3-4.5-3.5-7.1v-1.9c0.6-2.6,1.5-5.2,3.5-7c33.3-33.3,66.7-66.6,100-100
		C-87.5,286.1-84.7,284.5-81.5,284 M-58.1,345.8c0.4,9.4,0.1,18.8,0.2,28.2c-19,0-38,0-57.1,0c-5.7,0.1-10.5,5.3-10.6,10.9
		c0,15.1,0,30.3,0,45.5c7.5,0,15,0,22.6,0c0-11.2,0-22.5,0-33.7c15,0,30.1,0,45.1,0c0,9.3-0.1,18.7,0.1,28
		c13-13.3,26.3-26.2,39.3-39.5C-31.8,372.1-44.8,358.8-58.1,345.8z"/>
</g>
</svg>
