<?xml version="1.0" encoding="utf-8"?>
<!-- Generator: Adobe Illustrator 16.0.0, SVG Export Plug-In . SVG Version: 6.00 Build 0)  -->
<!DOCTYPE svg PUBLIC "-//W3C//DTD SVG 1.1//EN" "http://www.w3.org/Graphics/SVG/1.1/DTD/svg11.dtd">
<svg version="1.1" id="Calque_1" xmlns="http://www.w3.org/2000/svg" xmlns:xlink="http://www.w3.org/1999/xlink" x="0px" y="0px"
	 width="40.723px" height="34.673px" viewBox="0 0 40.723 34.673" enable-background="new 0 0 40.723 34.673" xml:space="preserve">
<g>
	<g>
		<g>
			<g>
				<path fill="#FFFFFF" d="M24.298,26.098c-8.372,8.56-20.978,1.159-20.688-9.844c0.125-4.741,3.158-8.98,7.302-11.086
					c5.383-2.735,11.499,0.163,14.682,4.773c0.496,0.718,3.351,0.16,2.857-0.555C21.007-1.396,3.107,2.082,0.762,15.117
					C-0.354,21.32,3.55,27.776,9.323,30.068c6.009,2.386,13.062,1.068,17.605-3.578C27.74,25.66,24.854,25.53,24.298,26.098
					L24.298,26.098z"/>
			</g>
		</g>
	</g>
	<g>
		<g>
			<path fill="#FFFFFF" stroke="#FFFFFF" stroke-width="1.3808" stroke-miterlimit="10" d="M15.447,33.982
				c-2.617,0-5.27-0.618-7.741-1.923c-0.282-0.148-0.39-0.497-0.241-0.778c0.149-0.282,0.498-0.39,0.779-0.241
				c7.554,3.987,16.942,1.086,20.93-6.468c0.149-0.281,0.498-0.389,0.779-0.24s0.39,0.497,0.24,0.778
				C27.214,30.755,21.426,33.982,15.447,33.982z"/>
		</g>
		<g>
			<path fill="#FFFFFF" stroke="#FFFFFF" stroke-width="1.3808" stroke-miterlimit="10" d="M1.267,10.418
				c-0.091,0-0.184-0.021-0.27-0.067c-0.281-0.148-0.389-0.497-0.24-0.778c2.075-3.932,5.558-6.819,9.805-8.132
				s8.751-0.893,12.684,1.183c0.281,0.148,0.389,0.497,0.24,0.779c-0.148,0.281-0.498,0.389-0.778,0.24
				c-3.66-1.932-7.852-2.322-11.805-1.101S3.708,6.451,1.776,10.11C1.673,10.306,1.473,10.418,1.267,10.418z"/>
		</g>
	</g>
	<g>
		<g>
			<path fill="#FFFFFF" stroke="#FFFFFF" stroke-width="1.3808" stroke-miterlimit="10" d="M15.48,32.046
				c-0.55,0-1.103-0.031-1.655-0.094c-3.576-0.403-6.871-2.098-9.276-4.771l1.714-1.543c2.028,2.253,4.806,3.682,7.822,4.022
				c3.017,0.34,6.042-0.433,8.521-2.178l1.328,1.886C21.446,31.119,18.495,32.046,15.48,32.046z"/>
		</g>
		<g>
			<path fill="#FFFFFF" stroke="#FFFFFF" stroke-width="1.3808" stroke-miterlimit="10" d="M24.688,9.044
				c-2.028-2.253-4.806-3.682-7.821-4.022c-3.017-0.34-6.042,0.434-8.521,2.178L7.018,5.313c2.94-2.069,6.53-2.987,10.107-2.583
				c3.576,0.403,6.871,2.098,9.276,4.771L24.688,9.044z"/>
		</g>
	</g>
	<g>
		<g>
			<path fill="#FFFFFF" d="M8.681,10.132L8.363,9.797c3.725-3.519,9.373-3.802,13.433-0.674l-0.281,0.365
				C17.637,6.5,12.239,6.771,8.681,10.132z"/>
		</g>
		<g>
			<path fill="none" d="M23.512,23.521c3.034-3.938,2.754-9.519-0.659-13.132"/>
		</g>
		<g>
			<path fill="#FFFFFF" d="M15.48,27.729c-2.218,0-4.442-0.717-6.326-2.168l0.282-0.366c3.877,2.988,9.274,2.718,12.834-0.644
				l0.316,0.335C20.59,26.771,18.041,27.729,15.48,27.729z"/>
		</g>
		<g>
			<path fill="#FFFFFF" d="M7.931,24.453c-3.518-3.725-3.802-9.374-0.674-13.432l0.365,0.281c-2.988,3.877-2.718,9.274,0.644,12.833
				L7.931,24.453z"/>
		</g>
	</g>
	<g>
		<path fill="#FFFFFF" d="M33.644,11.638c-0.732-1.419-1.813-2.652-3.125-3.566l0.265-0.378c1.372,0.956,2.503,2.247,3.271,3.732
			L33.644,11.638z"/>
	</g>
	<g>
		<path fill="#FFFFFF" d="M30.994,28.39l-0.223-0.403c1.312-0.726,2.414-1.712,3.278-2.933c0.418-0.589,0.771-1.227,1.052-1.895
			l0.425,0.179c-0.293,0.698-0.663,1.365-1.1,1.982C33.521,26.598,32.367,27.631,30.994,28.39z"/>
	</g>
	
		<line fill="none" stroke="#FFFFFF" stroke-width="1.3966" stroke-miterlimit="10" x1="20.388" y1="19.668" x2="40.576" y2="19.668"/>
</g>
<path fill="#FFFFFF" d="M12.266,20.326c-0.022,0.729,0.313,1.355,0.96,1.894c0.648,0.539,1.451,0.8,2.367,0.817
	c0.96,0.018,1.785-0.244,2.478-0.765c0.692-0.521,1.027-1.164,1.005-1.911c-0.045-1.234-1.094-2.103-3.17-2.606l-1.831-0.435
	c-1.942-0.469-3.059-1.668-3.081-3.267c-0.021-0.991,0.447-1.825,1.407-2.503c0.96-0.694,2.076-1.042,3.371-1.024
	c1.272,0.017,2.366,0.382,3.259,1.095c0.894,0.712,1.34,1.563,1.34,2.554h-1.809c0.022-0.625-0.245-1.164-0.804-1.616
	c-0.535-0.451-1.205-0.694-1.986-0.729c-0.826-0.034-1.563,0.174-2.211,0.644c-0.625,0.451-0.915,0.99-0.893,1.633
	c0.022,1.043,0.692,1.72,1.986,2.033l2.076,0.504c2.657,0.643,3.997,1.894,4.02,3.753c0.021,1.095-0.492,2.016-1.496,2.798
	c-1.005,0.765-2.21,1.146-3.639,1.146c-1.43,0-2.635-0.382-3.64-1.146c-1.004-0.765-1.496-1.721-1.518-2.867H12.266z"/>
<g>
	<path fill="#FDFDFE" d="M25.976,17.32c-0.193,0.561-0.524,1.012-0.993,1.342c-0.469,0.331-0.984,0.497-1.554,0.506
		c-0.718,0.01-1.352-0.248-1.903-0.781c-0.552-0.543-0.837-1.177-0.846-1.922c-0.019-0.781,0.257-1.462,0.827-2.022
		c0.579-0.57,1.25-0.837,2.032-0.791c0.698,0.046,1.306,0.331,1.82,0.864c0.496,0.524,0.744,1.112,0.744,1.766v0.377h-4.707
		c0.055,0.524,0.275,0.965,0.671,1.306c0.396,0.34,0.855,0.515,1.389,0.506c0.827-0.01,1.416-0.396,1.774-1.149H25.976z
		 M25.414,16.015c-0.101-0.487-0.331-0.883-0.689-1.187c-0.358-0.303-0.79-0.459-1.296-0.469c-0.506-0.009-0.947,0.147-1.324,0.45
		c-0.377,0.304-0.606,0.708-0.708,1.205H25.414z"/>
	<path fill="#FDFDFE" d="M27.428,19.04h-0.698v-7.09h0.698V19.04z"/>
	<path fill="#FDFDFE" d="M29.083,13.174h-0.689V11.95h0.689V13.174z M29.083,19.04h-0.689v-5.241h0.689V19.04z"/>
	<path fill="#FDFDFE" d="M34.415,18.378c-0.542,0.542-1.195,0.809-1.948,0.781c-0.727-0.019-1.352-0.294-1.857-0.827
		c-0.506-0.534-0.754-1.168-0.754-1.904c0-0.763,0.275-1.425,0.818-1.967c0.542-0.552,1.195-0.818,1.949-0.791
		c0.726,0.027,1.352,0.304,1.856,0.846c0.506,0.533,0.764,1.168,0.764,1.903C35.243,17.173,34.967,17.826,34.415,18.378z
		 M32.476,18.47c0.579,0.027,1.066-0.166,1.471-0.598c0.414-0.433,0.607-0.929,0.598-1.508c-0.018-0.552-0.221-1.021-0.598-1.416
		s-0.827-0.589-1.36-0.589c-0.561-0.009-1.03,0.193-1.425,0.589c-0.396,0.396-0.589,0.864-0.598,1.425
		c-0.01,0.552,0.165,1.039,0.542,1.453C31.482,18.239,31.933,18.451,32.476,18.47z"/>
	<path fill="#FDFDFE" d="M40.576,19.04h-0.708v-3.063c0-0.441-0.166-0.818-0.487-1.14c-0.322-0.322-0.689-0.479-1.122-0.479
		c-0.432,0-0.818,0.156-1.14,0.479c-0.322,0.321-0.479,0.698-0.479,1.14v3.063h-0.708v-2.988c0-0.681,0.221-1.242,0.662-1.692
		s0.993-0.681,1.664-0.681c0.662,0,1.214,0.23,1.655,0.681s0.662,1.012,0.662,1.692V19.04z"/>
</g>
<g>
	<path fill="#FFFFFF" d="M27.388,21.929c-0.234,0.438-0.646,0.692-1.15,0.702c-0.359,0.003-0.666-0.126-0.923-0.386
		c-0.254-0.261-0.382-0.573-0.382-0.936c0-0.373,0.128-0.687,0.386-0.933c0.25-0.247,0.557-0.369,0.919-0.366
		c0.254,0.003,0.481,0.065,0.688,0.194c0.198,0.125,0.353,0.294,0.462,0.504h-0.287c-0.211-0.306-0.504-0.454-0.883-0.451
		c-0.28,0-0.524,0.102-0.729,0.307c-0.201,0.201-0.307,0.444-0.313,0.731c-0.006,0.296,0.096,0.554,0.304,0.771
		c0.211,0.215,0.465,0.323,0.758,0.323c0.171,0,0.34-0.046,0.501-0.135c0.155-0.086,0.276-0.194,0.365-0.326H27.388z"/>
	<path fill="#FFFFFF" d="M29.062,22.344c-0.194,0.194-0.429,0.29-0.698,0.28c-0.261-0.007-0.484-0.105-0.666-0.297
		c-0.182-0.19-0.271-0.419-0.271-0.682c0-0.274,0.099-0.511,0.293-0.705c0.195-0.198,0.429-0.294,0.699-0.284
		c0.26,0.01,0.484,0.109,0.665,0.304c0.182,0.19,0.274,0.419,0.274,0.682C29.358,21.912,29.259,22.146,29.062,22.344z
		 M28.366,22.377c0.207,0.01,0.382-0.06,0.527-0.214c0.148-0.155,0.218-0.333,0.214-0.541c-0.007-0.197-0.079-0.365-0.214-0.508
		c-0.136-0.142-0.297-0.21-0.488-0.21c-0.201-0.004-0.368,0.068-0.511,0.21c-0.142,0.143-0.211,0.311-0.214,0.511
		c-0.003,0.198,0.06,0.373,0.194,0.521C28.011,22.295,28.172,22.37,28.366,22.377z"/>
	<path fill="#FFFFFF" d="M31.27,22.581h-0.254v-1.098c0-0.158-0.06-0.293-0.175-0.408s-0.247-0.171-0.402-0.171
		c-0.154,0-0.293,0.056-0.408,0.171s-0.172,0.25-0.172,0.408v1.098h-0.253V21.51c0-0.243,0.079-0.444,0.236-0.605
		c0.159-0.162,0.356-0.244,0.597-0.244c0.237,0,0.436,0.082,0.594,0.244c0.157,0.161,0.237,0.362,0.237,0.605V22.581z"/>
	<path fill="#FFFFFF" d="M31.793,22.087c0,0.063,0.036,0.128,0.105,0.197s0.146,0.103,0.225,0.099
		c0.105-0.003,0.188-0.032,0.25-0.095c0.056-0.056,0.082-0.132,0.086-0.225c0.003-0.161-0.089-0.27-0.273-0.329l-0.221-0.069
		c-0.23-0.073-0.353-0.23-0.363-0.472c-0.006-0.145,0.043-0.27,0.146-0.372c0.105-0.103,0.23-0.158,0.379-0.165
		c0.129-0.006,0.247,0.037,0.355,0.126c0.112,0.089,0.172,0.197,0.182,0.329l0.003,0.056h-0.264v-0.043
		c0-0.132-0.132-0.22-0.276-0.22c-0.142,0.003-0.26,0.111-0.264,0.256c-0.01,0.136,0.072,0.231,0.241,0.287l0.217,0.072
		c0.251,0.086,0.386,0.254,0.402,0.501c0.013,0.169-0.046,0.316-0.178,0.441c-0.133,0.123-0.284,0.179-0.455,0.169
		c-0.158-0.01-0.29-0.076-0.398-0.191c-0.105-0.115-0.158-0.254-0.158-0.415h0.26V22.087z"/>
	<path fill="#FFFFFF" d="M34.627,21.773c0,0.244-0.079,0.448-0.237,0.609c-0.155,0.162-0.353,0.244-0.593,0.244
		c-0.241,0-0.438-0.082-0.597-0.244c-0.155-0.161-0.233-0.365-0.233-0.609v-1.07h0.253v1.101c0,0.157,0.056,0.293,0.172,0.408
		c0.115,0.112,0.25,0.168,0.405,0.168c0.154,0,0.287-0.056,0.402-0.168c0.114-0.115,0.174-0.251,0.174-0.408v-1.101h0.254V21.773z"
		/>
	<path fill="#FFFFFF" d="M35.157,22.581h-0.25v-2.54h0.25V22.581z"/>
	<path fill="#FFFFFF" d="M36.126,22.621c-0.458,0-0.686-0.195-0.686-0.584v-1.993h0.254v0.655h0.432v0.234h-0.432v1.061
		c0,0.28,0.146,0.419,0.432,0.419V22.621z"/>
	<path fill="#FFFFFF" d="M36.594,20.479h-0.246v-0.438h0.246V20.479z M36.594,22.581h-0.246v-1.878h0.246V22.581z"/>
	<path fill="#FFFFFF" d="M38.528,22.581h-0.253v-1.098c0-0.158-0.06-0.293-0.175-0.408c-0.116-0.115-0.247-0.171-0.402-0.171
		s-0.293,0.056-0.408,0.171c-0.116,0.115-0.172,0.25-0.172,0.408v1.098h-0.254V21.51c0-0.243,0.079-0.444,0.237-0.605
		c0.158-0.162,0.355-0.244,0.597-0.244c0.237,0,0.435,0.082,0.593,0.244c0.158,0.161,0.237,0.362,0.237,0.605V22.581z"/>
	<path fill="#FFFFFF" d="M40.723,22.492c0,0.237-0.099,0.436-0.293,0.59c-0.194,0.155-0.415,0.23-0.665,0.221
		c-0.225-0.01-0.419-0.076-0.58-0.204c-0.155-0.122-0.258-0.28-0.31-0.472h0.243c0.037,0.129,0.122,0.24,0.251,0.333
		c0.128,0.096,0.27,0.142,0.425,0.142c0.185-0.003,0.343-0.065,0.478-0.194c0.136-0.125,0.205-0.276,0.205-0.451v-0.178
		c-0.185,0.211-0.416,0.322-0.692,0.332c-0.271,0.011-0.505-0.085-0.698-0.28c-0.195-0.197-0.294-0.435-0.294-0.708
		c0-0.264,0.089-0.491,0.271-0.682c0.181-0.191,0.405-0.29,0.666-0.3c0.27-0.007,0.504,0.089,0.701,0.286
		c0.201,0.194,0.297,0.429,0.293,0.698V22.492z M40.259,22.152c0.135-0.142,0.207-0.31,0.211-0.507
		c0.007-0.208-0.063-0.386-0.211-0.541c-0.146-0.154-0.32-0.227-0.527-0.218c-0.194,0.011-0.356,0.09-0.491,0.237
		c-0.135,0.148-0.201,0.32-0.198,0.518c0.004,0.201,0.076,0.369,0.218,0.511c0.142,0.143,0.31,0.211,0.508,0.211
		C39.962,22.363,40.123,22.295,40.259,22.152z"/>
</g>
<g>
</g>
<g>
</g>
<g>
</g>
<g>
</g>
<g>
</g>
<g>
</g>
</svg>
