<?xml version="1.0" encoding="utf-8"?>
<!-- Generator: Adobe Illustrator 16.0.0, SVG Export Plug-In . SVG Version: 6.00 Build 0)  -->
<!DOCTYPE svg PUBLIC "-//W3C//DTD SVG 1.1//EN" "http://www.w3.org/Graphics/SVG/1.1/DTD/svg11.dtd">
<svg version="1.1" id="Calque_1" xmlns="http://www.w3.org/2000/svg" xmlns:xlink="http://www.w3.org/1999/xlink" x="0px" y="0px"
	 width="201.827px" height="48.204px" viewBox="0 0 201.827 48.204" enable-background="new 0 0 201.827 48.204"
	 xml:space="preserve">
<polygon fill="#FFFFFF" points="0,5.842 0,37.219 11.342,37.219 11.342,17.38 31.375,17.38 31.375,5.842 "/>
<polygon fill="#0389C6" points="31.375,37.219 15.753,37.219 15.753,21.596 31.375,21.596 31.375,37.219 "/>
<g>
	<g>
		<path fill="#FFFFFF" d="M48.436,37.118c0.089-1.463,0.178-3.636,0.178-5.543V5.635h3.857v13.48h0.089
			c1.374-2.395,3.857-3.946,7.316-3.946c5.321,0,9.09,4.434,9.046,10.953c0,7.671-4.834,11.484-9.622,11.484
			c-3.104,0-5.588-1.197-7.184-4.035h-0.133l-0.178,3.547H48.436z M52.471,28.515c0,0.488,0.089,0.976,0.178,1.419
			c0.754,2.705,3.015,4.567,5.853,4.567c4.08,0,6.519-3.326,6.519-8.248c0-4.301-2.217-7.981-6.386-7.981
			c-2.66,0-5.144,1.818-5.941,4.789c-0.089,0.444-0.222,0.976-0.222,1.597V28.515z"/>
		<path fill="#FFFFFF" d="M90.696,31.265c0,2.217,0.045,4.168,0.178,5.853h-3.459l-0.222-3.503h-0.089
			c-1.02,1.729-3.281,3.991-7.095,3.991c-3.37,0-7.405-1.862-7.405-9.4V15.656h3.902V27.54c0,4.079,1.242,6.829,4.789,6.829
			c2.616,0,4.435-1.818,5.144-3.547c0.222-0.577,0.354-1.286,0.354-1.996V15.656h3.902V31.265z"/>
		<path fill="#FFFFFF" d="M114.553,15.656c-0.089,1.552-0.178,3.281-0.178,5.897v12.46c0,4.922-0.975,7.938-3.06,9.8
			c-2.084,1.951-5.099,2.572-7.804,2.572c-2.572,0-5.41-0.621-7.139-1.774l0.975-2.971c1.419,0.887,3.637,1.685,6.297,1.685
			c3.991,0,6.918-2.084,6.918-7.494v-2.394h-0.089c-1.197,1.995-3.503,3.591-6.829,3.591c-5.321,0-9.135-4.523-9.135-10.464
			c0-7.272,4.745-11.396,9.667-11.396c3.725,0,5.765,1.951,6.695,3.725h0.089l0.178-3.237H114.553z M110.518,24.125
			c0-0.665-0.044-1.242-0.222-1.774c-0.709-2.261-2.616-4.124-5.454-4.124c-3.725,0-6.385,3.148-6.385,8.115
			c0,4.212,2.128,7.715,6.341,7.715c2.395,0,4.567-1.508,5.409-3.991c0.222-0.665,0.311-1.419,0.311-2.084V24.125z"/>
		<path fill="#FFFFFF" d="M123.823,9.625c0.045,1.331-0.931,2.395-2.482,2.395c-1.375,0-2.351-1.064-2.351-2.395
			c0-1.375,1.021-2.438,2.439-2.438C122.892,7.187,123.823,8.251,123.823,9.625z M119.478,37.118V15.656h3.901v21.461H119.478z"/>
		<path fill="#0389C6" d="M130.297,15.656l2.838,10.908c0.621,2.395,1.197,4.611,1.596,6.829h0.134
			c0.487-2.173,1.197-4.479,1.906-6.785l3.503-10.952h3.281l3.326,10.73c0.798,2.572,1.419,4.833,1.906,7.006h0.133
			c0.355-2.173,0.932-4.434,1.642-6.962l3.06-10.775h3.857l-6.917,21.461h-3.548l-3.281-10.243c-0.754-2.395-1.375-4.523-1.906-7.05
			h-0.089c-0.532,2.572-1.197,4.789-1.951,7.095l-3.459,10.199h-3.547l-6.475-21.461H130.297z"/>
		<path fill="#0389C6" d="M162.005,27.096c0.088,5.277,3.458,7.45,7.36,7.45c2.794,0,4.479-0.488,5.941-1.108l0.666,2.793
			c-1.375,0.621-3.726,1.33-7.14,1.33c-6.606,0-10.554-4.345-10.554-10.819s3.813-11.573,10.066-11.573
			c7.006,0,8.868,6.164,8.868,10.11c0,0.798-0.089,1.419-0.133,1.818H162.005z M173.445,24.303c0.045-2.483-1.02-6.341-5.409-6.341
			c-3.946,0-5.676,3.636-5.986,6.341H173.445z"/>
		<path fill="#0389C6" d="M180.763,37.118c0.089-1.463,0.178-3.636,0.178-5.543V5.635h3.857v13.48h0.089
			c1.374-2.395,3.857-3.946,7.316-3.946c5.321,0,9.09,4.434,9.046,10.953c0,7.671-4.834,11.484-9.622,11.484
			c-3.104,0-5.588-1.197-7.184-4.035h-0.133l-0.178,3.547H180.763z M184.798,28.515c0,0.488,0.089,0.976,0.178,1.419
			c0.754,2.705,3.015,4.567,5.853,4.567c4.08,0,6.519-3.326,6.519-8.248c0-4.301-2.217-7.981-6.386-7.981
			c-2.66,0-5.144,1.818-5.941,4.789c-0.089,0.444-0.222,0.976-0.222,1.597V28.515z"/>
	</g>
</g>
<g>
</g>
<g>
</g>
<g>
</g>
<g>
</g>
<g>
</g>
<g>
</g>
</svg>
