<?xml version="1.0" encoding="utf-8"?>
<!-- Generator: Adobe Illustrator 16.0.0, SVG Export Plug-In . SVG Version: 6.00 Build 0)  -->
<!DOCTYPE svg PUBLIC "-//W3C//DTD SVG 1.1//EN" "http://www.w3.org/Graphics/SVG/1.1/DTD/svg11.dtd">
<svg version="1.1" id="Calque_1" xmlns="http://www.w3.org/2000/svg" xmlns:xlink="http://www.w3.org/1999/xlink" x="0px" y="0px"
	 width="204.192px" height="170.616px" viewBox="0 0 204.192 170.616" enable-background="new 0 0 204.192 170.616"
	 xml:space="preserve">
<g>
	<g>
		<g>
			<g>
				<path fill="#FFFFFF" d="M126.068,130.648c-18.216,19.432-46.027,26.625-71.259,17.847c-21.408-7.448-37.8-25.961-43.402-47.798
					C5.663,78.306,12.077,53.99,27.74,37.093C44.074,19.473,68.992,11.938,92.339,17.55c16.747,4.025,31.328,14.732,40.782,29.035
					c0.478,0.723,3.344,0.182,2.857-0.554c-13.472-20.379-36.843-32.382-61.261-31.568c-21.8,0.727-42.237,11.362-55.168,28.952
					C6.137,61.657,2.859,86.049,10.354,107.32c7.234,20.529,24.289,36.524,44.963,43.04c25.826,8.14,54.912,0.384,73.381-19.319
					C129.5,130.188,126.61,130.07,126.068,130.648L126.068,130.648z"/>
			</g>
		</g>
	</g>
	<g>
		<g>
			<path fill="#FFFFFF" stroke="#FFFFFF" stroke-width="1.3808" stroke-miterlimit="10" d="M75.708,169.926
				c-13.307,0-26.79-3.143-39.354-9.773c-1.432-0.755-1.979-2.527-1.223-3.959s2.529-1.979,3.959-1.225
				c38.396,20.271,86.125,5.521,106.395-32.877c0.756-1.43,2.529-1.977,3.961-1.225c1.43,0.756,1.978,2.529,1.223,3.961
				C135.522,153.521,106.098,169.926,75.708,169.926z"/>
		</g>
		<g>
			<path fill="#FFFFFF" stroke="#FFFFFF" stroke-width="1.3808" stroke-miterlimit="10" d="M3.62,50.139
				c-0.462,0-0.93-0.109-1.366-0.34c-1.431-0.755-1.979-2.528-1.224-3.96C11.579,25.854,29.28,11.173,50.871,4.502
				c21.592-6.671,44.486-4.536,64.474,6.013c1.432,0.756,1.979,2.528,1.223,3.96c-0.755,1.431-2.529,1.979-3.959,1.224
				C94.006,5.881,72.696,3.893,52.602,10.102c-20.096,6.21-36.569,19.873-46.388,38.474C5.688,49.57,4.67,50.139,3.62,50.139z"/>
		</g>
	</g>
	<g>
		<g>
			<path fill="#FFFFFF" stroke="#FFFFFF" stroke-width="1.3808" stroke-miterlimit="10" d="M75.875,160.08
				c-2.797,0-5.604-0.157-8.412-0.475c-18.182-2.053-34.93-10.665-47.156-24.252l8.713-7.842
				c10.309,11.453,24.429,18.715,39.761,20.445c15.333,1.729,30.713-2.199,43.315-11.068l6.747,9.588
				C106.202,155.372,91.2,160.08,75.875,160.08z"/>
		</g>
		<g>
			<path fill="#FFFFFF" stroke="#FFFFFF" stroke-width="1.3808" stroke-miterlimit="10" d="M122.676,43.157
				C112.368,31.702,98.249,24.44,82.918,22.71C67.587,20.982,52.204,24.911,39.6,33.778l-6.745-9.587
				c14.948-10.519,33.194-15.187,51.379-13.13c18.181,2.052,34.929,10.666,47.157,24.253L122.676,43.157z"/>
		</g>
	</g>
	<g>
		<g>
			<path fill="#FFFFFF" d="M41.309,48.687l-1.61-1.705c18.931-17.886,47.646-19.326,68.279-3.427l-1.431,1.856
				C86.834,30.222,59.397,31.599,41.309,48.687z"/>
		</g>
		<g>
			<path fill="none" d="M116.7,116.746c15.424-20.016,14.002-48.386-3.352-66.758"/>
		</g>
		<g>
			<path fill="#FFFFFF" d="M75.874,138.133c-11.27,0-22.58-3.643-32.154-11.021l1.432-1.857
				c19.711,15.189,47.146,13.812,65.238-3.274l1.61,1.705C101.85,133.27,88.891,138.133,75.874,138.133z"/>
		</g>
		<g>
			<path fill="#FFFFFF" d="M37.498,121.484c-17.884-18.934-19.326-47.649-3.428-68.279l1.856,1.431
				c-15.188,19.711-13.813,47.147,3.275,65.237L37.498,121.484z"/>
		</g>
	</g>
	<g>
		<path fill="#FFFFFF" d="M168.205,56.339c-3.726-7.212-9.218-13.481-15.884-18.128l1.342-1.924
			c6.977,4.865,12.727,11.426,16.625,18.976L168.205,56.339z"/>
	</g>
	<g>
		<path fill="#FFFFFF" d="M154.739,141.496l-1.136-2.051c6.668-3.688,12.275-8.701,16.667-14.906
			c2.123-2.996,3.921-6.236,5.346-9.631l2.162,0.906c-1.49,3.553-3.373,6.943-5.594,10.08
			C167.586,132.389,161.715,137.638,154.739,141.496z"/>
	</g>
	
		<line fill="none" stroke="#FFFFFF" stroke-width="1.3966" stroke-miterlimit="10" x1="100.823" y1="97.16" x2="203.444" y2="97.16"/>
</g>
<path fill="#FFFFFF" d="M59.535,100.504c-0.113,3.713,1.589,6.893,4.879,9.63c3.294,2.737,7.377,4.063,12.032,4.152
	c4.878,0.089,9.076-1.238,12.596-3.888c3.517-2.648,5.219-5.916,5.106-9.715c-0.227-6.272-5.56-10.688-16.115-13.249l-9.304-2.209
	c-9.875-2.384-15.548-8.479-15.662-16.606c-0.112-5.034,2.271-9.273,7.149-12.719c4.88-3.532,10.554-5.3,17.138-5.211
	c6.468,0.088,12.028,1.944,16.567,5.565c4.541,3.623,6.809,7.95,6.809,12.985h-9.19c0.113-3.179-1.249-5.918-4.088-8.215
	c-2.722-2.295-6.128-3.533-10.098-3.709c-4.201-0.177-7.944,0.884-11.237,3.269c-3.177,2.296-4.651,5.035-4.537,8.302
	c0.113,5.3,3.517,8.744,10.098,10.334l10.555,2.562c13.506,3.268,20.314,9.627,20.429,19.079c0.112,5.563-2.499,10.246-7.604,14.222
	c-5.106,3.886-11.234,5.828-18.497,5.828c-7.264,0-13.394-1.942-18.5-5.828c-5.104-3.888-7.604-8.746-7.717-14.577H59.535z"/>
<g>
	<path fill="#FDFDFE" d="M129.224,85.226c-0.981,2.85-2.664,5.141-5.048,6.824s-5.001,2.524-7.898,2.571
		c-3.646,0.047-6.871-1.263-9.676-3.974c-2.804-2.758-4.253-5.982-4.299-9.769c-0.094-3.972,1.308-7.431,4.206-10.282
		c2.944-2.897,6.356-4.253,10.329-4.02c3.553,0.233,6.637,1.683,9.254,4.394c2.524,2.664,3.786,5.655,3.786,8.974v1.916h-23.93
		c0.279,2.664,1.401,4.907,3.411,6.638c2.011,1.729,4.347,2.617,7.058,2.57c4.207-0.047,7.198-2.01,9.021-5.842H129.224z
		 M126.374,78.589c-0.515-2.477-1.684-4.486-3.506-6.029c-1.823-1.542-4.02-2.337-6.59-2.383c-2.571-0.047-4.814,0.748-6.731,2.29
		c-1.916,1.543-3.084,3.599-3.598,6.123H126.374z"/>
	<path fill="#FDFDFE" d="M136.609,93.967h-3.552V57.931h3.552V93.967z"/>
	<path fill="#FDFDFE" d="M145.02,64.147h-3.505v-6.216h3.505V64.147z M145.02,93.967h-3.505V67.325h3.505V93.967z"/>
	<path fill="#FDFDFE" d="M172.128,90.601c-2.757,2.758-6.076,4.114-9.908,3.974c-3.692-0.094-6.87-1.496-9.441-4.207
		c-2.57-2.711-3.832-5.936-3.832-9.675c0-3.879,1.401-7.244,4.159-10.001c2.758-2.804,6.076-4.16,9.909-4.02
		c3.692,0.14,6.87,1.543,9.44,4.3c2.571,2.711,3.88,5.936,3.88,9.675C176.335,84.478,174.933,87.796,172.128,90.601z
		 M162.267,91.068c2.944,0.141,5.421-0.842,7.479-3.038c2.103-2.197,3.084-4.72,3.038-7.665c-0.094-2.804-1.122-5.188-3.038-7.198
		c-1.917-2.01-4.207-2.991-6.918-2.991c-2.851-0.047-5.234,0.981-7.244,2.991c-2.01,2.009-2.991,4.394-3.038,7.245
		c-0.047,2.804,0.841,5.281,2.758,7.384C157.219,89.899,159.509,90.975,162.267,91.068z"/>
	<path fill="#FDFDFE" d="M203.444,93.967h-3.598V78.402c0-2.243-0.842-4.159-2.479-5.795c-1.636-1.636-3.505-2.43-5.702-2.43
		c-2.196,0-4.159,0.794-5.795,2.43c-1.636,1.636-2.431,3.552-2.431,5.795v15.565h-3.599V78.776c0-3.459,1.122-6.31,3.365-8.6
		c2.243-2.29,5.047-3.459,8.459-3.459c3.365,0,6.17,1.169,8.414,3.459c2.243,2.29,3.364,5.141,3.364,8.6V93.967z"/>
</g>
<g>
	<path fill="#FFFFFF" d="M136.403,108.651c-1.189,2.229-3.283,3.519-5.847,3.569c-1.825,0.018-3.384-0.638-4.69-1.961
		c-1.289-1.322-1.942-2.914-1.942-4.756c0-1.893,0.653-3.486,1.96-4.741c1.272-1.255,2.831-1.876,4.673-1.86
		c1.29,0.018,2.445,0.335,3.5,0.989c1.006,0.636,1.793,1.491,2.347,2.563h-1.458c-1.072-1.558-2.563-2.312-4.488-2.294
		c-1.425,0-2.664,0.518-3.702,1.557c-1.021,1.021-1.559,2.262-1.593,3.719c-0.032,1.507,0.487,2.814,1.542,3.919
		c1.072,1.089,2.362,1.642,3.853,1.642c0.871,0,1.726-0.234,2.547-0.686c0.787-0.435,1.406-0.988,1.858-1.659H136.403z"/>
	<path fill="#FFFFFF" d="M144.912,110.762c-0.988,0.989-2.178,1.477-3.551,1.424c-1.324-0.033-2.462-0.535-3.385-1.506
		c-0.92-0.972-1.373-2.129-1.373-3.467c0-1.393,0.503-2.598,1.49-3.586c0.989-1.006,2.179-1.491,3.553-1.441
		c1.322,0.051,2.462,0.553,3.383,1.541c0.922,0.972,1.391,2.129,1.391,3.469C146.419,108.568,145.917,109.758,144.912,110.762z
		 M141.377,110.93c1.055,0.051,1.942-0.301,2.681-1.088c0.753-0.789,1.105-1.692,1.088-2.748c-0.034-1.005-0.401-1.858-1.088-2.579
		c-0.688-0.72-1.508-1.071-2.479-1.071c-1.022-0.018-1.876,0.352-2.597,1.071c-0.721,0.721-1.072,1.574-1.089,2.596
		c-0.017,1.007,0.302,1.895,0.988,2.647C139.569,110.512,140.389,110.897,141.377,110.93z"/>
	<path fill="#FFFFFF" d="M156.135,111.969h-1.291v-5.578c0-0.804-0.301-1.491-0.887-2.076c-0.587-0.588-1.257-0.871-2.044-0.871
		s-1.491,0.283-2.077,0.871c-0.587,0.585-0.871,1.272-0.871,2.076v5.578h-1.29v-5.443c0-1.24,0.403-2.262,1.206-3.082
		c0.805-0.822,1.809-1.24,3.032-1.24c1.206,0,2.212,0.418,3.015,1.24c0.804,0.82,1.207,1.842,1.207,3.082V111.969z"/>
	<path fill="#FFFFFF" d="M158.797,109.457c0,0.316,0.185,0.652,0.537,1.004c0.352,0.352,0.737,0.52,1.14,0.502
		c0.535-0.016,0.953-0.168,1.272-0.484c0.284-0.284,0.419-0.67,0.436-1.14c0.017-0.821-0.452-1.373-1.391-1.675l-1.122-0.353
		c-1.172-0.369-1.792-1.173-1.844-2.396c-0.032-0.737,0.219-1.373,0.738-1.893c0.536-0.52,1.172-0.803,1.926-0.838
		c0.653-0.033,1.257,0.186,1.81,0.638c0.57,0.452,0.871,1.005,0.921,1.675l0.017,0.283h-1.34v-0.217c0-0.67-0.67-1.121-1.407-1.121
		c-0.721,0.018-1.322,0.569-1.34,1.305c-0.05,0.688,0.369,1.175,1.224,1.459l1.104,0.368c1.273,0.435,1.96,1.29,2.043,2.546
		c0.067,0.855-0.233,1.608-0.903,2.244c-0.671,0.621-1.441,0.905-2.312,0.855c-0.805-0.051-1.475-0.387-2.027-0.972
		c-0.536-0.587-0.804-1.29-0.804-2.11h1.322V109.457z"/>
	<path fill="#FFFFFF" d="M173.204,107.865c0,1.238-0.402,2.277-1.206,3.098c-0.787,0.822-1.792,1.24-3.015,1.24
		c-1.224,0-2.228-0.418-3.031-1.24c-0.789-0.82-1.189-1.859-1.189-3.098v-5.443h1.29v5.594c0,0.803,0.283,1.491,0.87,2.076
		c0.586,0.57,1.273,0.855,2.061,0.855s1.458-0.285,2.044-0.855c0.585-0.585,0.887-1.273,0.887-2.076v-5.594h1.29V107.865z"/>
	<path fill="#FFFFFF" d="M175.901,111.969h-1.272V99.055h1.272V111.969z"/>
	<path fill="#FFFFFF" d="M180.826,112.17c-2.328,0-3.485-0.988-3.485-2.966V99.07h1.29v3.334h2.195v1.189h-2.195v5.394
		c0,1.423,0.738,2.126,2.195,2.126V112.17z"/>
	<path fill="#FFFFFF" d="M183.204,101.282h-1.255v-2.228h1.255V101.282z M183.204,111.969h-1.255v-9.547h1.255V111.969z"/>
	<path fill="#FFFFFF" d="M193.036,111.969h-1.288v-5.578c0-0.804-0.303-1.491-0.889-2.076c-0.586-0.588-1.256-0.871-2.044-0.871
		c-0.787,0-1.49,0.283-2.076,0.871c-0.587,0.585-0.871,1.272-0.871,2.076v5.578h-1.29v-5.443c0-1.24,0.402-2.262,1.206-3.082
		c0.804-0.822,1.809-1.24,3.031-1.24c1.207,0,2.211,0.418,3.016,1.24c0.804,0.82,1.205,1.842,1.205,3.082V111.969z"/>
	<path fill="#FFFFFF" d="M204.192,111.516c0,1.207-0.502,2.213-1.49,2.999c-0.989,0.788-2.11,1.173-3.384,1.122
		c-1.139-0.051-2.127-0.387-2.947-1.039c-0.788-0.618-1.308-1.424-1.575-2.395h1.24c0.185,0.652,0.62,1.223,1.272,1.691
		c0.653,0.486,1.374,0.721,2.16,0.721c0.939-0.018,1.742-0.334,2.43-0.988c0.687-0.637,1.039-1.406,1.039-2.295v-0.904
		c-0.938,1.072-2.111,1.643-3.519,1.691c-1.373,0.051-2.563-0.436-3.551-1.424c-0.989-1.005-1.491-2.21-1.491-3.602
		c0-1.339,0.452-2.496,1.374-3.467c0.921-0.972,2.06-1.475,3.384-1.523c1.374-0.033,2.563,0.451,3.567,1.457
		c1.021,0.987,1.508,2.177,1.49,3.55V111.516z M201.831,109.791c0.687-0.721,1.056-1.574,1.072-2.578
		c0.034-1.057-0.318-1.961-1.072-2.748c-0.737-0.788-1.626-1.155-2.68-1.106c-0.988,0.052-1.81,0.454-2.495,1.206
		c-0.688,0.754-1.022,1.625-1.007,2.631c0.017,1.021,0.387,1.875,1.106,2.596s1.574,1.072,2.58,1.072
		C200.324,110.863,201.144,110.512,201.831,109.791z"/>
</g>
<g>
</g>
<g>
</g>
<g>
</g>
<g>
</g>
<g>
</g>
<g>
</g>
</svg>
