<?xml version="1.0" standalone="no"?>
<!DOCTYPE svg PUBLIC "-//W3C//DTD SVG 20010904//EN"
 "http://www.w3.org/TR/2001/REC-SVG-20010904/DTD/svg10.dtd">
<svg version="1.0" xmlns="http://www.w3.org/2000/svg"
 width="219.000000pt" height="219.000000pt" viewBox="0 0 219.000000 219.000000"
 preserveAspectRatio="xMidYMid meet">
<metadata>
Created by potrace 1.11, written by Peter Selinger 2001-2013
</metadata>
<g transform="translate(0.000000,219.000000) scale(0.100000,-0.100000)"
fill="#000000" stroke="none">
<path d="M1285 1579 c-4 -6 -13 -8 -21 -5 -7 3 12 -27 44 -67 31 -40 93 -123
137 -185 43 -61 81 -109 83 -107 7 7 -221 375 -232 375 -3 0 -8 -5 -11 -11z"/>
<path d="M1053 1470 c-63 -61 -128 -119 -144 -131 l-29 -20 0 40 c0 23 1 43 3
44 7 11 -29 36 -61 42 -20 3 -48 9 -61 12 -22 6 -23 4 -20 -46 2 -28 3 -51 2
-51 0 0 -41 47 -89 105 -49 58 -92 105 -96 105 -13 0 -9 -18 5 -24 6 -4 1 -4
-13 -1 -14 2 -33 5 -43 5 -11 0 -15 4 -11 12 4 7 3 8 -5 4 -6 -4 -23 -25 -36
-46 -30 -47 -122 -121 -305 -246 -98 -67 -137 -99 -133 -109 3 -8 7 -15 10
-15 26 0 289 174 393 259 41 34 85 64 98 68 33 8 66 -19 202 -161 226 -238
252 -261 183 -170 -16 22 -23 44 -23 76 0 45 2 47 73 104 89 72 180 157 218
205 24 31 26 38 14 43 -11 4 -53 -30 -132 -104z m-218 -76 c13 -13 15 -28 9
-73 -3 -31 -9 -59 -13 -63 -4 -5 -21 11 -39 34 -23 30 -32 52 -32 80 0 35 2
38 29 38 16 0 37 -7 46 -16z"/>
<path d="M1190 1424 c-16 -42 -6 -54 45 -54 l46 0 -3 38 c-3 35 -5 37 -41 40
-32 3 -38 0 -47 -24z"/>
<path d="M479 1303 c-43 -5 -49 -17 -49 -105 0 -74 14 -83 118 -75 41 3 76 8
79 11 9 8 16 124 9 150 -6 24 -10 26 -64 24 -31 -1 -73 -3 -93 -5z"/>
<path d="M118 1075 c-6 -9 7 -273 19 -395 4 -44 7 -51 15 -35 20 35 -13 462
-34 430z"/>
<path d="M1190 990 c0 -11 7 -20 15 -20 13 0 14 4 5 20 -6 11 -13 20 -15 20
-3 0 -5 -9 -5 -20z"/>
<path d="M1100 985 c-10 -12 -10 -15 4 -15 9 0 16 7 16 15 0 8 -2 15 -4 15 -2
0 -9 -7 -16 -15z"/>
<path d="M419 955 c-59 -32 -70 -146 -20 -196 33 -33 84 -39 117 -15 27 20 7
40 -27 27 -25 -9 -56 1 -71 23 -13 19 -8 91 8 114 11 16 25 22 55 22 27 0 39
4 39 14 0 28 -58 34 -101 11z"/>
<path d="M757 963 c-16 -4 -17 -16 -15 -116 2 -92 6 -112 18 -112 10 0 16 13
18 40 5 61 17 62 57 6 20 -28 43 -51 51 -51 20 0 17 15 -12 59 l-26 40 23 30
c19 27 21 33 9 60 -16 39 -70 58 -123 44z m77 -46 c21 -15 13 -44 -15 -52 -26
-8 -39 2 -39 29 0 38 21 47 54 23z"/>
<path d="M1286 955 c-38 -20 -53 -42 -60 -87 -7 -46 12 -99 45 -122 28 -19 77
-21 114 -4 24 11 26 16 23 62 -3 49 -4 51 -35 54 -24 2 -33 -1 -33 -11 0 -8 7
-17 15 -21 21 -8 19 -43 -2 -54 -33 -17 -79 13 -83 53 -5 43 1 66 21 86 17 17
29 20 60 15 31 -5 39 -3 39 9 0 16 -30 35 -57 35 -10 0 -31 -7 -47 -15z"/>
<path d="M1467 963 c-16 -4 -17 -16 -15 -116 2 -92 6 -112 18 -112 10 0 16 12
18 35 5 61 10 66 37 40 14 -13 27 -31 31 -42 6 -20 42 -43 52 -33 4 3 -6 28
-21 54 -26 48 -26 48 -7 66 43 39 12 102 -55 109 -22 3 -48 2 -58 -1z m87 -56
c9 -15 7 -21 -9 -33 -36 -27 -67 -1 -51 42 8 20 46 14 60 -9z"/>
<path d="M572 848 l3 -113 63 -3 c57 -3 62 -1 62 18 0 17 -6 20 -45 20 -45 0
-45 0 -45 34 0 32 3 35 32 38 37 4 51 28 16 28 -33 0 -51 14 -46 36 2 14 13
20 46 22 28 2 42 8 42 18 0 11 -15 14 -65 14 l-66 0 3 -112z"/>
<path d="M890 945 c0 -11 10 -15 35 -15 l35 0 0 -84 c0 -93 5 -116 26 -116 11
0 14 19 14 88 0 48 4 92 8 99 4 6 20 13 35 15 15 1 29 8 30 13 1 6 -35 11 -90
13 -78 2 -93 0 -93 -13z"/>
<path d="M1642 848 l3 -113 65 0 c51 0 65 3 65 15 0 11 -13 16 -47 18 -47 3
-48 4 -48 37 0 31 3 34 32 37 37 4 51 28 16 28 -33 0 -51 14 -46 36 2 14 14
20 48 24 68 8 54 25 -23 28 l-68 3 3 -113z"/>
<path d="M1810 850 c0 -106 1 -110 23 -115 44 -12 112 -1 115 17 3 14 -6 17
-45 20 -46 3 -48 4 -48 33 0 27 4 30 33 33 43 4 41 28 -4 36 -29 6 -35 11 -32
29 3 19 10 22 51 25 33 2 47 7 47 18 0 11 -16 14 -70 14 l-70 0 0 -110z"/>
<path d="M1990 851 c0 -61 4 -112 9 -115 16 -11 30 20 33 74 l3 55 49 -68 c29
-41 52 -65 58 -59 5 5 7 56 6 113 -3 88 -6 104 -20 107 -14 3 -18 -7 -20 -65
l-3 -68 -49 68 c-28 37 -53 67 -58 67 -4 0 -8 -49 -8 -109z"/>
<path d="M682 605 c-56 -8 -127 -19 -158 -26 -65 -15 -87 -35 -28 -26 21 3
113 11 204 18 155 11 383 6 695 -16 l70 -5 -23 19 c-28 24 -42 27 -247 40
-204 14 -382 12 -513 -4z"/>
</g>
</svg>
