<?xml version="1.0" encoding="utf-8"?>
<!-- Generator: Adobe Illustrator 19.0.0, SVG Export Plug-In . SVG Version: 6.00 Build 0)  -->
<svg version="1.1" id="Calque_1" xmlns="http://www.w3.org/2000/svg" xmlns:xlink="http://www.w3.org/1999/xlink" x="0px" y="0px"
	 viewBox="-28 331.9 539 178" style="enable-background:new -28 331.9 539 178;" xml:space="preserve" width="539" height="178">
<style type="text/css">
	.st0{fill:none;}
	.st1{fill:#F2F7F0;}
	.st2{fill:#196A29;}
	.st3{font-family:'Gotham-Bold';}
	.st4{font-size:8.5063px;}
	.st5{font-family:'Gotham-Book';}
	.st6{fill:#FFFFFF;}
</style>
<rect x="140.8" y="331.2" class="st0" width="377.7" height="258.6"/>
<rect x="141.8" y="332.2" class="st0" width="375.7" height="256.6"/>
<rect x="141.8" y="332.2" class="st0" width="375.7" height="256.6"/>
<rect x="141.8" y="332.2" class="st0" width="375.7" height="256.6"/>
<rect x="141.8" y="332.2" class="st0" width="375.7" height="256.6"/>
<rect x="141.8" y="332.2" class="st0" width="375.7" height="256.6"/>
<rect x="141.8" y="332.2" class="st0" width="375.7" height="256.6"/>
<rect x="141.8" y="332.2" class="st0" width="375.7" height="256.6"/>
<rect x="141.8" y="332.2" class="st0" width="375.7" height="256.6"/>
<rect x="141.8" y="332.2" class="st0" width="375.7" height="256.6"/>
<rect x="141.8" y="332.2" class="st0" width="375.7" height="256.6"/>
<rect x="141.8" y="332.2" class="st0" width="375.7" height="256.6"/>
<path class="st1" d="M193.5,454c-3,6.9,3,63.6,3,82.6c0,18.9,4.8,28.1,4.8,28.1s1.8-19.5,1.8-42.4
	C203.2,499.3,192.3,452.3,193.5,454 M337.9,413.5c4.9,6,9.7,12,14.3,17.7c1.1-6.7,2.9-19.7,2.9-26.7c0-9.7-18.1-8-18.1-8
	L337.9,413.5z M266.1,577.3c0,0,92-9.7,121.1-6.3c29,3.4,81.8,2.9,98.1,5.7c16.3,2.9,0-12-27.2-11.5c-27.2,0.6-62.3-6.3-104.8-3.4
	s-72.7,8.6-80.6,11.5C264.9,576.2,266.1,577.3,266.1,577.3 M264.2,420.2c0,0-4.3,29.9,0.9,34.3c5.2,4.4,42.5,0.9,42.5,0.9
	s5.2-36.9-0.9-37.8C300.7,416.7,264.2,418.5,264.2,420.2 M430.7,388.9c0,0-2.1,14.2,0.4,16.3s20.2,0.4,20.2,0.4s2.5-17.6-0.4-18
	C448.1,387.2,430.7,388.1,430.7,388.9 M170.5,444.2c0,0,88.4-53.9,96.9-71.2s17.5-21.8,31.5-6.3c5.8,6.4,20.2,23.7,35.2,42.1
	l-2.5-6.5c0,0-3.6-18.3,1.2-17.8c4.8,0.6,29.6,6.9,29.6,6.9v25.1c17.4-14.1,60.2-49.5,65.2-62.7c6.3-16.6,13.1-21,23.6-6.1
	c10.4,14.9,58.5,90.8,59.4,95.2c0.9,4.4-57.6-75.3-64.4-77.5c-6.8-2.2-5-6.1-27.7,16c-17.9,17.5-44.6,37.7-56.2,44.6v18
	c9,11.4,15.4,19.9,15.7,21.3c1.2,4.6-76.9-78.1-86-80.4c-9.1-2.3-6.7-6.3-36.9,16.6s-79.3,50.4-82.4,48.7
	C169.8,448.8,170.5,444.2,170.5,444.2"/>
<rect x="141.8" y="332.2" class="st0" width="375.7" height="256.6"/>
<text transform="matrix(1 0 0 1 63.7822 489.8893)" class="st2 st3 st4"> </text>
<text transform="matrix(1 0 0 1 65.6836 489.8893)" class="st2 st3 st4"> </text>
<text transform="matrix(1 0 0 1 242.8999 489.8893)" class="st2 st3 st4"> </text>
<text transform="matrix(1 0 0 1 244.8013 489.8893)" class="st2 st3 st4"> </text>
<text transform="matrix(1 0 0 1 324.8242 489.8893)" class="st2 st5 st4"> </text>
<text transform="matrix(1 0 0 1 326.7256 489.8893)" class="st2 st5 st4"> </text>
<text transform="matrix(1 0 0 1 400.6846 489.8893)" class="st2 st5 st4"> </text>
<text transform="matrix(1 0 0 1 402.586 489.8893)" class="st2 st5 st4"> </text>
<text transform="matrix(1 0 0 1 117.8316 505.5671)" class="st6 st3 st4"> </text>
</svg>
