<?xml version="1.0" encoding="utf-8"?>
<!-- Generator: Adobe Illustrator 19.0.0, SVG Export Plug-In . SVG Version: 6.00 Build 0)  -->
<svg version="1.1" id="Calque_1" xmlns="http://www.w3.org/2000/svg" xmlns:xlink="http://www.w3.org/1999/xlink" x="0px" y="0px"
	 viewBox="0 0 595.3 841.9" style="enable-background:new 0 0 595.3 841.9;" xml:space="preserve" width="596" height="842">
<style type="text/css">
	.st0{opacity:8.000180e-002;clip-path:url(#SVGID_2_);}
	.st1{clip-path:url(#SVGID_4_);}
	.st2{clip-path:url(#SVGID_6_);fill:#5A9E3C;}
	.st3{clip-path:url(#SVGID_6_);fill-rule:evenodd;clip-rule:evenodd;fill:#5A9E3C;}
	.st4{fill:#FFFFFF;}
	.st5{clip-path:url(#SVGID_8_);}
	.st6{fill:none;stroke:#196A29;}
	.st7{clip-path:url(#SVGID_12_);fill:#5A9E3C;}
	.st8{clip-path:url(#SVGID_14_);fill:#196A29;}
	.st9{clip-path:url(#SVGID_16_);fill:#196A29;}
	.st10{clip-path:url(#SVGID_18_);fill:#196A29;}
	.st11{clip-path:url(#SVGID_20_);fill:#FFF000;}
	.st12{fill:#4D4D4F;}
	.st13{clip-path:url(#SVGID_24_);fill:none;stroke:#196A29;stroke-width:0.55;}
	.st14{clip-path:url(#SVGID_24_);}
	.st15{clip-path:url(#SVGID_26_);}
	.st16{clip-path:url(#SVGID_28_);}
	.st17{fill:#5A9E3C;}
	.st18{clip-path:url(#SVGID_32_);fill:#5A9E3C;}
	.st19{fill:#196A29;}
	.st20{font-family:'Gotham-Bold';}
	.st21{font-size:8.5px;}
	.st22{font-family:'Gotham-Book';}
	.st23{fill:none;}
</style>
<g>
	<defs>
		<rect id="SVGID_1_" width="595.3" height="841.9"/>
	</defs>
	<clipPath id="SVGID_2_">
		<use xlink:href="#SVGID_1_"  style="overflow:visible;"/>
	</clipPath>
	<g class="st0">
		<g>
			<defs>
				<rect id="SVGID_3_" x="208.1" y="642.5" width="377.4" height="258.4"/>
			</defs>
			<clipPath id="SVGID_4_">
				<use xlink:href="#SVGID_3_"  style="overflow:visible;"/>
			</clipPath>
			<g class="st1">
				<defs>
					<rect id="SVGID_5_" x="209.1" y="643.5" width="375.4" height="256.4"/>
				</defs>
				<clipPath id="SVGID_6_">
					<use xlink:href="#SVGID_5_"  style="overflow:visible;"/>
				</clipPath>
				<path class="st2" d="M350.8,839c-1.9,0.9-5.9,1.9-11.2,1.9c-13.7,0-22-8.6-22-21.7c0-14.2,9.9-22.7,23.1-22.7
					c5.2,0,8.8,1.1,10.4,1.9l-1.7,6.3c-2-0.9-4.9-1.7-8.4-1.7c-8.8,0-15.1,5.5-15.1,15.8c0,9.5,5.5,15.5,15,15.5
					c3.1,0,6.5-0.6,8.6-1.5L350.8,839z"/>
				<polygon class="st2" points="384.4,821.1 368.2,821.1 368.2,833.7 386.3,833.7 386.3,840.2 360.3,840.2 360.3,797.1 
					385.4,797.1 385.4,803.6 368.2,803.6 368.2,814.7 384.4,814.7 				"/>
				<path class="st2" d="M396,797.8c3-0.6,7.3-1,11.9-1c6.2,0,10.3,1,13.3,3.4c2.4,2,3.7,5,3.7,8.7c0,5.6-3.8,9.3-7.9,10.7v0.2
					c3.1,1.1,5,4.2,6,8.3c1.4,5.4,2.6,10.3,3.4,12h-8c-0.6-1.3-1.7-4.8-2.9-10.2c-1.3-5.6-3.3-7.4-7.7-7.5h-4v17.7H396V797.8z
					 M403.8,816.7h4.7c5.3,0,8.6-2.8,8.6-7.1c0-4.7-3.3-6.9-8.4-6.9c-2.5,0-4.1,0.2-4.9,0.4V816.7z"/>
				<polygon class="st2" points="443.7,803.7 431.5,803.7 431.5,797.1 464,797.1 464,803.7 451.6,803.7 451.6,840.2 443.7,840.2 
									"/>
				<path class="st2" d="M531.7,838.2c-2.7,1-8.1,2.4-13.8,2.4c-7.3,0-12.8-1.9-16.9-5.7c-3.8-3.6-6-9.3-6-15.8
					c0.1-13.7,9.7-22.4,24-22.4c5.3,0,9.5,1.1,11.4,2l-1.7,6.3c-2.4-1.1-5.2-1.9-9.8-1.9c-9.2,0-15.6,5.4-15.6,15.5
					c0,9.8,6,15.6,14.9,15.6c2.9,0,4.9-0.4,5.9-0.8v-10.8h-7.6v-6.2h15.2V838.2z"/>
				<path class="st2" d="M542.6,797.8c3-0.6,7.3-1,11.9-1c6.2,0,10.3,1,13.3,3.4c2.4,2,3.7,5,3.7,8.7c0,5.6-3.8,9.3-7.9,10.7v0.2
					c3.1,1.1,5,4.2,6,8.3c1.4,5.4,2.6,10.3,3.4,12h-8.1c-0.6-1.3-1.7-4.8-2.9-10.2c-1.3-5.6-3.3-7.4-7.7-7.5h-4v17.7h-7.8V797.8z
					 M550.4,816.7h4.7c5.3,0,8.6-2.8,8.6-7.1c0-4.7-3.3-6.9-8.4-6.9c-2.5,0-4.1,0.2-4.9,0.4V816.7z"/>
				<polygon class="st2" points="605.8,821.1 589.6,821.1 589.6,833.7 607.7,833.7 607.7,840.2 581.7,840.2 581.7,797.1 
					606.8,797.1 606.8,803.6 589.6,803.6 589.6,814.7 605.8,814.7 				"/>
				<polygon class="st2" points="641.5,821.1 625.3,821.1 625.3,833.7 643.4,833.7 643.4,840.2 617.4,840.2 617.4,797.1 
					642.5,797.1 642.5,803.6 625.3,803.6 625.3,814.7 641.5,814.7 				"/>
				<path class="st2" d="M653.1,840.2v-43.1h9l11.1,18.5c2.8,4.8,5.4,9.8,7.3,14.4h0.1c-0.6-5.7-0.7-11.3-0.7-17.9v-15h7.3v43.1
					h-8.2l-11.2-19c-2.7-4.7-5.6-10-7.7-14.8l-0.3,0.1c0.3,5.6,0.4,11.2,0.4,18.3v15.4H653.1z"/>
				<path class="st3" d="M260.7,765.2c-3,6.9,3,63.6,3,82.5c0,18.9,4.8,28.1,4.8,28.1s1.8-19.5,1.8-42.4
					C270.4,810.4,259.5,763.4,260.7,765.2 M404.9,724.8c4.9,6,9.7,12,14.3,17.7c1.1-6.7,2.9-19.7,2.9-26.7c0-9.7-18.1-8-18.1-8
					L404.9,724.8z M333.3,888.4c0,0,91.9-9.7,121-6.3c29,3.4,81.7,2.9,98,5.7c16.3,2.9,0-12-27.2-11.5c-27.2,0.6-62.3-6.3-104.7-3.4
					c-42.4,2.9-72.6,8.6-80.5,11.5C332.1,887.2,333.3,888.4,333.3,888.4 M331.4,731.5c0,0-4.3,29.9,0.9,34.3
					c5.2,4.4,42.5,0.9,42.5,0.9s5.2-36.9-0.9-37.8C367.8,728,331.4,729.7,331.4,731.5 M497.7,700.2c0,0-2.1,14.2,0.4,16.3
					c2.5,2.1,20.2,0.4,20.2,0.4s2.5-17.6-0.4-18C515.1,698.5,497.7,699.3,497.7,700.2 M237.7,755.4c0,0,88.3-53.9,96.8-71.1
					c8.5-17.2,17.5-21.8,31.5-6.3c5.8,6.4,20.2,23.7,35.2,42.1l-2.5-6.5c0,0-3.6-18.3,1.2-17.8c4.8,0.6,29.6,6.9,29.6,6.9v25.1
					c17.4-14.1,60.2-49.5,65.2-62.7c6.3-16.6,13.1-21,23.6-6.1c10.4,14.9,58.5,90.7,59.4,95.1c0.9,4.4-57.6-75.2-64.4-77.4
					c-6.8-2.2-5-6.1-27.7,16c-17.9,17.5-44.6,37.7-56.2,44.6v18c9,11.4,15.4,19.9,15.7,21.3c1.2,4.6-76.8-78-85.9-80.3
					c-9.1-2.3-6.7-6.3-36.9,16.6c-30.2,22.9-79.2,50.4-82.3,48.7C237.1,760,237.7,755.4,237.7,755.4"/>
				<rect x="475.1" y="797.6" class="st2" width="8.6" height="42.4"/>
				<polygon class="st2" points="471.3,791.6 487.5,791.6 479.4,779.2 				"/>
			</g>
		</g>
	</g>
</g>
<rect x="315.5" y="777.3" class="st4" width="279.8" height="64.6"/>
<g>
	<defs>
		<rect id="SVGID_7_" x="26.6" y="20.7" width="130.2" height="68.5"/>
	</defs>
	<clipPath id="SVGID_8_">
		<use xlink:href="#SVGID_7_"  style="overflow:visible;"/>
	</clipPath>
	<g class="st5">
		<defs>
			<rect id="SVGID_9_" x="26.6" y="20.7" width="130.2" height="68.5"/>
		</defs>
		<clipPath id="SVGID_10_">
			<use xlink:href="#SVGID_9_"  style="overflow:visible;"/>
		</clipPath>
		<g style="clip-path:url(#SVGID_10_);">
			
				<image style="overflow:visible;" width="543" height="286" xlink:href="EB2D016C.jpg"  transform="matrix(0.2398 0 0 0.2397 26.6457 20.6932)">
			</image>
		</g>
	</g>
</g>
<line class="st6" x1="127.6" y1="27.5" x2="566.9" y2="27.5"/>
<g>
	<defs>
		<rect id="SVGID_11_" width="595.3" height="841.9"/>
	</defs>
	<clipPath id="SVGID_12_">
		<use xlink:href="#SVGID_11_"  style="overflow:visible;"/>
	</clipPath>
	<path class="st7" d="M182.5,27.8v19.9c0,0,0,2.5,2.5,2.5h63.6c0,0,2.5,0,2.5-2.5V27.8H182.5z"/>
</g>
<g>
	<path class="st4" d="M196.5,35.8L196.5,35.8c0-1.2,0.9-2.2,2.2-2.2c0.8,0,1.3,0.3,1.6,0.6l-0.6,0.7c-0.3-0.3-0.6-0.5-1.1-0.5
		c-0.7,0-1.2,0.6-1.2,1.3v0c0,0.7,0.5,1.3,1.2,1.3c0.5,0,0.8-0.2,1.1-0.5l0.6,0.6c-0.4,0.5-0.9,0.7-1.7,0.7
		C197.4,37.9,196.5,37,196.5,35.8z"/>
	<path class="st4" d="M201.1,33.7h3.2v0.8H202v0.8h2v0.8h-2V37h2.3v0.8h-3.2V33.7z"/>
	<path class="st4" d="M205.1,33.7h1.9c0.5,0,0.9,0.1,1.2,0.4c0.2,0.2,0.4,0.6,0.4,1v0c0,0.7-0.4,1.1-0.9,1.3l1,1.5h-1.1l-0.9-1.3
		H206v1.3h-0.9V33.7z M206.9,35.7c0.4,0,0.7-0.2,0.7-0.6v0c0-0.4-0.3-0.6-0.7-0.6H206v1.2H206.9z"/>
	<path class="st4" d="M210.4,34.5h-1.3v-0.8h3.5v0.8h-1.3v3.3h-0.9V34.5z"/>
	<path class="st4" d="M213.3,33.7h0.9v4.2h-0.9V33.7z"/>
	<path class="st4" d="M215.3,33.7h3.2v0.8h-2.3v0.9h2v0.8h-2v1.6h-0.9V33.7z"/>
	<path class="st4" d="M219.2,33.7h0.9v4.2h-0.9V33.7z"/>
	<path class="st4" d="M221,35.8L221,35.8c0-1.2,0.9-2.2,2.2-2.2c0.8,0,1.3,0.3,1.6,0.6l-0.6,0.7c-0.3-0.3-0.6-0.5-1.1-0.5
		c-0.7,0-1.2,0.6-1.2,1.3v0c0,0.7,0.5,1.3,1.2,1.3c0.5,0,0.8-0.2,1.1-0.5l0.6,0.6c-0.4,0.5-0.9,0.7-1.7,0.7
		C221.9,37.9,221,37,221,35.8z"/>
	<path class="st4" d="M227,33.7h0.8l1.8,4.2h-1l-0.4-0.9h-1.8l-0.4,0.9h-0.9L227,33.7z M228,36.1l-0.6-1.4l-0.6,1.4H228z"/>
	<path class="st4" d="M230.8,34.5h-1.3v-0.8h3.5v0.8h-1.3v3.3h-0.9V34.5z"/>
	<path class="st4" d="M233.3,37.3l0.5-0.7c0.4,0.3,0.8,0.5,1.2,0.5c0.4,0,0.6-0.1,0.6-0.4v0c0-0.2-0.1-0.4-0.8-0.5
		c-0.8-0.2-1.4-0.4-1.4-1.3v0c0-0.8,0.6-1.3,1.5-1.3c0.6,0,1.1,0.2,1.6,0.5l-0.5,0.7c-0.4-0.3-0.7-0.4-1.1-0.4s-0.5,0.2-0.5,0.4v0
		c0,0.3,0.2,0.4,0.9,0.5c0.8,0.2,1.3,0.5,1.3,1.3v0c0,0.8-0.6,1.3-1.5,1.3C234.4,37.9,233.8,37.7,233.3,37.3z"/>
</g>
<g>
	<path class="st4" d="M210.9,40.8h1.7c1,0,1.6,0.6,1.6,1.4v0c0,1-0.8,1.5-1.7,1.5h-0.7V45h-0.9V40.8z M212.5,43
		c0.5,0,0.7-0.3,0.7-0.6v0c0-0.4-0.3-0.6-0.7-0.6h-0.7V43H212.5z"/>
	<path class="st4" d="M214.9,40.8h3.2v0.8h-2.2v0.8h2v0.8h-2v0.9h2.3V45h-3.2V40.8z"/>
	<path class="st4" d="M218.9,40.8h1.9c0.5,0,0.9,0.1,1.1,0.4c0.2,0.2,0.3,0.4,0.3,0.7v0c0,0.5-0.3,0.7-0.5,0.9
		c0.5,0.2,0.8,0.5,0.8,1v0c0,0.8-0.6,1.1-1.6,1.1h-2V40.8z M220.6,42.5c0.4,0,0.7-0.1,0.7-0.4v0c0-0.3-0.2-0.4-0.6-0.4h-0.9v0.9
		H220.6z M220.9,44.2c0.4,0,0.7-0.1,0.7-0.5v0c0-0.3-0.2-0.5-0.7-0.5h-1.1v0.9H220.9z"/>
</g>
<g>
	<defs>
		<rect id="SVGID_13_" width="595.3" height="841.9"/>
	</defs>
	<clipPath id="SVGID_14_">
		<use xlink:href="#SVGID_13_"  style="overflow:visible;"/>
	</clipPath>
	<path class="st8" d="M254,27.9v19.7c0,0,0,2.5,2.5,2.5h63.6c0,0,2.5,0,2.5-2.5V27.9H254z"/>
</g>
<g>
	<path class="st4" d="M270.8,35.8L270.8,35.8c0-1.2,0.9-2.2,2.2-2.2c0.8,0,1.3,0.3,1.6,0.6l-0.6,0.7c-0.3-0.3-0.6-0.5-1.1-0.5
		c-0.7,0-1.2,0.6-1.2,1.3v0c0,0.7,0.5,1.3,1.2,1.3c0.5,0,0.8-0.2,1.1-0.5l0.6,0.6c-0.4,0.5-0.9,0.7-1.7,0.7
		C271.7,37.9,270.8,37,270.8,35.8z"/>
	<path class="st4" d="M275,35.8L275,35.8c0-1.2,0.9-2.2,2.2-2.2s2.2,1,2.2,2.1v0c0,1.2-0.9,2.2-2.2,2.2S275,37,275,35.8z
		 M278.5,35.8L278.5,35.8c0-0.7-0.5-1.3-1.3-1.3S276,35,276,35.8v0c0,0.7,0.5,1.3,1.3,1.3S278.5,36.5,278.5,35.8z"/>
	<path class="st4" d="M280.3,33.7h0.8l2,2.6v-2.6h0.9v4.2h-0.8l-2-2.7v2.7h-0.9V33.7z"/>
	<path class="st4" d="M286,34.5h-1.3v-0.8h3.5v0.8h-1.3v3.3H286V34.5z"/>
	<path class="st4" d="M288.9,33.7h1.9c0.5,0,0.9,0.1,1.2,0.4c0.2,0.2,0.4,0.6,0.4,1v0c0,0.7-0.4,1.1-0.9,1.3l1,1.5h-1.1l-0.9-1.3
		h-0.7v1.3h-0.9V33.7z M290.7,35.7c0.4,0,0.7-0.2,0.7-0.6v0c0-0.4-0.3-0.6-0.7-0.6h-0.9v1.2H290.7z"/>
	<path class="st4" d="M293,35.8L293,35.8c0-1.2,0.9-2.2,2.2-2.2s2.2,1,2.2,2.1v0c0,1.2-0.9,2.2-2.2,2.2C293.9,37.9,293,37,293,35.8z
		 M296.5,35.8L296.5,35.8c0-0.7-0.5-1.3-1.3-1.3S294,35,294,35.8v0c0,0.7,0.5,1.3,1.3,1.3S296.5,36.5,296.5,35.8z M294.8,32.4h0.9
		l0.8,0.9h-0.7l-0.5-0.3l-0.5,0.3H294L294.8,32.4z"/>
	<path class="st4" d="M298.3,33.7h0.9V37h2.1v0.8h-3V33.7z"/>
	<path class="st4" d="M302,33.7h3.2v0.8h-2.2v0.8h2v0.8h-2V37h2.3v0.8H302V33.7z"/>
</g>
<g>
	<path class="st4" d="M274.6,42.9L274.6,42.9c0-1.2,0.9-2.2,2.2-2.2c0.8,0,1.3,0.3,1.6,0.6l-0.6,0.7c-0.3-0.3-0.6-0.5-1.1-0.5
		c-0.7,0-1.2,0.6-1.2,1.3v0c0,0.7,0.5,1.3,1.2,1.3c0.5,0,0.8-0.2,1.1-0.5l0.6,0.6c-0.4,0.5-0.9,0.7-1.7,0.7
		C275.5,45.1,274.6,44.1,274.6,42.9z"/>
	<path class="st4" d="M279.2,40.8h0.9V45h-0.9V40.8z"/>
	<path class="st4" d="M282.2,41.7h-1.3v-0.8h3.5v0.8h-1.3V45h-0.9V41.7z"/>
	<path class="st4" d="M285.1,40.8h3.2v0.8H286v0.8h2v0.8h-2v0.9h2.3V45h-3.2V40.8z"/>
	<path class="st4" d="M289.1,40.8h1.9c0.5,0,0.9,0.1,1.2,0.4c0.2,0.2,0.4,0.6,0.4,1v0c0,0.7-0.4,1.1-0.9,1.3l1,1.5h-1.1l-0.9-1.3
		H290V45h-0.9V40.8z M290.9,42.9c0.4,0,0.7-0.2,0.7-0.6v0c0-0.4-0.3-0.6-0.7-0.6H290v1.2H290.9z"/>
	<path class="st4" d="M293.4,40.8h0.8l2,2.6v-2.6h0.9V45h-0.8l-2-2.7V45h-0.9V40.8z"/>
	<path class="st4" d="M298.1,40.8h3.2v0.8H299v0.8h2v0.8h-2v0.9h2.3V45h-3.2V40.8z"/>
</g>
<g>
	<defs>
		<rect id="SVGID_15_" width="595.3" height="841.9"/>
	</defs>
	<clipPath id="SVGID_16_">
		<use xlink:href="#SVGID_15_"  style="overflow:visible;"/>
	</clipPath>
	<path class="st9" d="M325.4,27.8v19.9c0,0,0,2.5,2.5,2.5h63.6c0,0,2.5,0,2.5-2.5V27.8H325.4z"/>
</g>
<g>
	<path class="st4" d="M342.2,35.8L342.2,35.8c0-1.2,0.9-2.2,2.2-2.2c0.8,0,1.3,0.3,1.6,0.6l-0.6,0.7c-0.3-0.3-0.7-0.5-1.1-0.5
		c-0.7,0-1.2,0.6-1.2,1.3v0c0,0.7,0.5,1.3,1.2,1.3c0.5,0,0.8-0.2,1.1-0.5l0.6,0.6c-0.4,0.5-0.9,0.7-1.7,0.7
		C343.1,37.9,342.2,37,342.2,35.8z"/>
	<path class="st4" d="M346.5,35.8L346.5,35.8c0-1.2,0.9-2.2,2.2-2.2c1.3,0,2.2,1,2.2,2.1v0c0,1.2-0.9,2.2-2.2,2.2
		C347.4,37.9,346.5,37,346.5,35.8z M349.9,35.8L349.9,35.8c0-0.7-0.5-1.3-1.3-1.3c-0.7,0-1.3,0.6-1.3,1.3v0c0,0.7,0.5,1.3,1.3,1.3
		C349.4,37.1,349.9,36.5,349.9,35.8z"/>
	<path class="st4" d="M351.7,33.7h0.8l2,2.6v-2.6h0.9v4.2h-0.8l-2-2.7v2.7h-0.9V33.7z"/>
	<path class="st4" d="M357.4,34.5h-1.3v-0.8h3.5v0.8h-1.3v3.3h-0.9V34.5z"/>
	<path class="st4" d="M360.3,33.7h1.9c0.5,0,0.9,0.1,1.2,0.4c0.2,0.2,0.4,0.6,0.4,1v0c0,0.7-0.4,1.1-0.9,1.3l1,1.5h-1.1l-0.9-1.3
		h-0.7v1.3h-0.9V33.7z M362.2,35.7c0.4,0,0.7-0.2,0.7-0.6v0c0-0.4-0.3-0.6-0.7-0.6h-0.9v1.2H362.2z"/>
	<path class="st4" d="M364.4,35.8L364.4,35.8c0-1.2,0.9-2.2,2.2-2.2c1.3,0,2.2,1,2.2,2.1v0c0,1.2-0.9,2.2-2.2,2.2
		C365.4,37.9,364.4,37,364.4,35.8z M367.9,35.8L367.9,35.8c0-0.7-0.5-1.3-1.3-1.3c-0.7,0-1.3,0.6-1.3,1.3v0c0,0.7,0.5,1.3,1.3,1.3
		C367.4,37.1,367.9,36.5,367.9,35.8z M366.2,32.4h0.9l0.8,0.9h-0.7l-0.5-0.3l-0.5,0.3h-0.7L366.2,32.4z"/>
	<path class="st4" d="M369.7,33.7h0.9V37h2.1v0.8h-3V33.7z"/>
	<path class="st4" d="M373.4,33.7h3.2v0.8h-2.2v0.8h2v0.8h-2V37h2.3v0.8h-3.2V33.7z"/>
</g>
<g>
	<path class="st4" d="M339.9,40.8h3.2v0.8h-2.2v0.8h2v0.8h-2v0.9h2.3V45h-3.2V40.8z M341.9,39.6l0.8,0.3l-0.8,0.6h-0.7L341.9,39.6z"
		/>
	<path class="st4" d="M343.9,40.8h0.9v3.3h2.1V45h-3V40.8z"/>
	<path class="st4" d="M347.6,40.8h3.2v0.8h-2.2v0.8h2v0.8h-2v0.9h2.3V45h-3.2V40.8z"/>
	<path class="st4" d="M351.4,42.9L351.4,42.9c0-1.2,0.9-2.2,2.2-2.2c0.8,0,1.3,0.3,1.6,0.6l-0.6,0.7c-0.3-0.3-0.7-0.5-1.1-0.5
		c-0.7,0-1.2,0.6-1.2,1.3v0c0,0.7,0.5,1.3,1.2,1.3c0.5,0,0.8-0.2,1.1-0.5l0.6,0.6c-0.4,0.5-0.9,0.7-1.7,0.7
		C352.4,45.1,351.4,44.1,351.4,42.9z"/>
	<path class="st4" d="M357,41.7h-1.3v-0.8h3.5v0.8h-1.3V45H357V41.7z"/>
	<path class="st4" d="M359.9,40.8h1.9c0.5,0,0.9,0.1,1.2,0.4c0.2,0.2,0.4,0.6,0.4,1v0c0,0.7-0.4,1.1-0.9,1.3l1,1.5h-1.1l-0.9-1.3
		h-0.7V45h-0.9V40.8z M361.7,42.9c0.4,0,0.7-0.2,0.7-0.6v0c0-0.4-0.3-0.6-0.7-0.6h-0.9v1.2H361.7z"/>
	<path class="st4" d="M364.3,40.8h0.9V45h-0.9V40.8z"/>
	<path class="st4" d="M369.9,45.1l-0.5-0.4c-0.4,0.2-0.8,0.4-1.2,0.4c-1.3,0-2.2-1-2.2-2.1v0c0-1.2,0.9-2.2,2.2-2.2
		c1.3,0,2.2,1,2.2,2.1v0c0,0.4-0.1,0.9-0.4,1.2l0.4,0.4L369.9,45.1z M368.8,44.1l-0.7-0.6l0.6-0.7l0.7,0.6c0.1-0.2,0.1-0.4,0.1-0.6
		v0c0-0.7-0.5-1.3-1.3-1.3c-0.7,0-1.3,0.6-1.3,1.3v0c0,0.7,0.5,1.3,1.3,1.3C368.5,44.2,368.6,44.2,368.8,44.1z"/>
	<path class="st4" d="M371.2,43.2v-2.4h0.9v2.4c0,0.7,0.3,1,0.9,1c0.6,0,0.9-0.3,0.9-1v-2.4h0.9v2.4c0,1.3-0.7,1.9-1.8,1.9
		C371.9,45.1,371.2,44.5,371.2,43.2z"/>
	<path class="st4" d="M375.8,40.8h3.2v0.8h-2.2v0.8h2v0.8h-2v0.9h2.3V45h-3.2V40.8z"/>
</g>
<g>
	<defs>
		<rect id="SVGID_17_" width="595.3" height="841.9"/>
	</defs>
	<clipPath id="SVGID_18_">
		<use xlink:href="#SVGID_17_"  style="overflow:visible;"/>
	</clipPath>
	<path class="st10" d="M396.8,27.8v19.9c0,0,0,2.5,2.5,2.5h63.6c0,0,2.5,0,2.5-2.5V27.8H396.8z"/>
</g>
<g>
	<path class="st4" d="M403,33.7h0.9v4.2H403V33.7z"/>
	<path class="st4" d="M405,33.7h0.8l2,2.6v-2.6h0.9v4.2h-0.8l-2-2.7v2.7H405V33.7z"/>
	<path class="st4" d="M409.3,33.7h1l1.1,2.9l1.1-2.9h1l-1.7,4.2H411L409.3,33.7z"/>
	<path class="st4" d="M414.2,33.7h3.2v0.8h-2.2v0.8h2v0.8h-2V37h2.3v0.8h-3.2V33.7z"/>
	<path class="st4" d="M418.2,33.7h0.8l2,2.6v-2.6h0.9v4.2h-0.8l-2-2.7v2.7h-0.9V33.7z"/>
	<path class="st4" d="M423.8,34.5h-1.3v-0.8h3.5v0.8h-1.3v3.3h-0.9V34.5z"/>
	<path class="st4" d="M427.6,33.7h0.8l1.8,4.2h-1l-0.4-0.9h-1.8l-0.4,0.9h-0.9L427.6,33.7z M428.6,36.1l-0.6-1.4l-0.6,1.4H428.6z"/>
	<path class="st4" d="M431,33.7h0.9v4.2H431V33.7z"/>
	<path class="st4" d="M432.9,33.7h1.9c0.5,0,0.9,0.1,1.2,0.4c0.2,0.2,0.4,0.6,0.4,1v0c0,0.7-0.4,1.1-0.9,1.3l1,1.5h-1.1l-0.9-1.3
		h-0.7v1.3h-0.9V33.7z M434.8,35.7c0.4,0,0.7-0.2,0.7-0.6v0c0-0.4-0.3-0.6-0.7-0.6h-0.9v1.2H434.8z"/>
	<path class="st4" d="M437.2,33.7h3.2v0.8h-2.2v0.8h2v0.8h-2V37h2.3v0.8h-3.2V33.7z"/>
</g>
<g>
	<path class="st4" d="M408.6,40.8h0.8l1.8,4.2h-1l-0.4-0.9h-1.8l-0.4,0.9h-0.9L408.6,40.8z M409.6,43.3l-0.6-1.4l-0.6,1.4H409.6z"/>
	<path class="st4" d="M411.9,40.8h1l1.1,1.8l1.1-1.8h1V45h-0.9v-2.7l-1.2,1.8h0l-1.2-1.8V45h-0.9V40.8z"/>
	<path class="st4" d="M417.1,40.8h0.9V45h-0.9V40.8z"/>
	<path class="st4" d="M420.5,40.8h0.8l1.8,4.2h-1l-0.4-0.9h-1.8l-0.4,0.9h-0.9L420.5,40.8z M421.5,43.3l-0.6-1.4l-0.6,1.4H421.5z"/>
	<path class="st4" d="M423.8,40.8h0.8l2,2.6v-2.6h0.9V45h-0.8l-2-2.7V45h-0.9V40.8z"/>
	<path class="st4" d="M429.5,41.7h-1.3v-0.8h3.5v0.8h-1.3V45h-0.9V41.7z"/>
	<path class="st4" d="M432.4,40.8h3.2v0.8h-2.2v0.8h2v0.8h-2v0.9h2.3V45h-3.2V40.8z"/>
</g>
<g>
	<defs>
		<rect id="SVGID_19_" width="595.3" height="841.9"/>
	</defs>
	<clipPath id="SVGID_20_">
		<use xlink:href="#SVGID_19_"  style="overflow:visible;"/>
	</clipPath>
	<path class="st11" d="M448.4,32.1c0,0-1.2,0-1.2,1.2v17h14.7v-17c0,0,0-1.2-1.2-1.2H448.4z"/>
</g>
<g>
	<defs>
		<rect id="SVGID_21_" x="447.8" y="32.8" width="13.4" height="17.5"/>
	</defs>
	<clipPath id="SVGID_22_">
		<use xlink:href="#SVGID_21_"  style="overflow:visible;"/>
	</clipPath>
	<g transform="matrix(1 0 0 1 0 0)" style="clip-path:url(#SVGID_22_);">
		
			<image style="overflow:visible;" width="57" height="74" xlink:href="EB2D016C.jpg"  transform="matrix(0.2359 0 0 0.237 447.8311 32.7556)">
		</image>
	</g>
</g>
<g>
	<path class="st12" d="M476.5,34.1h0.8L479,38h-0.9l-0.4-0.9h-1.6l-0.4,0.9h-0.9L476.5,34.1z M477.4,36.3l-0.5-1.2l-0.5,1.2H477.4z"
		/>
	<path class="st12" d="M479.1,36L479.1,36c0-1.1,0.9-2,2-2c0.7,0,1.1,0.2,1.5,0.5l-0.5,0.6c-0.3-0.2-0.6-0.4-1-0.4
		c-0.6,0-1.1,0.5-1.1,1.2v0c0,0.7,0.5,1.2,1.2,1.2c0.3,0,0.6-0.1,0.8-0.2v-0.5h-0.9v-0.7h1.7v1.7c-0.4,0.3-0.9,0.6-1.6,0.6
		C480,38,479.1,37.2,479.1,36z"/>
	<path class="st12" d="M483.6,34.1h1.8c0.5,0,0.9,0.1,1.1,0.4c0.2,0.2,0.3,0.5,0.3,0.9v0c0,0.6-0.3,1-0.8,1.2l0.9,1.4h-1l-0.8-1.2
		h-0.7V38h-0.8V34.1z M485.3,36c0.4,0,0.6-0.2,0.6-0.5v0c0-0.4-0.3-0.5-0.7-0.5h-0.8V36H485.3z"/>
	<path class="st12" d="M487.6,34.1h2.9v0.8h-2.1v0.8h1.8v0.8h-1.8v0.8h2.1V38h-2.9V34.1z M489.4,32.9l0.7,0.3l-0.7,0.5h-0.6
		L489.4,32.9z"/>
	<path class="st12" d="M491.3,34.1h2.9v0.8h-2.1v0.8h1.8v0.8h-1.8v0.8h2.1V38h-2.9V34.1z M493.1,32.9l0.7,0.3l-0.7,0.5h-0.6
		L493.1,32.9z"/>
	<path class="st12" d="M496.6,34.1h1.6c0.9,0,1.5,0.5,1.5,1.3v0c0,0.9-0.7,1.4-1.6,1.4h-0.6V38h-0.8V34.1z M498.1,36
		c0.4,0,0.7-0.3,0.7-0.6v0c0-0.4-0.3-0.6-0.7-0.6h-0.7V36H498.1z"/>
	<path class="st12" d="M501.2,34.1h0.8l1.6,3.9h-0.9l-0.4-0.9h-1.6l-0.4,0.9h-0.9L501.2,34.1z M502.1,36.3l-0.5-1.2l-0.5,1.2H502.1z
		"/>
	<path class="st12" d="M504.2,34.1h1.8c0.5,0,0.9,0.1,1.1,0.4c0.2,0.2,0.3,0.5,0.3,0.9v0c0,0.6-0.3,1-0.8,1.2l0.9,1.4h-1l-0.8-1.2
		h-0.7V38h-0.8V34.1z M505.9,36c0.4,0,0.6-0.2,0.6-0.5v0c0-0.4-0.3-0.5-0.7-0.5h-0.8V36H505.9z"/>
	<path class="st12" d="M509.9,34.1h0.8v3.1h1.9V38h-2.8V34.1z"/>
	<path class="st12" d="M514.6,34.1h0.8L517,38h-0.9l-0.4-0.9h-1.6l-0.4,0.9h-0.9L514.6,34.1z M515.5,36.3l-0.5-1.2l-0.5,1.2H515.5z"
		/>
</g>
<g>
	<path class="st12" d="M475.2,40.7h1.8c0.5,0,0.9,0.1,1.1,0.4c0.2,0.2,0.3,0.5,0.3,0.9v0c0,0.6-0.3,1-0.8,1.2l0.9,1.4h-1l-0.8-1.2
		h-0.7v1.2h-0.8V40.7z M476.9,42.6c0.4,0,0.6-0.2,0.6-0.5v0c0-0.4-0.3-0.5-0.7-0.5h-0.8v1.1H476.9z"/>
	<path class="st12" d="M479.2,40.7h2.9v0.8H480v0.8h1.8V43H480v0.8h2.1v0.8h-2.9V40.7z M481,39.5l0.7,0.3l-0.7,0.5h-0.6L481,39.5z"
		/>
	<path class="st12" d="M482.7,42.6L482.7,42.6c0-1.1,0.9-2,2-2c0.7,0,1.1,0.2,1.5,0.5l-0.5,0.6c-0.3-0.2-0.6-0.4-1-0.4
		c-0.6,0-1.1,0.5-1.1,1.2v0c0,0.7,0.5,1.2,1.2,1.2c0.3,0,0.6-0.1,0.8-0.2v-0.5h-0.9v-0.7h1.7V44c-0.4,0.3-0.9,0.6-1.6,0.6
		C483.5,44.6,482.7,43.8,482.7,42.6z"/>
	<path class="st12" d="M487.2,40.7h0.8v3.8h-0.8V40.7z"/>
	<path class="st12" d="M488.9,42.6L488.9,42.6c0-1.1,0.9-2,2-2s2,0.9,2,2v0c0,1.1-0.9,2-2,2S488.9,43.7,488.9,42.6z M492.1,42.6
		L492.1,42.6c0-0.7-0.5-1.2-1.2-1.2s-1.2,0.5-1.2,1.2v0c0,0.7,0.5,1.2,1.2,1.2C491.6,43.8,492.1,43.3,492.1,42.6z"/>
	<path class="st12" d="M493.7,40.7h0.8l1.8,2.4v-2.4h0.8v3.8h-0.7l-1.9-2.4v2.4h-0.8V40.7z"/>
	<path class="st12" d="M499.4,40.7h0.9l0.8,2.6l0.9-2.6h0.7l0.9,2.6l0.8-2.6h0.9l-1.3,3.9h-0.7l-0.9-2.5l-0.9,2.5h-0.7L499.4,40.7z"
		/>
	<path class="st12" d="M506.7,40.7h0.8l1.6,3.9h-0.9l-0.4-0.9h-1.6l-0.4,0.9H505L506.7,40.7z M507.6,42.9l-0.5-1.2l-0.5,1.2H507.6z"
		/>
	<path class="st12" d="M509.7,40.7h0.8v3.1h1.9v0.8h-2.8V40.7z"/>
	<path class="st12" d="M513.1,40.7h0.8v3.1h1.9v0.8h-2.8V40.7z"/>
	<path class="st12" d="M516.1,42.6L516.1,42.6c0-1.1,0.9-2,2-2s2,0.9,2,2v0c0,1.1-0.9,2-2,2S516.1,43.7,516.1,42.6z M519.3,42.6
		L519.3,42.6c0-0.7-0.5-1.2-1.2-1.2S517,42,517,42.6v0c0,0.7,0.5,1.2,1.2,1.2C518.9,43.8,519.3,43.3,519.3,42.6z"/>
	<path class="st12" d="M521,40.7h0.8l1.8,2.4v-2.4h0.8v3.8h-0.7l-1.9-2.4v2.4H521V40.7z"/>
	<path class="st12" d="M525.3,40.7h0.8l1.8,2.4v-2.4h0.8v3.8H528l-1.9-2.4v2.4h-0.8V40.7z"/>
	<path class="st12" d="M529.7,40.7h2.9v0.8h-2.1v0.8h1.8V43h-1.8v0.8h2.1v0.8h-2.9V40.7z"/>
</g>
<g>
	<defs>
		<rect id="SVGID_23_" width="595.3" height="841.9"/>
	</defs>
	<clipPath id="SVGID_24_">
		<use xlink:href="#SVGID_23_"  style="overflow:visible;"/>
	</clipPath>
	<path class="st13" d="M468.2,27.8v19.9c0,0,0,2.5,2.5,2.5h86.8c0,0,2.5,0,2.5-2.5V27.8H468.2z"/>
	<g class="st14">
		<g>
			<defs>
				<rect id="SVGID_25_" x="528.9" y="29.5" width="30.2" height="20.5"/>
			</defs>
			<clipPath id="SVGID_26_">
				<use xlink:href="#SVGID_25_"  style="overflow:visible;"/>
			</clipPath>
			<g class="st15">
				<defs>
					<rect id="SVGID_27_" x="529.9" y="30.5" width="28.2" height="18.5"/>
				</defs>
				<clipPath id="SVGID_28_">
					<use xlink:href="#SVGID_27_"  style="overflow:visible;"/>
				</clipPath>
				<g class="st16">
					<defs>
						<rect id="SVGID_29_" x="529.9" y="30.5" width="28.2" height="19.5"/>
					</defs>
					<clipPath id="SVGID_30_">
						<use xlink:href="#SVGID_29_"  style="overflow:visible;"/>
					</clipPath>
					<g style="clip-path:url(#SVGID_30_);">
						
							<image style="overflow:visible;" width="118" height="82" xlink:href="EB2D0174.jpg"  transform="matrix(0.2392 0 0 0.2384 529.8574 30.5)">
						</image>
					</g>
				</g>
			</g>
		</g>
	</g>
</g>
<g>
	<path class="st17" d="M449.7,66.3h1.5l1.2,4.2l1.4-4.3h1.2l1.4,4.3l1.3-4.2h1.4l-2,6.2h-1.3l-1.4-4.2l-1.4,4.2h-1.3L449.7,66.3z"/>
	<path class="st17" d="M459.6,66.3h1.5l1.2,4.2l1.4-4.3h1.2l1.4,4.3l1.3-4.2h1.4l-2,6.2h-1.3l-1.4-4.2l-1.4,4.2h-1.3L459.6,66.3z"/>
	<path class="st17" d="M469.5,66.3h1.5l1.2,4.2l1.4-4.3h1.2l1.4,4.3l1.3-4.2h1.4l-2,6.2h-1.3l-1.4-4.2l-1.4,4.2h-1.3L469.5,66.3z"/>
	<path class="st17" d="M479.2,70.8h1.6v1.6h-1.6V70.8z"/>
	<path class="st17" d="M481.8,69.4L481.8,69.4c0-1.8,1.4-3.3,3.2-3.3c1.2,0,1.9,0.4,2.5,1.1l-0.9,0.9c-0.4-0.5-0.9-0.8-1.6-0.8
		c-1,0-1.8,0.9-1.8,2v0c0,1.1,0.8,2,1.9,2c0.7,0,1.2-0.3,1.6-0.8l0.9,0.8c-0.6,0.7-1.3,1.2-2.5,1.2
		C483.1,72.6,481.8,71.1,481.8,69.4z"/>
	<path class="st17" d="M488.2,69.4L488.2,69.4c0-1.8,1.3-3.2,3-3.2c2,0,3,1.5,3,3.3c0,0.1,0,0.3,0,0.4h-4.5c0.2,1,0.9,1.6,1.8,1.6
		c0.7,0,1.2-0.3,1.7-0.7l0.8,0.7c-0.6,0.7-1.4,1.2-2.5,1.2C489.6,72.6,488.2,71.3,488.2,69.4z M492.8,68.9c-0.1-0.9-0.6-1.6-1.6-1.6
		c-0.9,0-1.5,0.7-1.6,1.6H492.8z"/>
	<path class="st17" d="M495.6,66.3h1.4v1.4c0.4-0.9,1.1-1.6,2.2-1.5v1.5h-0.1c-1.2,0-2.1,0.8-2.1,2.4v2.4h-1.4V66.3z"/>
	<path class="st17" d="M500.7,70.7v-3.3h-0.8v-1.2h0.8v-1.7h1.4v1.7h1.7v1.2h-1.7v3c0,0.6,0.3,0.8,0.8,0.8c0.3,0,0.6-0.1,0.9-0.2
		v1.2c-0.4,0.2-0.8,0.3-1.3,0.3C501.4,72.5,500.7,72.1,500.7,70.7z"/>
	<path class="st17" d="M505.2,64h1.5v1.3h-1.5V64z M505.2,66.3h1.4v6.2h-1.4V66.3z"/>
	<path class="st17" d="M508.4,73.6l0.5-1.1c0.7,0.4,1.4,0.7,2.2,0.7c1.3,0,2-0.7,2-1.9v-0.5c-0.5,0.7-1.2,1.1-2.2,1.1
		c-1.5,0-2.8-1.1-2.8-2.9v0c0-1.8,1.4-2.9,2.8-2.9c1,0,1.7,0.5,2.2,1.1v-0.9h1.4v4.9c0,1-0.3,1.8-0.8,2.3c-0.6,0.6-1.4,0.8-2.5,0.8
		C510.2,74.3,509.2,74.1,508.4,73.6z M513.1,69.1L513.1,69.1c0-1-0.8-1.7-1.8-1.7s-1.8,0.7-1.8,1.7v0c0,1,0.8,1.7,1.8,1.7
		C512.3,70.8,513.1,70.1,513.1,69.1z"/>
	<path class="st17" d="M516.2,66.3h1.4v1.4c0.4-0.9,1.1-1.6,2.2-1.5v1.5h-0.1c-1.2,0-2.1,0.8-2.1,2.4v2.4h-1.4V66.3z"/>
	<path class="st17" d="M520.5,69.4L520.5,69.4c0-1.8,1.3-3.2,3-3.2c2,0,3,1.5,3,3.3c0,0.1,0,0.3,0,0.4h-4.5c0.2,1,0.9,1.6,1.8,1.6
		c0.7,0,1.2-0.3,1.7-0.7l0.8,0.7c-0.6,0.7-1.4,1.2-2.5,1.2C521.9,72.6,520.5,71.3,520.5,69.4z M525.1,68.9c-0.1-0.9-0.6-1.6-1.6-1.6
		c-0.9,0-1.5,0.7-1.6,1.6H525.1z"/>
	<path class="st17" d="M527.5,69.4L527.5,69.4c0-1.8,1.3-3.2,3-3.2c2,0,3,1.5,3,3.3c0,0.1,0,0.3,0,0.4h-4.5c0.2,1,0.9,1.6,1.8,1.6
		c0.7,0,1.2-0.3,1.7-0.7l0.8,0.7c-0.6,0.7-1.4,1.2-2.5,1.2C528.9,72.6,527.5,71.3,527.5,69.4z M532.1,68.9c-0.1-0.9-0.6-1.6-1.6-1.6
		c-0.9,0-1.5,0.7-1.6,1.6H532.1z"/>
	<path class="st17" d="M534.9,66.3h1.4v1c0.4-0.6,1-1.1,1.9-1.1c1.4,0,2.2,0.9,2.2,2.4v3.9H539v-3.5c0-1-0.5-1.5-1.3-1.5
		c-0.8,0-1.4,0.6-1.4,1.5v3.5h-1.4V66.3z"/>
	<path class="st17" d="M542,70.8h1.6v1.6H542V70.8z"/>
	<path class="st17" d="M546.6,71.5v1h-1.4v-8.6h1.4v3.4c0.5-0.6,1.1-1.2,2.1-1.2c1.5,0,2.9,1.2,2.9,3.2v0c0,2.1-1.4,3.2-2.9,3.2
		C547.7,72.6,547,72.1,546.6,71.5z M550.1,69.4L550.1,69.4c0-1.2-0.8-2-1.8-2s-1.8,0.8-1.8,2v0c0,1.2,0.8,2,1.8,2
		C549.3,71.3,550.1,70.6,550.1,69.4z"/>
	<path class="st17" d="M552.6,69.4L552.6,69.4c0-1.8,1.3-3.2,3-3.2c2,0,3,1.5,3,3.3c0,0.1,0,0.3,0,0.4h-4.5c0.2,1,0.9,1.6,1.8,1.6
		c0.7,0,1.2-0.3,1.7-0.7l0.8,0.7c-0.6,0.7-1.4,1.2-2.5,1.2C554,72.6,552.6,71.3,552.6,69.4z M557.2,68.9c-0.1-0.9-0.6-1.6-1.6-1.6
		c-0.9,0-1.5,0.7-1.6,1.6H557.2z"/>
</g>
<g>
	<defs>
		<rect id="SVGID_31_" width="595.3" height="841.9"/>
	</defs>
	<clipPath id="SVGID_32_">
		<use xlink:href="#SVGID_31_"  style="overflow:visible;"/>
	</clipPath>
	<path class="st18" d="M435.6,75c-3.6,0-6.5-2.9-6.5-6.5c0-3.6,2.9-6.5,6.5-6.5c1.6,0,3.1,0.6,4.3,1.6l-5.2,5.3l-1.5-1.5
		c-0.5-0.5-1.3-0.5-1.8,0c-0.2,0.2-0.4,0.6-0.4,0.9c0,0.3,0.1,0.6,0.3,0.9l2.4,3.1c0,0,0,0,0,0.1c0.2,0.2,0.6,0.4,0.9,0.4h0
		c0.3,0,0.7-0.1,0.9-0.4c0,0,0,0,0,0l5.9-6.7c0.4,0.9,0.7,1.9,0.7,2.8C442.1,72.1,439.2,75,435.6,75 M441.9,64.5
		C441.9,64.5,441.9,64.5,441.9,64.5C441.9,64.4,441.9,64.4,441.9,64.5C441.9,64.4,441.9,64.4,441.9,64.5c-0.1-0.1-0.1-0.1-0.1-0.1
		c0,0,0,0,0,0c0,0,0,0-0.1,0c0,0,0,0,0,0c0,0,0,0-0.1,0c0,0,0,0,0,0c0,0,0,0-0.1,0c0,0,0,0,0,0c0,0,0,0-0.1,0c0,0,0,0,0,0
		c0,0,0,0-0.1,0c0,0,0,0,0,0c0,0,0,0-0.1,0c0,0,0,0,0,0c0,0,0,0,0,0c0,0,0,0,0,0c0,0,0,0,0,0c0,0,0,0,0,0c0,0,0,0,0,0l-6.4,7.2
		c-0.1,0.1-0.1,0.1-0.2,0.1c0,0-0.1,0-0.2-0.1l-2.4-3.1c0,0,0,0,0-0.1c-0.1-0.1-0.1-0.1-0.1-0.2c0,0,0-0.1,0.1-0.2
		c0.1-0.1,0.1-0.1,0.2-0.1c0,0,0.1,0,0.2,0.1l1.9,1.8c0,0,0,0,0,0l0,0c0,0,0,0,0.1,0c0,0,0,0,0,0c0,0,0,0,0.1,0c0,0,0,0,0,0
		c0,0,0,0,0.1,0c0,0,0,0,0,0c0,0,0.1,0,0.1,0c0,0,0.1,0,0.1,0c0,0,0,0,0,0c0,0,0,0,0.1,0c0,0,0,0,0,0c0,0,0,0,0,0c0,0,0,0,0,0
		c0,0,0,0,0,0c0,0,0,0,0,0c0,0,0,0,0,0l5.9-6c0,0,0,0,0,0c0,0,0,0,0,0c0,0,0,0,0,0c0,0,0,0,0,0c0,0,0,0,0,0c0,0,0,0,0,0
		c0,0,0,0,0-0.1c0,0,0,0,0,0c0,0,0,0,0-0.1c0,0,0,0,0,0c0,0,0,0,0-0.1c0,0,0,0,0,0c0,0,0,0,0,0c0,0,0,0,0,0c0,0,0,0,0,0c0,0,0,0,0,0
		c0,0,0,0,0,0c0,0,0,0,0,0c0,0,0,0,0,0c-1.4-1.4-3.3-2.2-5.4-2.2c-4.2,0-7.5,3.4-7.5,7.5c0,4.2,3.4,7.5,7.5,7.5
		c4.2,0,7.5-3.4,7.5-7.5C443.1,67,442.7,65.7,441.9,64.5"/>
</g>
<rect x="28.3" y="806.4" class="st19" width="538.6" height="14.4"/>
<g>
	<path class="st17" d="M32.2,800.2l0.8-0.9c0.5,0.4,1.1,0.7,1.8,0.7c0.5,0,0.9-0.2,0.9-0.6v0c0-0.3-0.2-0.5-1.2-0.8
		c-1.2-0.3-2-0.6-2-1.8v0c0-1.1,0.9-1.8,2.1-1.8c0.9,0,1.6,0.3,2.2,0.8l-0.7,1c-0.5-0.4-1-0.6-1.5-0.6s-0.8,0.2-0.8,0.5v0
		c0,0.4,0.3,0.5,1.3,0.8c1.2,0.3,1.9,0.7,1.9,1.8v0c0,1.2-0.9,1.8-2.2,1.8C33.8,801.1,32.9,800.8,32.2,800.2z"/>
	<path class="st17" d="M37.8,795.1h2.4c1.4,0,2.3,0.8,2.3,2.1v0c0,1.4-1.1,2.1-2.4,2.1h-1v1.8h-1.3V795.1z M40.1,798.1
		c0.7,0,1-0.4,1-0.9v0c0-0.6-0.4-0.9-1.1-0.9h-1v1.8H40.1z"/>
	<path class="st17" d="M43.2,795.1h2.7c0.8,0,1.3,0.2,1.7,0.6c0.3,0.3,0.5,0.8,0.5,1.4v0c0,1-0.5,1.6-1.3,1.8l1.5,2.1h-1.5l-1.3-1.9
		h-1v1.9h-1.3V795.1z M45.9,798c0.6,0,1-0.3,1-0.8v0c0-0.6-0.4-0.8-1-0.8h-1.3v1.7H45.9z"/>
	<path class="st17" d="M49.1,795.1h1.3v4.8h3v1.2h-4.3V795.1z"/>
	<path class="st17" d="M56,795.1h4.5v1.2h-3.2v1.3h2.8v1.2h-2.8v2.3H56V795.1z"/>
	<path class="st17" d="M60.8,799.8L60.8,799.8c0-1,0.8-1.5,1.8-1.5c0.5,0,0.8,0.1,1.1,0.2v-0.1c0-0.5-0.3-0.8-1-0.8
		c-0.5,0-0.8,0.1-1.3,0.2l-0.3-1c0.5-0.2,1-0.4,1.8-0.4c0.7,0,1.2,0.2,1.5,0.5c0.3,0.3,0.5,0.8,0.5,1.5v2.6h-1.2v-0.5
		c-0.3,0.3-0.7,0.6-1.4,0.6C61.5,801.1,60.8,800.7,60.8,799.8z M63.7,799.5v-0.2c-0.2-0.1-0.5-0.2-0.8-0.2c-0.6,0-0.9,0.2-0.9,0.6v0
		c0,0.3,0.3,0.6,0.7,0.6C63.3,800.3,63.7,799.9,63.7,799.5z"/>
	<path class="st17" d="M67.1,800.5v0.6h-1.3v-6.2h1.3v2.3c0.3-0.4,0.7-0.7,1.4-0.7c1.1,0,2.1,0.8,2.1,2.4v0c0,1.5-1,2.4-2.1,2.4
		C67.8,801.1,67.4,800.8,67.1,800.5z M69.3,798.8L69.3,798.8c0-0.8-0.5-1.3-1.1-1.3c-0.6,0-1.1,0.5-1.1,1.3v0c0,0.8,0.5,1.3,1.1,1.3
		C68.8,800.1,69.3,799.6,69.3,798.8z"/>
	<path class="st17" d="M71.3,794.9h1.4v1.1h-1.4V794.9z M71.4,796.5h1.3v4.6h-1.3V796.5z"/>
	<path class="st17" d="M73.4,798.8L73.4,798.8c0-1.3,0.9-2.4,2.3-2.4c1.5,0,2.2,1.2,2.2,2.5c0,0.1,0,0.2,0,0.3h-3.2
		c0.1,0.6,0.5,0.9,1.1,0.9c0.4,0,0.7-0.1,1.1-0.5l0.7,0.7c-0.4,0.5-1,0.8-1.9,0.8C74.4,801.2,73.4,800.2,73.4,798.8z M76.6,798.4
		c-0.1-0.6-0.4-1-1-1c-0.5,0-0.9,0.4-1,1H76.6z"/>
	<path class="st17" d="M78.6,796.5h1.3v0.6c0.3-0.4,0.7-0.7,1.3-0.7c1,0,1.5,0.6,1.5,1.7v2.9h-1.3v-2.5c0-0.6-0.3-0.9-0.8-0.9
		s-0.8,0.3-0.8,0.9v2.5h-1.3V796.5z"/>
	<path class="st17" d="M85.7,795.1H88c1.9,0,3.2,1.3,3.2,3v0c0,1.7-1.3,3-3.2,3h-2.3V795.1z M88,799.9c1.1,0,1.8-0.7,1.8-1.8v0
		c0-1.1-0.7-1.8-1.8-1.8h-1v3.6H88z"/>
	<path class="st17" d="M91.7,798.8L91.7,798.8c0-1.3,0.9-2.4,2.3-2.4c1.5,0,2.2,1.2,2.2,2.5c0,0.1,0,0.2,0,0.3H93
		c0.1,0.6,0.5,0.9,1.1,0.9c0.4,0,0.7-0.1,1.1-0.5l0.7,0.7c-0.4,0.5-1,0.8-1.9,0.8C92.7,801.2,91.7,800.2,91.7,798.8z M94.9,798.4
		c-0.1-0.6-0.4-1-1-1c-0.5,0-0.9,0.4-1,1H94.9z"/>
	<path class="st17" d="M96.3,796.5h1.4l1,3.1l1-3.1h1.3l-1.8,4.6h-1.2L96.3,796.5z"/>
	<path class="st17" d="M101.6,794.9h1.4v1.1h-1.4V794.9z M101.6,796.5h1.3v4.6h-1.3V796.5z"/>
	<path class="st17" d="M103.9,794.9h1.3v6.2h-1.3V794.9z"/>
	<path class="st17" d="M106.2,794.9h1.3v6.2h-1.3V794.9z"/>
	<path class="st17" d="M108.3,798.8L108.3,798.8c0-1.3,0.9-2.4,2.3-2.4c1.5,0,2.2,1.2,2.2,2.5c0,0.1,0,0.2,0,0.3h-3.2
		c0.1,0.6,0.5,0.9,1.1,0.9c0.4,0,0.7-0.1,1.1-0.5l0.7,0.7c-0.4,0.5-1,0.8-1.9,0.8C109.3,801.2,108.3,800.2,108.3,798.8z
		 M111.5,798.4c-0.1-0.6-0.4-1-1-1c-0.5,0-0.9,0.4-1,1H111.5z"/>
	<path class="st17" d="M113.5,796.5h1.3v0.9c0.3-0.6,0.7-1,1.5-1v1.4h-0.1c-0.9,0-1.4,0.5-1.4,1.6v1.7h-1.3V796.5z"/>
	<path class="st17" d="M116.4,800.5l0.6-0.8c0.5,0.4,1,0.5,1.4,0.5c0.4,0,0.5-0.1,0.5-0.3v0c0-0.3-0.4-0.4-0.9-0.5
		c-0.6-0.2-1.4-0.5-1.4-1.4v0c0-0.9,0.7-1.4,1.7-1.4c0.6,0,1.2,0.2,1.7,0.5l-0.5,0.9c-0.5-0.3-0.9-0.4-1.2-0.4
		c-0.3,0-0.5,0.1-0.5,0.3v0c0,0.3,0.4,0.4,0.9,0.5c0.6,0.2,1.4,0.5,1.4,1.4v0c0,1-0.8,1.5-1.7,1.5
		C117.7,801.1,117,800.9,116.4,800.5z"/>
</g>
<text transform="matrix(1 0 0 1 120.0601 801.0638)"><tspan x="0" y="0" class="st19 st20 st21"> </tspan><tspan x="1.9" y="0" class="st19 st20 st21"> </tspan></text>
<g>
	<path class="st17" d="M124.8,795.1h0.4v5.9h-0.4V795.1z"/>
</g>
<g>
	<path class="st19" d="M130.5,795.1h2.7c0.8,0,1.3,0.2,1.7,0.6c0.3,0.3,0.5,0.8,0.5,1.4v0c0,1-0.5,1.6-1.3,1.8l1.5,2.1h-1.5
		l-1.3-1.9h-1v1.9h-1.3V795.1z M133.1,798c0.6,0,1-0.3,1-0.8v0c0-0.6-0.4-0.8-1-0.8h-1.3v1.7H133.1z"/>
	<path class="st19" d="M136.2,799.5v-2.9h1.3v2.5c0,0.6,0.3,0.9,0.8,0.9c0.5,0,0.8-0.3,0.8-0.9v-2.5h1.3v4.6h-1.3v-0.6
		c-0.3,0.4-0.7,0.7-1.3,0.7C136.8,801.1,136.2,800.5,136.2,799.5z"/>
	<path class="st19" d="M141.1,798.8L141.1,798.8c0-1.3,0.9-2.4,2.3-2.4c1.5,0,2.2,1.2,2.2,2.5c0,0.1,0,0.2,0,0.3h-3.2
		c0.1,0.6,0.5,0.9,1.1,0.9c0.4,0,0.7-0.1,1.1-0.5l0.7,0.7c-0.4,0.5-1,0.8-1.9,0.8C142.1,801.2,141.1,800.2,141.1,798.8z
		 M144.3,798.4c-0.1-0.6-0.4-1-1-1c-0.5,0-0.9,0.4-1,1H144.3z"/>
	<path class="st19" d="M148,798.8L148,798.8c0-1.5,1-2.4,2.1-2.4c0.7,0,1.1,0.3,1.4,0.7v-2.2h1.3v6.2h-1.3v-0.7
		c-0.3,0.4-0.7,0.7-1.4,0.7C149,801.1,148,800.3,148,798.8z M151.5,798.8L151.5,798.8c0-0.8-0.5-1.3-1.1-1.3s-1.1,0.5-1.1,1.3v0
		c0,0.8,0.5,1.3,1.1,1.3S151.5,799.6,151.5,798.8z"/>
	<path class="st19" d="M153.4,798.8L153.4,798.8c0-1.3,0.9-2.4,2.3-2.4c1.5,0,2.2,1.2,2.2,2.5c0,0.1,0,0.2,0,0.3h-3.2
		c0.1,0.6,0.5,0.9,1.1,0.9c0.4,0,0.7-0.1,1.1-0.5l0.7,0.7c-0.4,0.5-1,0.8-1.9,0.8C154.5,801.2,153.4,800.2,153.4,798.8z
		 M156.7,798.4c-0.1-0.6-0.4-1-1-1c-0.5,0-0.9,0.4-1,1H156.7z"/>
	<path class="st19" d="M160.6,794.9h1.3v6.2h-1.3V794.9z"/>
	<path class="st19" d="M162.6,799.8L162.6,799.8c0-1,0.8-1.5,1.8-1.5c0.5,0,0.8,0.1,1.1,0.2v-0.1c0-0.5-0.3-0.8-1-0.8
		c-0.5,0-0.8,0.1-1.3,0.2l-0.3-1c0.5-0.2,1-0.4,1.8-0.4c0.7,0,1.2,0.2,1.5,0.5c0.3,0.3,0.5,0.8,0.5,1.5v2.6h-1.2v-0.5
		c-0.3,0.3-0.7,0.6-1.4,0.6C163.3,801.1,162.6,800.7,162.6,799.8z M165.6,799.5v-0.2c-0.2-0.1-0.5-0.2-0.8-0.2
		c-0.6,0-0.9,0.2-0.9,0.6v0c0,0.3,0.3,0.6,0.7,0.6C165.2,800.3,165.6,799.9,165.6,799.5z"/>
	<path class="st19" d="M169.2,795.1h1.4l1.6,4.2l1.6-4.2h1.4l-2.4,6h-1.2L169.2,795.1z"/>
	<path class="st19" d="M174.9,798.8L174.9,798.8c0-1.3,0.9-2.4,2.3-2.4c1.5,0,2.2,1.2,2.2,2.5c0,0.1,0,0.2,0,0.3h-3.2
		c0.1,0.6,0.5,0.9,1.1,0.9c0.4,0,0.7-0.1,1.1-0.5l0.7,0.7c-0.4,0.5-1,0.8-1.9,0.8C175.9,801.2,174.9,800.2,174.9,798.8z
		 M178.1,798.4c-0.1-0.6-0.4-1-1-1c-0.5,0-0.9,0.4-1,1H178.1z"/>
	<path class="st19" d="M179.8,798.8L179.8,798.8c0-1.3,1-2.4,2.4-2.4c0.9,0,1.4,0.3,1.8,0.8l-0.8,0.9c-0.3-0.3-0.6-0.5-1-0.5
		c-0.6,0-1.1,0.6-1.1,1.2v0c0,0.7,0.5,1.3,1.2,1.3c0.4,0,0.7-0.2,1-0.5l0.8,0.8c-0.4,0.5-1,0.8-1.9,0.8
		C180.8,801.2,179.8,800.1,179.8,798.8z"/>
	<path class="st19" d="M187.9,800.4c-0.3,0.4-0.7,0.7-1.4,0.7c-1.1,0-2.1-0.8-2.1-2.4v0c0-1.5,1-2.4,2.1-2.4c0.7,0,1.1,0.3,1.4,0.7
		v-0.6h1.3v5.9h-1.3V800.4z M187.9,798.8L187.9,798.8c0-0.8-0.5-1.3-1.1-1.3s-1.1,0.5-1.1,1.3v0c0,0.8,0.5,1.3,1.1,1.3
		S187.9,799.6,187.9,798.8z"/>
	<path class="st19" d="M190,799.5v-2.9h1.3v2.5c0,0.6,0.3,0.9,0.8,0.9c0.5,0,0.8-0.3,0.8-0.9v-2.5h1.3v4.6h-1.3v-0.6
		c-0.3,0.4-0.7,0.7-1.3,0.7C190.6,801.1,190,800.5,190,799.5z"/>
	<path class="st19" d="M194.9,798.8L194.9,798.8c0-1.3,0.9-2.4,2.3-2.4c1.5,0,2.2,1.2,2.2,2.5c0,0.1,0,0.2,0,0.3h-3.2
		c0.1,0.6,0.5,0.9,1.1,0.9c0.4,0,0.7-0.1,1.1-0.5l0.7,0.7c-0.4,0.5-1,0.8-1.9,0.8C195.9,801.2,194.9,800.2,194.9,798.8z
		 M198.1,798.4c-0.1-0.6-0.4-1-1-1c-0.5,0-0.9,0.4-1,1H198.1z M197.6,794.5l1.1,0.5l-1.1,1h-1L197.6,794.5z"/>
	<path class="st19" d="M199.9,798.8L199.9,798.8c0-1.3,0.9-2.4,2.3-2.4c1.5,0,2.2,1.2,2.2,2.5c0,0.1,0,0.2,0,0.3h-3.2
		c0.1,0.6,0.5,0.9,1.1,0.9c0.4,0,0.7-0.1,1.1-0.5l0.7,0.7c-0.4,0.5-1,0.8-1.9,0.8C200.9,801.2,199.9,800.2,199.9,798.8z
		 M203.1,798.4c-0.1-0.6-0.4-1-1-1c-0.5,0-0.9,0.4-1,1H203.1z"/>
	<path class="st19" d="M204.6,801.9c0.6-0.1,0.9-0.4,0.8-0.8h-0.5v-1.4h1.4v1.1c0,1.1-0.6,1.6-1.6,1.6L204.6,801.9z"/>
	<path class="st19" d="M210,796.4l-1,0.3l-0.3-1.1l1.7-0.5h0.9v6H210V796.4z"/>
	<path class="st19" d="M215.2,796.2h-2.8v-1.1h4.3v1l-2.7,5h-1.5L215.2,796.2z"/>
	<path class="st19" d="M217.1,798.1L217.1,798.1c0-1.7,1.1-3.1,2.7-3.1c1.6,0,2.6,1.3,2.6,3.1v0c0,1.7-1.1,3.1-2.7,3.1
		S217.1,799.8,217.1,798.1z M221.1,798.1L221.1,798.1c0-1.1-0.5-1.9-1.3-1.9s-1.3,0.8-1.3,1.9v0c0,1.1,0.5,1.9,1.3,1.9
		C220.6,800,221.1,799.2,221.1,798.1z"/>
</g>
<g>
	<path class="st17" d="M227.2,795.1h0.4v5.9h-0.4V795.1z"/>
</g>
<g>
	<path class="st19" d="M235.5,799.8h-2.9l-0.2-0.9l3.3-3.8h1.1v3.6h0.8v1.1h-0.8v1.3h-1.2V799.8z M235.5,798.7v-1.9l-1.6,1.9H235.5z
		"/>
	<path class="st19" d="M239.1,796.4l-1,0.3l-0.3-1.1l1.7-0.5h0.9v6h-1.3V796.4z"/>
	<path class="st19" d="M241.4,798.1L241.4,798.1c0-1.7,1.1-3.1,2.7-3.1c1.6,0,2.6,1.3,2.6,3.1v0c0,1.7-1.1,3.1-2.7,3.1
		S241.4,799.8,241.4,798.1z M245.3,798.1L245.3,798.1c0-1.1-0.5-1.9-1.3-1.9s-1.3,0.8-1.3,1.9v0c0,1.1,0.5,1.9,1.3,1.9
		C244.8,800,245.3,799.2,245.3,798.1z"/>
	<path class="st19" d="M247.3,798.1L247.3,798.1c0-1.7,1.1-3.1,2.7-3.1c1.6,0,2.6,1.3,2.6,3.1v0c0,1.7-1.1,3.1-2.7,3.1
		S247.3,799.8,247.3,798.1z M251.3,798.1L251.3,798.1c0-1.1-0.5-1.9-1.3-1.9c-0.8,0-1.3,0.8-1.3,1.9v0c0,1.1,0.5,1.9,1.3,1.9
		C250.8,800,251.3,799.2,251.3,798.1z"/>
	<path class="st19" d="M255.1,800.2l0.8-0.9c0.5,0.4,1.1,0.7,1.8,0.7c0.5,0,0.9-0.2,0.9-0.6v0c0-0.3-0.2-0.5-1.2-0.8
		c-1.2-0.3-2-0.6-2-1.8v0c0-1.1,0.9-1.8,2.1-1.8c0.9,0,1.6,0.3,2.2,0.8l-0.7,1c-0.5-0.4-1-0.6-1.5-0.6s-0.8,0.2-0.8,0.5v0
		c0,0.4,0.3,0.5,1.3,0.8c1.2,0.3,1.9,0.7,1.9,1.8v0c0,1.2-0.9,1.8-2.2,1.8C256.7,801.1,255.8,800.8,255.1,800.2z"/>
	<path class="st19" d="M260.6,795.1h4.5v1.2h-3.2v1.2h2.8v1.2h-2.8v1.3h3.2v1.2h-4.5V795.1z"/>
	<path class="st19" d="M266.1,795.1h2.7c0.8,0,1.3,0.2,1.7,0.6c0.3,0.3,0.5,0.8,0.5,1.4v0c0,1-0.5,1.6-1.3,1.8l1.5,2.1h-1.5
		l-1.3-1.9h-1v1.9h-1.3V795.1z M268.7,798c0.6,0,1-0.3,1-0.8v0c0-0.6-0.4-0.8-1-0.8h-1.3v1.7H268.7z"/>
	<path class="st19" d="M274,795.1h1.2l2.5,6h-1.4l-0.5-1.3h-2.5l-0.5,1.3h-1.3L274,795.1z M275.4,798.6l-0.8-1.9l-0.8,1.9H275.4z"/>
	<path class="st19" d="M278.5,795.1h1.3v5.9h-1.3V795.1z"/>
	<path class="st19" d="M281.1,795.1h1.2l2.8,3.7v-3.7h1.3v5.9h-1.1l-2.9-3.8v3.8h-1.3V795.1z"/>
	<path class="st19" d="M287.3,798.1L287.3,798.1c0-1.7,1.3-3.1,3.1-3.1c1.1,0,1.7,0.3,2.3,0.8l-0.8,1c-0.5-0.4-0.9-0.6-1.6-0.6
		c-1,0-1.7,0.8-1.7,1.9v0c0,1.1,0.7,1.9,1.8,1.9c0.5,0,0.9-0.1,1.2-0.4v-0.8h-1.3v-1.1h2.6v2.6c-0.6,0.5-1.5,0.9-2.5,0.9
		C288.5,801.2,287.3,799.9,287.3,798.1z"/>
</g>
<g>
	<path class="st17" d="M297.9,795.1h0.4v5.9h-0.4V795.1z"/>
</g>
<text transform="matrix(1 0 0 1 299.0449 801.0638)"><tspan x="0" y="0" class="st19 st20 st21"> </tspan><tspan x="1.9" y="0" class="st19 st20 st21"> </tspan></text>
<g>
	<path class="st17" d="M303.5,798.1L303.5,798.1c0-1.6,1.2-3.1,2.9-3.1c1,0,1.6,0.3,2.2,0.8l-0.3,0.3c-0.5-0.4-1-0.7-1.9-0.7
		c-1.4,0-2.5,1.2-2.5,2.7v0c0,1.5,1,2.7,2.5,2.7c0.8,0,1.5-0.3,1.9-0.7v-1.7h-2V798h2.4v2.3c-0.5,0.5-1.4,0.9-2.3,0.9
		C304.6,801.2,303.5,799.8,303.5,798.1z"/>
	<path class="st17" d="M309.8,800.2l0.3-0.3c0.7,0.6,1.3,0.9,2.1,0.9c0.9,0,1.5-0.5,1.5-1.2v0c0-0.6-0.3-1-1.7-1.3
		c-1.4-0.3-2-0.8-2-1.7v0c0-0.9,0.8-1.6,1.9-1.6c0.9,0,1.4,0.2,2,0.7l-0.3,0.3c-0.6-0.5-1.1-0.7-1.8-0.7c-0.9,0-1.5,0.5-1.5,1.1v0
		c0,0.6,0.3,1,1.7,1.3c1.4,0.3,2,0.8,2,1.6v0c0,1-0.8,1.6-2,1.6C311.2,801.1,310.5,800.8,309.8,800.2z"/>
	<path class="st17" d="M315.3,795.1h0.4l2.4,3.5l2.4-3.5h0.4v5.9h-0.4v-5.2l-2.4,3.4h0l-2.4-3.4v5.2h-0.4V795.1z"/>
</g>
<g>
	<path class="st19" d="M323.9,798.1L323.9,798.1c0-1.7,1.1-3.1,2.7-3.1c1.6,0,2.6,1.3,2.6,3.1v0c0,1.7-1.1,3.1-2.7,3.1
		C325,801.2,323.9,799.8,323.9,798.1z M327.9,798.1L327.9,798.1c0-1.1-0.5-1.9-1.3-1.9s-1.3,0.8-1.3,1.9v0c0,1.1,0.5,1.9,1.3,1.9
		C327.4,800,327.9,799.2,327.9,798.1z"/>
	<path class="st19" d="M332.8,799.8h-2.9l-0.2-0.9l3.3-3.8h1.1v3.6h0.8v1.1h-0.8v1.3h-1.2V799.8z M332.8,798.7v-1.9l-1.6,1.9H332.8z
		"/>
	<path class="st19" d="M338.2,796.2h-2.8v-1.1h4.3v1l-2.7,5h-1.5L338.2,796.2z"/>
	<path class="st19" d="M341.4,796.4l-1,0.3l-0.3-1.1l1.7-0.5h0.9v6h-1.3V796.4z"/>
	<path class="st19" d="M345.5,800.3l0.8-0.9c0.5,0.4,0.9,0.6,1.4,0.6c0.6,0,1-0.3,1-0.8v0c0-0.5-0.4-0.8-1.1-0.8
		c-0.4,0-0.7,0.1-1,0.2l-0.8-0.5l0.2-2.9h3.7v1.1h-2.5l-0.1,1c0.2-0.1,0.5-0.1,0.8-0.1c1.2,0,2.1,0.6,2.1,1.9v0
		c0,1.3-0.9,2.1-2.3,2.1C346.8,801.2,346.1,800.8,345.5,800.3z"/>
	<path class="st19" d="M350.6,799.4L350.6,799.4c0-0.7,0.3-1.2,1-1.5c-0.5-0.3-0.8-0.7-0.8-1.3v0c0-0.9,0.8-1.6,2.1-1.6
		c1.3,0,2.1,0.7,2.1,1.6v0c0,0.6-0.3,1-0.8,1.3c0.6,0.3,1,0.7,1,1.4v0c0,1.1-1,1.8-2.3,1.8S350.6,800.5,350.6,799.4z M354,799.3
		L354,799.3c0-0.5-0.4-0.7-1-0.7c-0.6,0-1,0.3-1,0.7v0c0,0.4,0.4,0.7,1,0.7C353.6,800.1,354,799.7,354,799.3z M353.8,796.8
		L353.8,796.8c0-0.4-0.3-0.7-0.9-0.7c-0.5,0-0.8,0.3-0.8,0.7v0c0,0.4,0.3,0.7,0.8,0.7C353.4,797.5,353.8,797.2,353.8,796.8z"/>
	<path class="st19" d="M357.7,798.1L357.7,798.1c0-1.7,1.1-3.1,2.7-3.1c1.6,0,2.6,1.3,2.6,3.1v0c0,1.7-1.1,3.1-2.7,3.1
		C358.8,801.2,357.7,799.8,357.7,798.1z M361.7,798.1L361.7,798.1c0-1.1-0.5-1.9-1.3-1.9s-1.3,0.8-1.3,1.9v0c0,1.1,0.5,1.9,1.3,1.9
		C361.2,800,361.7,799.2,361.7,798.1z"/>
	<path class="st19" d="M366.4,796.2h-2.8v-1.1h4.3v1l-2.7,5h-1.5L366.4,796.2z"/>
	<path class="st19" d="M370.4,798.1L370.4,798.1c0-1.7,1.1-3.1,2.7-3.1c1.6,0,2.6,1.3,2.6,3.1v0c0,1.7-1.1,3.1-2.7,3.1
		C371.4,801.2,370.4,799.8,370.4,798.1z M374.3,798.1L374.3,798.1c0-1.1-0.5-1.9-1.3-1.9s-1.3,0.8-1.3,1.9v0c0,1.1,0.5,1.9,1.3,1.9
		C373.8,800,374.3,799.2,374.3,798.1z"/>
	<path class="st19" d="M376.3,799.4L376.3,799.4c0-0.7,0.3-1.2,1-1.5c-0.5-0.3-0.8-0.7-0.8-1.3v0c0-0.9,0.8-1.6,2.1-1.6
		c1.3,0,2.1,0.7,2.1,1.6v0c0,0.6-0.3,1-0.8,1.3c0.6,0.3,1,0.7,1,1.4v0c0,1.1-1,1.8-2.3,1.8C377.2,801.1,376.3,800.5,376.3,799.4z
		 M379.6,799.3L379.6,799.3c0-0.5-0.4-0.7-1-0.7c-0.6,0-1,0.3-1,0.7v0c0,0.4,0.4,0.7,1,0.7C379.2,800.1,379.6,799.7,379.6,799.3z
		 M379.4,796.8L379.4,796.8c0-0.4-0.3-0.7-0.9-0.7c-0.5,0-0.8,0.3-0.8,0.7v0c0,0.4,0.3,0.7,0.8,0.7
		C379.1,797.5,379.4,797.2,379.4,796.8z"/>
</g>
<text transform="matrix(1 0 0 1 380.9082 801.0638)"><tspan x="0" y="0" class="st19 st22 st21"> </tspan><tspan x="1.9" y="0" class="st19 st22 st21"> </tspan></text>
<g>
	<path class="st17" d="M385.7,795.1h0.4v5.9h-0.4V795.1z"/>
	<path class="st17" d="M393.2,795.5h-2.1v-0.4h4.6v0.4h-2.1v5.5h-0.4V795.5z"/>
	<path class="st17" d="M395.2,798.9L395.2,798.9c0-1.3,0.9-2.3,2.1-2.3c1.2,0,2,1,2,2.3c0,0.1,0,0.1,0,0.2h-3.6
		c0.1,1.1,0.9,1.7,1.7,1.7c0.7,0,1.1-0.3,1.5-0.7l0.3,0.3c-0.4,0.5-1,0.8-1.8,0.8C396.2,801.2,395.2,800.3,395.2,798.9z
		 M398.8,798.7c-0.1-0.9-0.6-1.7-1.6-1.7c-0.9,0-1.5,0.7-1.6,1.7H398.8z M397.8,794.9l0.5,0.3l-0.9,0.9h-0.4L397.8,794.9z"/>
	<path class="st17" d="M400.3,794.9h0.4v6.2h-0.4V794.9z"/>
	<path class="st17" d="M402,800.3h0.6v0.7H402V800.3z"/>
</g>
<g>
	<path class="st19" d="M405.3,798.1L405.3,798.1c0-1.7,1.1-3.1,2.7-3.1c1.6,0,2.6,1.3,2.6,3.1v0c0,1.7-1.1,3.1-2.7,3.1
		C406.4,801.2,405.3,799.8,405.3,798.1z M409.3,798.1L409.3,798.1c0-1.1-0.5-1.9-1.3-1.9s-1.3,0.8-1.3,1.9v0c0,1.1,0.5,1.9,1.3,1.9
		C408.8,800,409.3,799.2,409.3,798.1z"/>
	<path class="st19" d="M414.2,799.8h-2.9l-0.2-0.9l3.3-3.8h1.1v3.6h0.8v1.1h-0.8v1.3h-1.2V799.8z M414.2,798.7v-1.9l-1.6,1.9H414.2z
		"/>
	<path class="st19" d="M418.7,800.1l0.9-0.9c0.4,0.5,0.8,0.7,1.4,0.7c0.5,0,0.8-0.3,0.8-0.7v0c0-0.5-0.4-0.8-1.2-0.8h-0.5l-0.2-0.8
		l1.4-1.4H419v-1.1h4v1l-1.5,1.4c0.8,0.1,1.6,0.6,1.6,1.7v0c0,1.1-0.8,1.9-2.1,1.9C419.9,801.2,419.2,800.7,418.7,800.1z"/>
	<path class="st19" d="M423.8,799.4L423.8,799.4c0-0.7,0.3-1.2,1-1.5c-0.5-0.3-0.8-0.7-0.8-1.3v0c0-0.9,0.8-1.6,2.1-1.6
		c1.3,0,2.1,0.7,2.1,1.6v0c0,0.6-0.3,1-0.8,1.3c0.6,0.3,1,0.7,1,1.4v0c0,1.1-1,1.8-2.3,1.8C424.7,801.1,423.8,800.5,423.8,799.4z
		 M427.1,799.3L427.1,799.3c0-0.5-0.4-0.7-1-0.7c-0.6,0-1,0.3-1,0.7v0c0,0.4,0.4,0.7,1,0.7C426.7,800.1,427.1,799.7,427.1,799.3z
		 M426.9,796.8L426.9,796.8c0-0.4-0.3-0.7-0.9-0.7c-0.5,0-0.8,0.3-0.8,0.7v0c0,0.4,0.3,0.7,0.8,0.7
		C426.6,797.5,426.9,797.2,426.9,796.8z"/>
	<path class="st19" d="M428.9,799.4L428.9,799.4c0-0.7,0.3-1.2,1-1.5c-0.5-0.3-0.8-0.7-0.8-1.3v0c0-0.9,0.8-1.6,2.1-1.6
		c1.3,0,2.1,0.7,2.1,1.6v0c0,0.6-0.3,1-0.8,1.3c0.6,0.3,1,0.7,1,1.4v0c0,1.1-1,1.8-2.3,1.8S428.9,800.5,428.9,799.4z M432.2,799.3
		L432.2,799.3c0-0.5-0.4-0.7-1-0.7c-0.6,0-1,0.3-1,0.7v0c0,0.4,0.4,0.7,1,0.7C431.8,800.1,432.2,799.7,432.2,799.3z M432,796.8
		L432,796.8c0-0.4-0.3-0.7-0.9-0.7c-0.5,0-0.8,0.3-0.8,0.7v0c0,0.4,0.3,0.7,0.8,0.7C431.7,797.5,432,797.2,432,796.8z"/>
	<path class="st19" d="M437,796.4l-1,0.3l-0.3-1.1l1.7-0.5h0.9v6H437V796.4z"/>
	<path class="st19" d="M439.3,800l2-1.6c0.7-0.6,1-0.9,1-1.4c0-0.5-0.3-0.8-0.8-0.8c-0.5,0-0.8,0.3-1.2,0.8l-0.9-0.7
		c0.6-0.8,1.2-1.2,2.2-1.2c1.2,0,2,0.7,2,1.8v0c0,1-0.5,1.5-1.6,2.3l-1,0.7h2.6v1.1h-4.4V800z"/>
	<path class="st19" d="M446.4,800.5l0.7-1c0.4,0.3,0.8,0.5,1.3,0.5c0.7,0,1.1-0.6,1.2-1.4c-0.3,0.2-0.7,0.4-1.2,0.4
		c-1.3,0-2.1-0.7-2.1-1.9v0c0-1.2,0.9-2.1,2.3-2.1c0.8,0,1.3,0.2,1.7,0.6c0.4,0.4,0.7,1.1,0.7,2.2v0c0,1.9-0.9,3.2-2.6,3.2
		C447.5,801.2,446.9,800.9,446.4,800.5z M449.6,797.1L449.6,797.1c0-0.5-0.4-0.9-1-0.9c-0.6,0-1,0.4-1,0.9v0c0,0.5,0.4,0.9,1,0.9
		C449.3,797.9,449.6,797.6,449.6,797.1z"/>
	<path class="st19" d="M454.6,799.8h-2.9l-0.2-0.9l3.3-3.8h1.1v3.6h0.8v1.1h-0.8v1.3h-1.2V799.8z M454.6,798.7v-1.9l-1.6,1.9H454.6z
		"/>
</g>
<text transform="matrix(1 0 0 1 456.7119 801.0638)"><tspan x="0" y="0" class="st19 st22 st21"> </tspan><tspan x="1.9" y="0" class="st19 st22 st21"> </tspan></text>
<g>
	<path class="st17" d="M461.5,795.1h0.4v5.9h-0.4V795.1z"/>
	<path class="st17" d="M467.3,795.1h0.4l2.4,3.5l2.4-3.5h0.4v5.9h-0.4v-5.2l-2.4,3.4h0l-2.4-3.4v5.2h-0.4V795.1z"/>
	<path class="st17" d="M474,799.8L474,799.8c0-0.9,0.8-1.4,1.9-1.4c0.6,0,1,0.1,1.4,0.2v-0.2c0-0.9-0.5-1.3-1.4-1.3
		c-0.5,0-1,0.1-1.4,0.3l-0.2-0.4c0.5-0.2,0.9-0.4,1.5-0.4c0.6,0,1.1,0.2,1.4,0.5c0.3,0.3,0.4,0.7,0.4,1.2v2.7h-0.4v-0.7
		c-0.3,0.4-0.8,0.8-1.7,0.8C474.9,801.2,474,800.7,474,799.8z M477.3,799.4v-0.5c-0.4-0.1-0.8-0.2-1.5-0.2c-0.9,0-1.4,0.4-1.4,1v0
		c0,0.6,0.6,1,1.3,1C476.6,800.8,477.3,800.2,477.3,799.4z"/>
	<path class="st17" d="M479,795h0.5v0.6H479V795z M479,796.7h0.4v4.3H479V796.7z"/>
	<path class="st17" d="M480.9,794.9h0.4v6.2h-0.4V794.9z"/>
</g>
<g>
	<path class="st19" d="M484.4,794.9h1.4v1.1h-1.4V794.9z M484.4,796.5h1.3v4.6h-1.3V796.5z"/>
	<path class="st19" d="M486.7,796.5h1.3v0.6c0.3-0.4,0.7-0.7,1.3-0.7c1,0,1.5,0.6,1.5,1.7v2.9h-1.3v-2.5c0-0.6-0.3-0.9-0.8-0.9
		c-0.5,0-0.8,0.3-0.8,0.9v2.5h-1.3V796.5z"/>
	<path class="st19" d="M491.9,797.6h-0.5v-1.1h0.5v-0.3c0-0.5,0.1-0.9,0.4-1.1c0.2-0.2,0.6-0.4,1-0.4c0.4,0,0.7,0.1,0.9,0.1v1.1
		c-0.2-0.1-0.4-0.1-0.6-0.1c-0.3,0-0.5,0.2-0.5,0.5v0.2h1v1.1h-1v3.5h-1.3V797.6z"/>
	<path class="st19" d="M494.4,798.8L494.4,798.8c0-1.3,1.1-2.4,2.5-2.4c1.4,0,2.5,1,2.5,2.4v0c0,1.3-1.1,2.4-2.5,2.4
		C495.5,801.2,494.4,800.1,494.4,798.8z M498.1,798.8L498.1,798.8c0-0.7-0.5-1.3-1.2-1.3c-0.7,0-1.2,0.6-1.2,1.2v0
		c0,0.7,0.5,1.3,1.2,1.3C497.6,800.1,498.1,799.5,498.1,798.8z"/>
	<path class="st19" d="M499.9,798.7c0-2,1.6-3.7,3.7-3.7c2.1,0,3.7,1.6,3.7,3.4c0,1.4-0.8,2.1-1.7,2.1c-0.7,0-1.1-0.3-1.3-0.5
		c-0.3,0.3-0.7,0.5-1.3,0.5c-0.9,0-1.6-0.6-1.6-1.6c0-1.2,0.9-2.1,1.9-2.1c0.6,0,0.9,0.3,1.2,0.6l0.1-0.5l1,0.2l-0.4,2.3
		c0,0.1,0,0.2,0,0.3c0,0.3,0.2,0.5,0.6,0.5c0.6,0,1.1-0.6,1.1-1.7c0-1.6-1.4-3-3.3-3c-1.9,0-3.4,1.5-3.4,3.4c0,1.9,1.4,3.4,3.4,3.4
		c0.8,0,1.4-0.2,2.1-0.6l0.2,0.3c-0.7,0.4-1.4,0.6-2.3,0.6C501.5,802.4,499.9,800.8,499.9,798.7z M504.4,798.4
		c0-0.5-0.3-0.8-0.8-0.8c-0.6,0-1,0.5-1,1.2c0,0.5,0.3,0.8,0.8,0.8C503.9,799.6,504.4,799.1,504.4,798.4z"/>
	<path class="st19" d="M507.9,798.8L507.9,798.8c0-1.3,1-2.4,2.4-2.4c0.9,0,1.4,0.3,1.8,0.8l-0.8,0.9c-0.3-0.3-0.6-0.5-1-0.5
		c-0.6,0-1.1,0.6-1.1,1.2v0c0,0.7,0.5,1.3,1.2,1.3c0.4,0,0.7-0.2,1-0.5l0.8,0.8c-0.4,0.5-1,0.8-1.9,0.8
		C508.9,801.2,507.9,800.1,507.9,798.8z"/>
	<path class="st19" d="M512.4,798.8L512.4,798.8c0-1.3,0.9-2.4,2.3-2.4c1.5,0,2.2,1.2,2.2,2.5c0,0.1,0,0.2,0,0.3h-3.2
		c0.1,0.6,0.5,0.9,1.1,0.9c0.4,0,0.7-0.1,1.1-0.5l0.7,0.7c-0.4,0.5-1,0.8-1.9,0.8C513.4,801.2,512.4,800.2,512.4,798.8z
		 M515.6,798.4c-0.1-0.6-0.4-1-1-1c-0.5,0-0.9,0.4-1,1H515.6z"/>
	<path class="st19" d="M517.6,796.5h1.3v0.9c0.3-0.6,0.7-1,1.5-1v1.4h-0.1c-0.9,0-1.4,0.5-1.4,1.6v1.7h-1.3V796.5z"/>
	<path class="st19" d="M521.1,799.8v-2.2h-0.5v-1.1h0.5v-1.2h1.3v1.2h1.1v1.1h-1.1v1.9c0,0.3,0.1,0.4,0.4,0.4c0.2,0,0.5-0.1,0.6-0.2
		v1c-0.3,0.2-0.6,0.3-1,0.3C521.6,801.1,521.1,800.8,521.1,799.8z"/>
	<path class="st19" d="M524.2,794.9h1.4v1.1h-1.4V794.9z M524.2,796.5h1.3v4.6h-1.3V796.5z"/>
	<path class="st19" d="M526.5,802l0.4-1c0.5,0.3,0.9,0.4,1.5,0.4c0.9,0,1.3-0.4,1.3-1.2V800c-0.4,0.5-0.8,0.7-1.5,0.7
		c-1.1,0-2-0.8-2-2.1v0c0-1.4,1-2.1,2-2.1c0.7,0,1.1,0.3,1.5,0.7v-0.6h1.3v3.5c0,0.8-0.2,1.4-0.6,1.8c-0.4,0.4-1.1,0.6-2,0.6
		C527.8,802.4,527.1,802.3,526.5,802z M529.8,798.6L529.8,798.6c0-0.6-0.5-1.1-1.1-1.1s-1.1,0.4-1.1,1.1v0c0,0.6,0.5,1.1,1.1,1.1
		S529.8,799.2,529.8,798.6z"/>
	<path class="st19" d="M531.9,796.5h1.3v0.9c0.3-0.6,0.7-1,1.5-1v1.4h-0.1c-0.9,0-1.4,0.5-1.4,1.6v1.7h-1.3V796.5z"/>
	<path class="st19" d="M534.9,798.8L534.9,798.8c0-1.3,0.9-2.4,2.3-2.4c1.5,0,2.2,1.2,2.2,2.5c0,0.1,0,0.2,0,0.3h-3.2
		c0.1,0.6,0.5,0.9,1.1,0.9c0.4,0,0.7-0.1,1.1-0.5l0.7,0.7c-0.4,0.5-1,0.8-1.9,0.8C535.9,801.2,534.9,800.2,534.9,798.8z
		 M538.1,798.4c-0.1-0.6-0.4-1-1-1c-0.5,0-0.9,0.4-1,1H538.1z"/>
	<path class="st19" d="M539.9,798.8L539.9,798.8c0-1.3,0.9-2.4,2.3-2.4c1.5,0,2.2,1.2,2.2,2.5c0,0.1,0,0.2,0,0.3h-3.2
		c0.1,0.6,0.5,0.9,1.1,0.9c0.4,0,0.7-0.1,1.1-0.5l0.7,0.7c-0.4,0.5-1,0.8-1.9,0.8C540.9,801.2,539.9,800.2,539.9,798.8z
		 M543.1,798.4c-0.1-0.6-0.4-1-1-1c-0.5,0-0.9,0.4-1,1H543.1z"/>
	<path class="st19" d="M545.1,796.5h1.3v0.6c0.3-0.4,0.7-0.7,1.3-0.7c1,0,1.5,0.6,1.5,1.7v2.9h-1.3v-2.5c0-0.6-0.3-0.9-0.8-0.9
		c-0.5,0-0.8,0.3-0.8,0.9v2.5h-1.3V796.5z"/>
	<path class="st19" d="M550,799.7h1.4v1.4H550V799.7z"/>
	<path class="st19" d="M553.6,800.5v0.6h-1.3v-6.2h1.3v2.3c0.3-0.4,0.7-0.7,1.4-0.7c1.1,0,2.1,0.8,2.1,2.4v0c0,1.5-1,2.4-2.1,2.4
		C554.3,801.1,553.9,800.8,553.6,800.5z M555.8,798.8L555.8,798.8c0-0.8-0.5-1.3-1.1-1.3s-1.1,0.5-1.1,1.3v0c0,0.8,0.5,1.3,1.1,1.3
		S555.8,799.6,555.8,798.8z"/>
	<path class="st19" d="M557.6,798.8L557.6,798.8c0-1.3,0.9-2.4,2.3-2.4c1.5,0,2.2,1.2,2.2,2.5c0,0.1,0,0.2,0,0.3h-3.2
		c0.1,0.6,0.5,0.9,1.1,0.9c0.4,0,0.7-0.1,1.1-0.5l0.7,0.7c-0.4,0.5-1,0.8-1.9,0.8C558.6,801.2,557.6,800.2,557.6,798.8z
		 M560.8,798.4c-0.1-0.6-0.4-1-1-1c-0.5,0-0.9,0.4-1,1H560.8z"/>
</g>
<g>
	<path class="st4" d="M32.8,810.8h2.5c0.7,0,1.3,0.2,1.7,0.6c0.3,0.3,0.5,0.7,0.5,1.1v0c0,1-0.7,1.6-1.7,1.7l2,2.5h-0.6l-1.9-2.5
		h-1.9v2.5h-0.4V810.8z M35.2,813.9c1,0,1.7-0.5,1.7-1.4v0c0-0.8-0.6-1.3-1.7-1.3h-2v2.7H35.2z"/>
	<path class="st4" d="M38.7,810.8h2.2c1.3,0,2.2,0.7,2.2,1.8v0c0,1.2-1.1,1.9-2.3,1.9h-1.6v2.2h-0.4V810.8z M40.7,814.1
		c1.1,0,1.9-0.6,1.9-1.5v0c0-0.9-0.7-1.4-1.8-1.4h-1.7v2.9H40.7z"/>
	<path class="st4" d="M44.1,810.8h0.4l2.4,3.5l2.4-3.5h0.4v5.9h-0.4v-5.2l-2.4,3.4h0l-2.4-3.4v5.2h-0.4V810.8z"/>
</g>
<g>
	<path class="st4" d="M53.5,810.8h0.4v5.5h3.5v0.4h-3.9V810.8z"/>
	<path class="st4" d="M58.6,810.8H59v5.9h-0.4V810.8z"/>
	<path class="st4" d="M60.6,810.8h4.2v0.4H61v2.3h3.4v0.4H61v2.4h3.8v0.4h-4.3V810.8z M62.9,810.2h-0.4l-0.9-0.8l0.5-0.2L62.9,810.2
		z"/>
	<path class="st4" d="M65.8,813.8L65.8,813.8c0-1.6,1.2-3.1,2.9-3.1c1,0,1.6,0.3,2.2,0.8l-0.3,0.3c-0.5-0.4-1-0.7-1.9-0.7
		c-1.4,0-2.5,1.2-2.5,2.7v0c0,1.5,1,2.7,2.5,2.7c0.8,0,1.5-0.3,1.9-0.7v-1.7h-2v-0.4h2.4v2.3c-0.5,0.5-1.4,0.9-2.3,0.9
		C66.9,816.8,65.8,815.4,65.8,813.8z"/>
	<path class="st4" d="M72.5,810.8h4.2v0.4h-3.8v2.3h3.4v0.4h-3.4v2.4h3.8v0.4h-4.3V810.8z"/>
</g>
<g>
	<path class="st4" d="M88.7,811.2h-2.1v-0.4h4.6v0.4h-2.1v5.5h-0.4V811.2z"/>
	<path class="st4" d="M91.8,810.8h0.5l2.3,5.5l2.3-5.5h0.5l-2.6,6h-0.4L91.8,810.8z"/>
	<path class="st4" d="M99.9,810.7h0.4l2.8,6h-0.5l-0.8-1.7h-3.5l-0.8,1.7h-0.5L99.9,810.7z M101.7,814.7l-1.6-3.4l-1.6,3.4H101.7z"
		/>
</g>
<g>
	<path class="st4" d="M106.2,810.8h2.8c0.7,0,1.2,0.2,1.6,0.5c0.3,0.3,0.4,0.6,0.4,1v0c0,0.7-0.4,1-0.8,1.3c0.7,0.3,1.1,0.7,1.1,1.5
		v0c0,1.1-0.9,1.6-2.2,1.6h-2.8V810.8z M108.7,813.2c0.6,0,0.9-0.2,0.9-0.6v0c0-0.4-0.3-0.6-0.9-0.6h-1.3v1.3H108.7z M109,815.6
		c0.6,0,0.9-0.2,0.9-0.6v0c0-0.4-0.3-0.6-1-0.6h-1.5v1.3H109z"/>
	<path class="st4" d="M112.1,810.8h4.5v1.2h-3.2v1.2h2.8v1.2h-2.8v1.3h3.2v1.2h-4.5V810.8z"/>
	<path class="st4" d="M119.6,813.8L119.6,813.8c0-1.7,1.1-3.1,2.7-3.1c1.6,0,2.6,1.3,2.6,3.1v0c0,1.7-1.1,3.1-2.7,3.1
		S119.6,815.5,119.6,813.8z M123.5,813.8L123.5,813.8c0-1.1-0.5-1.9-1.3-1.9c-0.8,0-1.3,0.8-1.3,1.9v0c0,1.1,0.5,1.9,1.3,1.9
		C123,815.7,123.5,814.9,123.5,813.8z"/>
	<path class="st4" d="M128.4,815.4h-2.9l-0.2-0.9l3.3-3.8h1.1v3.6h0.8v1.1h-0.8v1.3h-1.2V815.4z M128.4,814.4v-1.9l-1.6,1.9H128.4z"
		/>
	<path class="st4" d="M131,815.9l0.8-0.9c0.5,0.4,0.9,0.6,1.4,0.6c0.6,0,1-0.3,1-0.8v0c0-0.5-0.4-0.8-1.1-0.8c-0.4,0-0.7,0.1-1,0.2
		l-0.8-0.5l0.2-2.9h3.7v1.1h-2.5l-0.1,1c0.2-0.1,0.5-0.1,0.8-0.1c1.2,0,2.1,0.6,2.1,1.9v0c0,1.3-0.9,2.1-2.3,2.1
		C132.3,816.8,131.6,816.5,131,815.9z"/>
	<path class="st4" d="M137.3,812.1l-1,0.3l-0.3-1.1l1.7-0.5h0.9v6h-1.3V812.1z"/>
	<path class="st4" d="M139.6,815.4h1.4v1.4h-1.4V815.4z"/>
	<path class="st4" d="M141.9,816.1l0.7-1c0.4,0.3,0.8,0.5,1.3,0.5c0.7,0,1.1-0.6,1.2-1.4c-0.3,0.2-0.7,0.4-1.2,0.4
		c-1.3,0-2.1-0.7-2.1-1.9v0c0-1.2,0.9-2.1,2.3-2.1c0.8,0,1.3,0.2,1.7,0.6c0.4,0.4,0.7,1.1,0.7,2.2v0c0,1.9-0.9,3.2-2.6,3.2
		C143,816.8,142.4,816.5,141.9,816.1z M145.1,812.7L145.1,812.7c0-0.5-0.4-0.9-1-0.9c-0.6,0-1,0.4-1,0.9v0c0,0.5,0.4,0.9,1,0.9
		C144.8,813.6,145.1,813.2,145.1,812.7z"/>
	<path class="st4" d="M148.2,812.1l-1,0.3l-0.3-1.1l1.7-0.5h0.9v6h-1.3V812.1z"/>
	<path class="st4" d="M150.4,815.7l2-1.6c0.7-0.6,1-0.9,1-1.4c0-0.5-0.3-0.8-0.8-0.8c-0.5,0-0.8,0.3-1.2,0.8l-0.9-0.7
		c0.6-0.8,1.2-1.2,2.2-1.2c1.2,0,2,0.7,2,1.8v0c0,1-0.5,1.5-1.6,2.3l-1,0.7h2.6v1.1h-4.4V815.7z"/>
	<path class="st4" d="M155.6,815.4h1.4v1.4h-1.4V815.4z"/>
	<path class="st4" d="M157.9,816.1l0.7-1c0.4,0.3,0.8,0.5,1.3,0.5c0.7,0,1.1-0.6,1.2-1.4c-0.3,0.2-0.7,0.4-1.2,0.4
		c-1.3,0-2.1-0.7-2.1-1.9v0c0-1.2,0.9-2.1,2.3-2.1c0.8,0,1.3,0.2,1.7,0.6c0.4,0.4,0.7,1.1,0.7,2.2v0c0,1.9-0.9,3.2-2.6,3.2
		C158.9,816.8,158.4,816.5,157.9,816.1z M161.1,812.7L161.1,812.7c0-0.5-0.4-0.9-1-0.9c-0.6,0-1,0.4-1,0.9v0c0,0.5,0.4,0.9,1,0.9
		C160.7,813.6,161.1,813.2,161.1,812.7z"/>
	<path class="st4" d="M163.1,813.8L163.1,813.8c0-1.7,1.1-3.1,2.7-3.1c1.6,0,2.6,1.3,2.6,3.1v0c0,1.7-1.1,3.1-2.7,3.1
		S163.1,815.5,163.1,813.8z M167,813.8L167,813.8c0-1.1-0.5-1.9-1.3-1.9s-1.3,0.8-1.3,1.9v0c0,1.1,0.5,1.9,1.3,1.9
		C166.5,815.7,167,814.9,167,813.8z"/>
	<path class="st4" d="M172,815.4H169l-0.2-0.9l3.3-3.8h1.1v3.6h0.8v1.1h-0.8v1.3H172V815.4z M172,814.4v-1.9l-1.6,1.9H172z"/>
</g>
<text transform="matrix(1 0 0 1 174.0693 816.7299)" class="st4 st20 st21"> </text>
<g>
	<path class="st4" d="M367.7,810.8h4.2v0.4h-3.7v2.4h3.4v0.4h-3.4v2.7h-0.4V810.8z"/>
	<path class="st4" d="M372.5,814.6L372.5,814.6c0-1.2,0.9-2.3,2.2-2.3c1.3,0,2.2,1,2.2,2.3v0c0,1.2-0.9,2.3-2.2,2.3
		C373.4,816.8,372.5,815.8,372.5,814.6z M376.5,814.6L376.5,814.6c0-1.1-0.8-1.9-1.8-1.9c-1,0-1.8,0.8-1.8,1.9v0
		c0,1,0.8,1.9,1.8,1.9C375.8,816.4,376.5,815.6,376.5,814.6z"/>
	<path class="st4" d="M378,812.4h0.4v1.2c0.3-0.8,1.1-1.3,1.9-1.3v0.5h0c-1,0-1.9,0.8-1.9,2.2v1.8H378V812.4z"/>
	<path class="st4" d="M381.4,815.6v-2.8h-0.6v-0.4h0.6V811h0.4v1.4h1.5v0.4h-1.5v2.8c0,0.6,0.4,0.8,0.9,0.8c0.2,0,0.4,0,0.6-0.2v0.4
		c-0.2,0.1-0.4,0.2-0.7,0.2C381.9,816.8,381.4,816.4,381.4,815.6z"/>
	<path class="st4" d="M384.3,810.7h0.5v0.6h-0.5V810.7z M384.4,812.4h0.4v4.3h-0.4V812.4z"/>
	<path class="st4" d="M385.8,816.2l0.2-0.3c0.5,0.4,1,0.6,1.6,0.6c0.6,0,1-0.3,1-0.8v0c0-0.5-0.5-0.7-1.1-0.9
		c-0.7-0.2-1.5-0.4-1.5-1.2v0c0-0.7,0.6-1.2,1.4-1.2c0.5,0,1.1,0.2,1.5,0.5l-0.2,0.3c-0.4-0.3-0.9-0.4-1.3-0.4c-0.6,0-1,0.3-1,0.8v0
		c0,0.5,0.6,0.7,1.2,0.8c0.7,0.2,1.4,0.5,1.4,1.2v0c0,0.8-0.7,1.3-1.5,1.3C386.9,816.8,386.3,816.6,385.8,816.2z"/>
</g>
<g>
	<path class="st4" d="M392.3,810.8h2.8c0.7,0,1.2,0.2,1.6,0.5c0.3,0.3,0.4,0.6,0.4,1v0c0,0.7-0.4,1-0.8,1.3c0.7,0.3,1.1,0.7,1.1,1.5
		v0c0,1.1-0.9,1.6-2.2,1.6h-2.8V810.8z M394.8,813.2c0.6,0,0.9-0.2,0.9-0.6v0c0-0.4-0.3-0.6-0.9-0.6h-1.3v1.3H394.8z M395.2,815.6
		c0.6,0,0.9-0.2,0.9-0.6v0c0-0.4-0.3-0.6-1-0.6h-1.5v1.3H395.2z"/>
	<path class="st4" d="M398.2,810.8h4.5v1.2h-3.2v1.2h2.8v1.2h-2.8v1.3h3.2v1.2h-4.5V810.8z"/>
	<path class="st4" d="M404.1,816.2c-0.4-0.4-0.7-1.1-0.7-2.3v0c0-1.8,0.8-3.2,2.6-3.2c0.8,0,1.3,0.2,1.9,0.7l-0.7,1
		c-0.4-0.3-0.7-0.5-1.2-0.5c-0.7,0-1.1,0.6-1.2,1.4c0.3-0.2,0.6-0.4,1.2-0.4c1.2,0,2.1,0.7,2.1,1.9v0c0,1.2-1,2.1-2.3,2.1
		C405.1,816.8,404.5,816.6,404.1,816.2z M406.8,814.8L406.8,814.8c0-0.5-0.4-0.9-1-0.9c-0.6,0-1,0.4-1,0.9v0c0,0.5,0.4,0.9,1,0.9
		C406.4,815.7,406.8,815.3,406.8,814.8z"/>
	<path class="st4" d="M408.7,815.1L408.7,815.1c0-0.7,0.3-1.2,1-1.5c-0.5-0.3-0.8-0.7-0.8-1.3v0c0-0.9,0.8-1.6,2.1-1.6
		c1.3,0,2.1,0.7,2.1,1.6v0c0,0.6-0.3,1-0.8,1.3c0.6,0.3,1,0.7,1,1.4v0c0,1.1-1,1.8-2.3,1.8S408.7,816.1,408.7,815.1z M412,815
		L412,815c0-0.5-0.4-0.7-1-0.7c-0.6,0-1,0.3-1,0.7v0c0,0.4,0.4,0.7,1,0.7C411.7,815.7,412,815.4,412,815z M411.9,812.5L411.9,812.5
		c0-0.4-0.3-0.7-0.9-0.7c-0.5,0-0.8,0.3-0.8,0.7v0c0,0.4,0.3,0.7,0.8,0.7C411.5,813.2,411.9,812.9,411.9,812.5z"/>
	<path class="st4" d="M416.2,815.7l2-1.6c0.7-0.6,1-0.9,1-1.4c0-0.5-0.3-0.8-0.8-0.8c-0.5,0-0.8,0.3-1.2,0.8l-0.9-0.7
		c0.6-0.8,1.2-1.2,2.2-1.2c1.2,0,2,0.7,2,1.8v0c0,1-0.5,1.5-1.6,2.3l-1,0.7h2.6v1.1h-4.4V815.7z"/>
	<path class="st4" d="M424,815.4h-2.9l-0.2-0.9l3.3-3.8h1.1v3.6h0.8v1.1h-0.8v1.3H424V815.4z M424,814.4v-1.9l-1.6,1.9H424z"/>
	<path class="st4" d="M426.7,813.8L426.7,813.8c0-1.7,1.1-3.1,2.7-3.1c1.6,0,2.6,1.3,2.6,3.1v0c0,1.7-1.1,3.1-2.7,3.1
		C427.8,816.8,426.7,815.5,426.7,813.8z M430.7,813.8L430.7,813.8c0-1.1-0.5-1.9-1.3-1.9s-1.3,0.8-1.3,1.9v0c0,1.1,0.5,1.9,1.3,1.9
		C430.2,815.7,430.7,814.9,430.7,813.8z"/>
	<path class="st4" d="M432.7,813.8L432.7,813.8c0-1.7,1.1-3.1,2.7-3.1c1.6,0,2.6,1.3,2.6,3.1v0c0,1.7-1.1,3.1-2.7,3.1
		C433.7,816.8,432.7,815.5,432.7,813.8z M436.6,813.8L436.6,813.8c0-1.1-0.5-1.9-1.3-1.9s-1.3,0.8-1.3,1.9v0c0,1.1,0.5,1.9,1.3,1.9
		C436.1,815.7,436.6,814.9,436.6,813.8z"/>
	<path class="st4" d="M440.9,815.1L440.9,815.1c0-0.7,0.3-1.2,1-1.5c-0.5-0.3-0.8-0.7-0.8-1.3v0c0-0.9,0.8-1.6,2.1-1.6
		c1.3,0,2.1,0.7,2.1,1.6v0c0,0.6-0.3,1-0.8,1.3c0.6,0.3,1,0.7,1,1.4v0c0,1.1-1,1.8-2.3,1.8S440.9,816.1,440.9,815.1z M444.2,815
		L444.2,815c0-0.5-0.4-0.7-1-0.7c-0.6,0-1,0.3-1,0.7v0c0,0.4,0.4,0.7,1,0.7C443.8,815.7,444.2,815.4,444.2,815z M444,812.5
		L444,812.5c0-0.4-0.3-0.7-0.9-0.7c-0.5,0-0.8,0.3-0.8,0.7v0c0,0.4,0.3,0.7,0.8,0.7C443.7,813.2,444,812.9,444,812.5z"/>
	<path class="st4" d="M445.9,815.8l0.9-0.9c0.4,0.5,0.8,0.7,1.4,0.7c0.5,0,0.8-0.3,0.8-0.7v0c0-0.5-0.4-0.8-1.2-0.8h-0.5l-0.2-0.8
		l1.4-1.4h-2.3v-1.1h4v1l-1.5,1.4c0.8,0.1,1.6,0.6,1.6,1.7v0c0,1.1-0.8,1.9-2.1,1.9C447.2,816.8,446.4,816.4,445.9,815.8z"/>
	<path class="st4" d="M451,815.1L451,815.1c0-0.7,0.3-1.2,1-1.5c-0.5-0.3-0.8-0.7-0.8-1.3v0c0-0.9,0.8-1.6,2.1-1.6
		c1.3,0,2.1,0.7,2.1,1.6v0c0,0.6-0.3,1-0.8,1.3c0.6,0.3,1,0.7,1,1.4v0c0,1.1-1,1.8-2.3,1.8S451,816.1,451,815.1z M454.3,815
		L454.3,815c0-0.5-0.4-0.7-1-0.7c-0.6,0-1,0.3-1,0.7v0c0,0.4,0.4,0.7,1,0.7C453.9,815.7,454.3,815.4,454.3,815z M454.1,812.5
		L454.1,812.5c0-0.4-0.3-0.7-0.9-0.7c-0.5,0-0.8,0.3-0.8,0.7v0c0,0.4,0.3,0.7,0.8,0.7C453.8,813.2,454.1,812.9,454.1,812.5z"/>
	<path class="st4" d="M459.1,815.4h-2.9l-0.2-0.9l3.3-3.8h1.1v3.6h0.8v1.1h-0.8v1.3h-1.2V815.4z M459.1,814.4v-1.9l-1.6,1.9H459.1z"
		/>
	<path class="st4" d="M461.9,816.1l0.7-1c0.4,0.3,0.8,0.5,1.3,0.5c0.7,0,1.1-0.6,1.2-1.4c-0.3,0.2-0.7,0.4-1.2,0.4
		c-1.3,0-2.1-0.7-2.1-1.9v0c0-1.2,0.9-2.1,2.3-2.1c0.8,0,1.3,0.2,1.7,0.6c0.4,0.4,0.7,1.1,0.7,2.2v0c0,1.9-0.9,3.2-2.6,3.2
		C462.9,816.8,462.4,816.5,461.9,816.1z M465.1,812.7L465.1,812.7c0-0.5-0.4-0.9-1-0.9c-0.6,0-1,0.4-1,0.9v0c0,0.5,0.4,0.9,1,0.9
		C464.7,813.6,465.1,813.2,465.1,812.7z"/>
	<path class="st4" d="M467,815.1L467,815.1c0-0.7,0.3-1.2,1-1.5c-0.5-0.3-0.8-0.7-0.8-1.3v0c0-0.9,0.8-1.6,2.1-1.6
		c1.3,0,2.1,0.7,2.1,1.6v0c0,0.6-0.3,1-0.8,1.3c0.6,0.3,1,0.7,1,1.4v0c0,1.1-1,1.8-2.3,1.8C468,816.8,467,816.1,467,815.1z
		 M470.3,815L470.3,815c0-0.5-0.4-0.7-1-0.7c-0.6,0-1,0.3-1,0.7v0c0,0.4,0.4,0.7,1,0.7C469.9,815.7,470.3,815.4,470.3,815z
		 M470.1,812.5L470.1,812.5c0-0.4-0.3-0.7-0.9-0.7c-0.5,0-0.8,0.3-0.8,0.7v0c0,0.4,0.3,0.7,0.8,0.7
		C469.8,813.2,470.1,812.9,470.1,812.5z"/>
	<path class="st4" d="M472.1,815.8l0.9-0.9c0.4,0.5,0.8,0.7,1.4,0.7c0.5,0,0.8-0.3,0.8-0.7v0c0-0.5-0.4-0.8-1.2-0.8h-0.5l-0.2-0.8
		l1.4-1.4h-2.3v-1.1h4v1l-1.5,1.4c0.8,0.1,1.6,0.6,1.6,1.7v0c0,1.1-0.8,1.9-2.1,1.9C473.3,816.8,472.6,816.4,472.1,815.8z"/>
	<path class="st4" d="M480.1,815.4h-2.9l-0.2-0.9l3.3-3.8h1.1v3.6h0.8v1.1h-0.8v1.3h-1.2V815.4z M480.1,814.4v-1.9l-1.6,1.9H480.1z"
		/>
</g>
<g>
	<path class="st4" d="M490.1,810.8h0.4v5.9h-0.4V810.8z"/>
	<path class="st4" d="M499,810.8h2.5c0.7,0,1.2,0.2,1.5,0.5c0.2,0.2,0.4,0.6,0.4,0.9v0c0,0.8-0.5,1.2-1,1.4c0.7,0.2,1.3,0.6,1.3,1.4
		v0c0,1-0.8,1.6-2.1,1.6H499V810.8z M501.4,813.5c0.9,0,1.5-0.4,1.5-1.2v0c0-0.7-0.5-1.1-1.5-1.1h-2v2.3H501.4z M501.6,816.3
		c1,0,1.7-0.5,1.7-1.2v0c0-0.7-0.6-1.2-1.8-1.2h-2v2.4H501.6z"/>
	<path class="st4" d="M505,810.8h0.4v5.9H505V810.8z"/>
	<path class="st4" d="M506.7,813.8L506.7,813.8c0-1.7,1.3-3.1,3-3.1c1.1,0,1.7,0.4,2.3,1l-0.3,0.3c-0.5-0.5-1.1-0.9-2-0.9
		c-1.4,0-2.5,1.2-2.5,2.7v0c0,1.5,1.1,2.7,2.5,2.7c0.9,0,1.4-0.3,2-0.9l0.3,0.3c-0.6,0.6-1.3,1-2.4,1
		C508,816.8,506.7,815.5,506.7,813.8z"/>
</g>
<g>
	<path class="st4" d="M514.8,813.8L514.8,813.8c0-1.7,1.3-3.1,3.1-3.1c1.1,0,1.7,0.3,2.3,0.8l-0.8,1c-0.5-0.4-0.9-0.6-1.6-0.6
		c-1,0-1.7,0.8-1.7,1.9v0c0,1.1,0.7,1.9,1.8,1.9c0.5,0,0.9-0.1,1.2-0.4v-0.8h-1.3v-1.1h2.6v2.6c-0.6,0.5-1.5,0.9-2.5,0.9
		C516.1,816.8,514.8,815.5,514.8,813.8z"/>
	<path class="st4" d="M521.5,810.8h4.5v1.2h-3.2v1.2h2.8v1.2h-2.8v1.3h3.2v1.2h-4.5V810.8z"/>
	<path class="st4" d="M526.9,810.8h2.8c0.7,0,1.2,0.2,1.6,0.5c0.3,0.3,0.4,0.6,0.4,1v0c0,0.7-0.4,1-0.8,1.3c0.7,0.3,1.1,0.7,1.1,1.5
		v0c0,1.1-0.9,1.6-2.2,1.6h-2.8V810.8z M529.4,813.2c0.6,0,0.9-0.2,0.9-0.6v0c0-0.4-0.3-0.6-0.9-0.6h-1.3v1.3H529.4z M529.8,815.6
		c0.6,0,0.9-0.2,0.9-0.6v0c0-0.4-0.3-0.6-1-0.6h-1.5v1.3H529.8z"/>
	<path class="st4" d="M534.9,810.7h1.2l2.5,6h-1.4l-0.5-1.3h-2.5l-0.5,1.3h-1.3L534.9,810.7z M536.2,814.2l-0.8-1.9l-0.8,1.9H536.2z
		"/>
	<path class="st4" d="M539.3,810.8h2.8c0.7,0,1.2,0.2,1.6,0.5c0.3,0.3,0.4,0.6,0.4,1v0c0,0.7-0.4,1-0.8,1.3c0.7,0.3,1.1,0.7,1.1,1.5
		v0c0,1.1-0.9,1.6-2.2,1.6h-2.8V810.8z M541.8,813.2c0.6,0,0.9-0.2,0.9-0.6v0c0-0.4-0.3-0.6-0.9-0.6h-1.3v1.3H541.8z M542.1,815.6
		c0.6,0,0.9-0.2,0.9-0.6v0c0-0.4-0.3-0.6-1-0.6h-1.5v1.3H542.1z"/>
	<path class="st4" d="M545.2,810.8h4.5v1.2h-3.2v1.2h2.8v1.2h-2.8v1.3h3.2v1.2h-4.5V810.8z"/>
	<path class="st4" d="M550.6,810.8h2.8c0.7,0,1.2,0.2,1.6,0.5c0.3,0.3,0.4,0.6,0.4,1v0c0,0.7-0.4,1-0.8,1.3c0.7,0.3,1.1,0.7,1.1,1.5
		v0c0,1.1-0.9,1.6-2.2,1.6h-2.8V810.8z M553.1,813.2c0.6,0,0.9-0.2,0.9-0.6v0c0-0.4-0.3-0.6-0.9-0.6h-1.3v1.3H553.1z M553.5,815.6
		c0.6,0,0.9-0.2,0.9-0.6v0c0-0.4-0.3-0.6-1-0.6h-1.5v1.3H553.5z"/>
	<path class="st4" d="M556.5,810.8h2.8c0.7,0,1.2,0.2,1.6,0.5c0.3,0.3,0.4,0.6,0.4,1v0c0,0.7-0.4,1-0.8,1.3c0.7,0.3,1.1,0.7,1.1,1.5
		v0c0,1.1-0.9,1.6-2.2,1.6h-2.8V810.8z M559,813.2c0.6,0,0.9-0.2,0.9-0.6v0c0-0.4-0.3-0.6-0.9-0.6h-1.3v1.3H559z M559.3,815.6
		c0.6,0,0.9-0.2,0.9-0.6v0c0-0.4-0.3-0.6-1-0.6h-1.5v1.3H559.3z"/>
</g>
<rect class="st23" width="595.3" height="841.9"/>
</svg>
