<?xml version="1.0" encoding="utf-8"?>
<!-- Generator: Adobe Illustrator 19.0.0, SVG Export Plug-In . SVG Version: 6.00 Build 0)  -->
<svg version="1.1" id="Calque_1" xmlns="http://www.w3.org/2000/svg" xmlns:xlink="http://www.w3.org/1999/xlink" x="0px" y="0px"
	 viewBox="-28 331.9 539 178" style="enable-background:new -28 331.9 539 178;" xml:space="preserve" width="539" height="178">
<style type="text/css">
	.st0{fill:none;}
	.st1{fill:#F2F7F0;}
	.st2{fill:#196A29;}
	.st3{fill:#5A9E3C;}
	.st4{font-family:'Gotham-Bold';}
	.st5{font-size:8.5063px;}
	.st6{font-family:'Gotham-Book';}
	.st7{fill:#FFFFFF;}
</style>
<rect x="140.8" y="331.2" class="st0" width="377.7" height="258.6"/>
<rect x="141.8" y="332.2" class="st0" width="375.7" height="256.6"/>
<rect x="141.8" y="332.2" class="st0" width="375.7" height="256.6"/>
<rect x="141.8" y="332.2" class="st0" width="375.7" height="256.6"/>
<rect x="141.8" y="332.2" class="st0" width="375.7" height="256.6"/>
<rect x="141.8" y="332.2" class="st0" width="375.7" height="256.6"/>
<rect x="141.8" y="332.2" class="st0" width="375.7" height="256.6"/>
<rect x="141.8" y="332.2" class="st0" width="375.7" height="256.6"/>
<rect x="141.8" y="332.2" class="st0" width="375.7" height="256.6"/>
<rect x="141.8" y="332.2" class="st0" width="375.7" height="256.6"/>
<rect x="141.8" y="332.2" class="st0" width="375.7" height="256.6"/>
<rect x="141.8" y="332.2" class="st0" width="375.7" height="256.6"/>
<path class="st1" d="M193.5,454c-3,6.9,3,63.6,3,82.6c0,18.9,4.8,28.1,4.8,28.1s1.8-19.5,1.8-42.4
	C203.2,499.3,192.3,452.3,193.5,454 M337.9,413.5c4.9,6,9.7,12,14.3,17.7c1.1-6.7,2.9-19.7,2.9-26.7c0-9.7-18.1-8-18.1-8
	L337.9,413.5z M266.1,577.3c0,0,92-9.7,121.1-6.3c29,3.4,81.8,2.9,98.1,5.7c16.3,2.9,0-12-27.2-11.5c-27.2,0.6-62.3-6.3-104.8-3.4
	s-72.7,8.6-80.6,11.5C264.9,576.2,266.1,577.3,266.1,577.3 M264.2,420.2c0,0-4.3,29.9,0.9,34.3c5.2,4.4,42.5,0.9,42.5,0.9
	s5.2-36.9-0.9-37.8C300.7,416.7,264.2,418.5,264.2,420.2 M430.7,388.9c0,0-2.1,14.2,0.4,16.3s20.2,0.4,20.2,0.4s2.5-17.6-0.4-18
	C448.1,387.2,430.7,388.1,430.7,388.9 M170.5,444.2c0,0,88.4-53.9,96.9-71.2s17.5-21.8,31.5-6.3c5.8,6.4,20.2,23.7,35.2,42.1
	l-2.5-6.5c0,0-3.6-18.3,1.2-17.8c4.8,0.6,29.6,6.9,29.6,6.9v25.1c17.4-14.1,60.2-49.5,65.2-62.7c6.3-16.6,13.1-21,23.6-6.1
	c10.4,14.9,58.5,90.8,59.4,95.2c0.9,4.4-57.6-75.3-64.4-77.5c-6.8-2.2-5-6.1-27.7,16c-17.9,17.5-44.6,37.7-56.2,44.6v18
	c9,11.4,15.4,19.9,15.7,21.3c1.2,4.6-76.9-78.1-86-80.4c-9.1-2.3-6.7-6.3-36.9,16.6s-79.3,50.4-82.4,48.7
	C169.8,448.8,170.5,444.2,170.5,444.2"/>
<rect x="141.8" y="332.2" class="st0" width="375.7" height="256.6"/>
<rect x="-28" y="495.2" class="st2" width="539" height="14.4"/>
<g>
	<path class="st3" d="M-24.2,489l0.8-0.9c0.5,0.4,1.1,0.7,1.8,0.7c0.5,0,0.9-0.2,0.9-0.6l0,0c0-0.3-0.2-0.5-1.2-0.8
		c-1.2-0.3-2-0.6-2-1.8l0,0c0-1.1,0.9-1.8,2.1-1.8c0.9,0,1.6,0.3,2.2,0.8l-0.7,1c-0.5-0.4-1-0.6-1.5-0.6c-0.5,0-0.8,0.2-0.8,0.5l0,0
		c0,0.4,0.3,0.5,1.3,0.8c1.2,0.3,1.9,0.7,1.9,1.8l0,0c0,1.2-0.9,1.8-2.2,1.8C-22.5,490-23.4,489.7-24.2,489z"/>
	<path class="st3" d="M-18.5,483.9h2.4c1.4,0,2.3,0.8,2.3,2.1l0,0c0,1.4-1.1,2.1-2.4,2.1h-1v1.8h-1.3V483.9z M-16.2,486.9
		c0.7,0,1-0.4,1-0.9l0,0c0-0.6-0.4-0.9-1.1-0.9h-1v1.8L-16.2,486.9L-16.2,486.9z"/>
	<path class="st3" d="M-13.1,483.9h2.7c0.8,0,1.3,0.2,1.7,0.6c0.3,0.3,0.5,0.8,0.5,1.4l0,0c0,1-0.5,1.6-1.3,1.8l1.5,2.1h-1.5
		l-1.3-1.9h-1v1.9h-1.3C-13.1,489.8-13.1,483.9-13.1,483.9z M-10.5,486.8c0.6,0,1-0.3,1-0.8l0,0c0-0.6-0.4-0.8-1-0.8h-1.3v1.7h1.3
		V486.8z"/>
	<path class="st3" d="M-7.2,483.9h1.3v4.8h3v1.2h-4.3V483.9z"/>
	<path class="st3" d="M-0.3,483.9h4.5v1.2H1v1.3h2.8v1.2H1v2.3h-1.3V483.9z"/>
	<path class="st3" d="M4.4,488.6L4.4,488.6c0-1,0.8-1.5,1.8-1.5c0.5,0,0.8,0.1,1.1,0.2v-0.1c0-0.5-0.3-0.8-1-0.8
		c-0.5,0-0.8,0.1-1.3,0.2l-0.3-1c0.5-0.2,1-0.4,1.8-0.4c0.7,0,1.2,0.2,1.5,0.5c0.3,0.3,0.5,0.8,0.5,1.5v2.6H7.3v-0.5
		c-0.3,0.3-0.7,0.6-1.4,0.6C5.1,490,4.4,489.5,4.4,488.6z M7.4,488.3v-0.2c-0.2-0.1-0.5-0.2-0.8-0.2c-0.6,0-0.9,0.2-0.9,0.6l0,0
		c0,0.3,0.3,0.6,0.7,0.6C7,489.1,7.4,488.8,7.4,488.3z"/>
	<path class="st3" d="M10.7,489.3v0.6H9.4v-6.2h1.3v2.3c0.3-0.4,0.7-0.7,1.4-0.7c1.1,0,2.1,0.8,2.1,2.4l0,0c0,1.5-1,2.4-2.1,2.4
		C11.5,490,11.1,489.7,10.7,489.3z M13,487.6L13,487.6c0-0.8-0.5-1.3-1.1-1.3s-1.1,0.5-1.1,1.3l0,0c0,0.8,0.5,1.3,1.1,1.3
		C12.4,488.9,13,488.4,13,487.6z"/>
	<path class="st3" d="M15,483.7h1.4v1.1H15V483.7z M15,485.3h1.3v4.6H15V485.3z"/>
	<path class="st3" d="M17,487.6L17,487.6c0-1.3,0.9-2.4,2.3-2.4c1.5,0,2.2,1.2,2.2,2.5c0,0.1,0,0.2,0,0.3h-3.2
		c0.1,0.6,0.5,0.9,1.1,0.9c0.4,0,0.7-0.1,1.1-0.5l0.7,0.7c-0.4,0.5-1,0.8-1.9,0.8C18.1,490,17,489,17,487.6z M20.3,487.3
		c-0.1-0.6-0.4-1-1-1c-0.5,0-0.9,0.4-1,1H20.3z"/>
	<path class="st3" d="M22.2,485.3h1.3v0.6c0.3-0.4,0.7-0.7,1.3-0.7c1,0,1.5,0.6,1.5,1.7v2.9H25v-2.5c0-0.6-0.3-0.9-0.8-0.9
		c-0.5,0-0.8,0.3-0.8,0.9v2.5h-1.3v-4.5H22.2z"/>
	<path class="st3" d="M29.3,483.9h2.3c1.9,0,3.2,1.3,3.2,3l0,0c0,1.7-1.3,3-3.2,3h-2.3V483.9z M31.7,488.7c1.1,0,1.8-0.7,1.8-1.8
		l0,0c0-1.1-0.7-1.8-1.8-1.8h-1v3.6H31.7z"/>
	<path class="st3" d="M35.4,487.6L35.4,487.6c0-1.3,0.9-2.4,2.3-2.4c1.5,0,2.2,1.2,2.2,2.5c0,0.1,0,0.2,0,0.3h-3.2
		c0.1,0.6,0.5,0.9,1.1,0.9c0.4,0,0.7-0.1,1.1-0.5l0.7,0.7c-0.4,0.5-1,0.8-1.9,0.8C36.4,490,35.4,489,35.4,487.6z M38.6,487.3
		c-0.1-0.6-0.4-1-1-1c-0.5,0-0.9,0.4-1,1H38.6z"/>
	<path class="st3" d="M40,485.3h1.4l1,3.1l1-3.1h1.3l-1.8,4.6h-1.2L40,485.3z"/>
	<path class="st3" d="M45.3,483.7h1.4v1.1h-1.4V483.7z M45.4,485.3h1.3v4.6h-1.3V485.3z"/>
	<path class="st3" d="M47.7,483.7H49v6.2h-1.3V483.7z"/>
	<path class="st3" d="M50,483.7h1.3v6.2H50V483.7z"/>
	<path class="st3" d="M52,487.6L52,487.6c0-1.3,0.9-2.4,2.3-2.4c1.5,0,2.2,1.2,2.2,2.5c0,0.1,0,0.2,0,0.3h-3.2
		c0.1,0.6,0.5,0.9,1.1,0.9c0.4,0,0.7-0.1,1.1-0.5l0.7,0.7c-0.4,0.5-1,0.8-1.9,0.8C53,490,52,489,52,487.6z M55.2,487.3
		c-0.1-0.6-0.4-1-1-1c-0.5,0-0.9,0.4-1,1H55.2z"/>
	<path class="st3" d="M57.2,485.3h1.3v0.9c0.3-0.6,0.7-1,1.5-1v1.4h-0.1c-0.9,0-1.4,0.5-1.4,1.6v1.7h-1.3V485.3z"/>
	<path class="st3" d="M60.2,489.3l0.6-0.8c0.5,0.4,1,0.5,1.4,0.5s0.5-0.1,0.5-0.3l0,0c0-0.3-0.4-0.4-0.9-0.5
		c-0.6-0.2-1.4-0.5-1.4-1.4l0,0c0-0.9,0.7-1.4,1.7-1.4c0.6,0,1.2,0.2,1.7,0.5l-0.5,0.9c-0.5-0.3-0.9-0.4-1.2-0.4
		c-0.3,0-0.5,0.1-0.5,0.3l0,0c0,0.3,0.4,0.4,0.9,0.5c0.6,0.2,1.4,0.5,1.4,1.4l0,0c0,1-0.8,1.5-1.7,1.5
		C61.5,490,60.8,489.8,60.2,489.3z"/>
</g>
<text transform="matrix(1 0 0 1 63.7822 489.8893)" class="st2 st4 st5"> </text>
<text transform="matrix(1 0 0 1 65.6836 489.8893)" class="st2 st4 st5"> </text>
<g>
	<path class="st3" d="M68.6,483.9H69v5.9h-0.4V483.9z"/>
</g>
<g>
	<path class="st2" d="M74.2,483.9h2.7c0.8,0,1.3,0.2,1.7,0.6c0.3,0.3,0.5,0.8,0.5,1.4l0,0c0,1-0.5,1.6-1.3,1.8l1.5,2.1h-1.5
		l-1.3-1.9h-1v1.9h-1.3L74.2,483.9L74.2,483.9z M76.9,486.8c0.6,0,1-0.3,1-0.8l0,0c0-0.6-0.4-0.8-1-0.8h-1.3v1.7h1.3V486.8z"/>
	<path class="st2" d="M80,488.3v-3h1.3v2.5c0,0.6,0.3,0.9,0.8,0.9c0.5,0,0.8-0.3,0.8-0.9v-2.5h1.3v4.6h-1.3v-0.6
		c-0.3,0.4-0.7,0.7-1.3,0.7C80.5,490,80,489.3,80,488.3z"/>
	<path class="st2" d="M84.8,487.6L84.8,487.6c0-1.3,0.9-2.4,2.3-2.4c1.5,0,2.2,1.2,2.2,2.5c0,0.1,0,0.2,0,0.3h-3.2
		c0.1,0.6,0.5,0.9,1.1,0.9c0.4,0,0.7-0.1,1.1-0.5l0.7,0.7c-0.4,0.5-1,0.8-1.9,0.8C85.8,490,84.8,489,84.8,487.6z M88,487.3
		c-0.1-0.6-0.4-1-1-1c-0.5,0-0.9,0.4-1,1H88z"/>
	<path class="st2" d="M91.7,487.6L91.7,487.6c0-1.5,1-2.4,2.1-2.4c0.7,0,1.1,0.3,1.4,0.7v-2.2h1.3v6.2h-1.3v-0.7
		c-0.3,0.4-0.7,0.7-1.4,0.7C92.7,490,91.7,489.2,91.7,487.6z M95.2,487.6L95.2,487.6c0-0.8-0.5-1.3-1.1-1.3s-1.1,0.5-1.1,1.3l0,0
		c0,0.8,0.5,1.3,1.1,1.3S95.2,488.4,95.2,487.6z"/>
	<path class="st2" d="M97.2,487.6L97.2,487.6c0-1.3,0.9-2.4,2.3-2.4c1.5,0,2.2,1.2,2.2,2.5c0,0.1,0,0.2,0,0.3h-3.2
		c0.1,0.6,0.5,0.9,1.1,0.9c0.4,0,0.7-0.1,1.1-0.5l0.7,0.7c-0.4,0.5-1,0.8-1.9,0.8C98.2,490,97.2,489,97.2,487.6z M100.4,487.3
		c-0.1-0.6-0.4-1-1-1c-0.5,0-0.9,0.4-1,1H100.4z"/>
	<path class="st2" d="M104.4,483.7h1.3v6.2h-1.3V483.7z"/>
	<path class="st2" d="M106.3,488.6L106.3,488.6c0-1,0.8-1.5,1.8-1.5c0.5,0,0.8,0.1,1.1,0.2v-0.1c0-0.5-0.3-0.8-1-0.8
		c-0.5,0-0.8,0.1-1.3,0.2l-0.3-1c0.5-0.2,1-0.4,1.8-0.4c0.7,0,1.2,0.2,1.5,0.5s0.5,0.8,0.5,1.5v2.6h-1.2v-0.5
		c-0.3,0.3-0.7,0.6-1.4,0.6C107.1,490,106.3,489.5,106.3,488.6z M109.3,488.3v-0.2c-0.2-0.1-0.5-0.2-0.8-0.2c-0.6,0-0.9,0.2-0.9,0.6
		l0,0c0,0.3,0.3,0.6,0.7,0.6C108.9,489.1,109.3,488.8,109.3,488.3z"/>
	<path class="st2" d="M112.9,483.9h1.4l1.6,4.2l1.6-4.2h1.4l-2.4,6h-1.2L112.9,483.9z"/>
	<path class="st2" d="M118.6,487.6L118.6,487.6c0-1.3,0.9-2.4,2.3-2.4c1.5,0,2.2,1.2,2.2,2.5c0,0.1,0,0.2,0,0.3h-3.2
		c0.1,0.6,0.5,0.9,1.1,0.9c0.4,0,0.7-0.1,1.1-0.5l0.7,0.7c-0.4,0.5-1,0.8-1.9,0.8C119.6,490,118.6,489,118.6,487.6z M121.8,487.3
		c-0.1-0.6-0.4-1-1-1c-0.5,0-0.9,0.4-1,1H121.8z"/>
	<path class="st2" d="M123.6,487.6L123.6,487.6c0-1.3,1-2.4,2.4-2.4c0.9,0,1.4,0.3,1.8,0.8l-0.8,0.9c-0.3-0.3-0.6-0.5-1-0.5
		c-0.6,0-1.1,0.6-1.1,1.2l0,0c0,0.7,0.5,1.3,1.2,1.3c0.4,0,0.7-0.2,1-0.5l0.8,0.8c-0.4,0.5-1,0.8-1.9,0.8
		C124.6,490,123.6,488.9,123.6,487.6z"/>
	<path class="st2" d="M131.6,489.2c-0.3,0.4-0.7,0.7-1.4,0.7c-1.1,0-2.1-0.8-2.1-2.4l0,0c0-1.5,1-2.4,2.1-2.4c0.7,0,1.1,0.3,1.4,0.7
		v-0.5h1.3v5.9h-1.3V489.2z M131.6,487.6L131.6,487.6c0-0.8-0.5-1.3-1.1-1.3c-0.6,0-1.1,0.5-1.1,1.3l0,0c0,0.8,0.5,1.3,1.1,1.3
		C131.1,488.9,131.6,488.4,131.6,487.6z"/>
	<path class="st2" d="M133.8,488.3v-3h1.3v2.5c0,0.6,0.3,0.9,0.8,0.9c0.5,0,0.8-0.3,0.8-0.9v-2.5h1.3v4.6h-1.3v-0.6
		c-0.3,0.4-0.7,0.7-1.3,0.7C134.4,490,133.8,489.3,133.8,488.3z"/>
	<path class="st2" d="M138.7,487.6L138.7,487.6c0-1.3,0.9-2.4,2.3-2.4c1.5,0,2.2,1.2,2.2,2.5c0,0.1,0,0.2,0,0.3H140
		c0.1,0.6,0.5,0.9,1.1,0.9c0.4,0,0.7-0.1,1.1-0.5l0.7,0.7c-0.4,0.5-1,0.8-1.9,0.8C139.7,490,138.7,489,138.7,487.6z M141.9,487.3
		c-0.1-0.6-0.4-1-1-1c-0.5,0-0.9,0.4-1,1H141.9z M141.3,483.3l1.1,0.5l-1.1,1h-1L141.3,483.3z"/>
	<path class="st2" d="M143.6,487.6L143.6,487.6c0-1.3,0.9-2.4,2.3-2.4c1.5,0,2.2,1.2,2.2,2.5c0,0.1,0,0.2,0,0.3h-3.2
		c0.1,0.6,0.5,0.9,1.1,0.9c0.4,0,0.7-0.1,1.1-0.5l0.7,0.7c-0.4,0.5-1,0.8-1.9,0.8C144.6,490,143.6,489,143.6,487.6z M146.8,487.3
		c-0.1-0.6-0.4-1-1-1c-0.5,0-0.9,0.4-1,1H146.8z"/>
	<path class="st2" d="M148.4,490.7c0.6-0.1,0.9-0.4,0.8-0.8h-0.5v-1.4h1.4v1.1c0,1.1-0.6,1.6-1.6,1.6L148.4,490.7z"/>
	<path class="st2" d="M153.8,485.2l-1,0.3l-0.3-1.1l1.7-0.5h0.9v6h-1.3L153.8,485.2L153.8,485.2z"/>
	<path class="st2" d="M158.9,485.1h-2.8V484h4.3v1l-2.7,5h-1.5L158.9,485.1z"/>
	<path class="st2" d="M160.9,486.9L160.9,486.9c0-1.7,1.1-3.1,2.7-3.1c1.6,0,2.6,1.3,2.6,3.1l0,0c0,1.7-1.1,3.1-2.7,3.1
		S160.9,488.7,160.9,486.9z M164.8,486.9L164.8,486.9c0-1.1-0.5-1.9-1.3-1.9s-1.3,0.8-1.3,1.9l0,0c0,1.1,0.5,1.9,1.3,1.9
		S164.8,488,164.8,486.9z"/>
</g>
<g>
	<path class="st3" d="M170.9,483.9h0.4v5.9h-0.4V483.9z"/>
</g>
<g>
	<path class="st2" d="M179.4,488.6h-2.9l-0.2-0.9l3.3-3.8h1.1v3.6h0.8v1.1h-0.8v1.3h-1.2v-1.3H179.4z M179.4,487.6v-1.9l-1.6,1.9
		H179.4z"/>
	<path class="st2" d="M183,485.2l-1,0.3l-0.3-1.1l1.7-0.5h0.9v6H183L183,485.2L183,485.2z"/>
	<path class="st2" d="M185.2,486.9L185.2,486.9c0-1.7,1.1-3.1,2.7-3.1s2.6,1.3,2.6,3.1l0,0c0,1.7-1.1,3.1-2.7,3.1
		S185.2,488.7,185.2,486.9z M189.2,486.9L189.2,486.9c0-1.1-0.5-1.9-1.3-1.9c-0.8,0-1.3,0.8-1.3,1.9l0,0c0,1.1,0.5,1.9,1.3,1.9
		C188.7,488.8,189.2,488,189.2,486.9z"/>
	<path class="st2" d="M191.2,486.9L191.2,486.9c0-1.7,1.1-3.1,2.7-3.1s2.6,1.3,2.6,3.1l0,0c0,1.7-1.1,3.1-2.7,3.1
		S191.2,488.7,191.2,486.9z M195.1,486.9L195.1,486.9c0-1.1-0.5-1.9-1.3-1.9s-1.3,0.8-1.3,1.9l0,0c0,1.1,0.5,1.9,1.3,1.9
		S195.1,488,195.1,486.9z"/>
	<path class="st2" d="M198.9,489l0.8-0.9c0.5,0.4,1.1,0.7,1.8,0.7c0.5,0,0.9-0.2,0.9-0.6l0,0c0-0.3-0.2-0.5-1.2-0.8
		c-1.2-0.3-2-0.6-2-1.8l0,0c0-1.1,0.9-1.8,2.1-1.8c0.9,0,1.6,0.3,2.2,0.8l-0.7,1c-0.5-0.4-1-0.6-1.5-0.6c-0.5,0-0.8,0.2-0.8,0.5l0,0
		c0,0.4,0.3,0.5,1.3,0.8c1.2,0.3,1.9,0.7,1.9,1.8l0,0c0,1.2-0.9,1.8-2.2,1.8C200.5,490,199.6,489.7,198.9,489z"/>
	<path class="st2" d="M204.5,483.9h4.5v1.2h-3.2v1.2h2.8v1.2h-2.8v1.3h3.2v1.2h-4.5V483.9z"/>
	<path class="st2" d="M210,483.9h2.7c0.8,0,1.3,0.2,1.7,0.6c0.3,0.3,0.5,0.8,0.5,1.4l0,0c0,1-0.5,1.6-1.3,1.8l1.5,2.1h-1.5l-1.3-1.9
		h-1v1.9H210L210,483.9L210,483.9z M212.6,486.8c0.6,0,1-0.3,1-0.8l0,0c0-0.6-0.4-0.8-1-0.8h-1.3v1.7h1.3V486.8z"/>
	<path class="st2" d="M217.9,483.9h1.2l2.5,6h-1.4l-0.5-1.3h-2.5l-0.5,1.3h-1.3L217.9,483.9z M219.3,487.4l-0.8-1.9l-0.8,1.9H219.3z
		"/>
	<path class="st2" d="M222.4,483.9h1.3v5.9h-1.3V483.9z"/>
	<path class="st2" d="M224.9,483.9h1.2l2.8,3.7v-3.7h1.3v5.9h-1.1l-2.9-3.8v3.8h-1.3L224.9,483.9L224.9,483.9z"/>
	<path class="st2" d="M231.1,486.9L231.1,486.9c0-1.7,1.3-3.1,3.1-3.1c1.1,0,1.7,0.3,2.3,0.8l-0.8,1c-0.5-0.4-0.9-0.6-1.6-0.6
		c-1,0-1.7,0.8-1.7,1.9l0,0c0,1.1,0.7,1.9,1.8,1.9c0.5,0,0.9-0.1,1.2-0.4v-0.8h-1.2v-1.1h2.6v2.6c-0.6,0.5-1.5,0.9-2.5,0.9
		C232.4,490,231.1,488.7,231.1,486.9z"/>
</g>
<g>
	<path class="st3" d="M241.8,483.9h0.4v5.9h-0.4V483.9z"/>
</g>
<text transform="matrix(1 0 0 1 242.8999 489.8893)" class="st2 st4 st5"> </text>
<text transform="matrix(1 0 0 1 244.8013 489.8893)" class="st2 st4 st5"> </text>
<g>
	<path class="st3" d="M247.3,486.9L247.3,486.9c0-1.6,1.2-3.1,2.9-3.1c1,0,1.6,0.3,2.2,0.8l-0.3,0.3c-0.5-0.4-1-0.7-1.9-0.7
		c-1.4,0-2.5,1.2-2.5,2.7l0,0c0,1.5,1,2.7,2.5,2.7c0.8,0,1.5-0.3,1.9-0.7v-1.7h-2v-0.4h2.4v2.3c-0.5,0.5-1.4,0.9-2.3,0.9
		C248.4,490,247.3,488.6,247.3,486.9z"/>
	<path class="st3" d="M253.6,489l0.3-0.3c0.7,0.6,1.3,0.9,2.1,0.9c0.9,0,1.5-0.5,1.5-1.2l0,0c0-0.6-0.3-1-1.7-1.3
		c-1.4-0.3-2-0.8-2-1.7l0,0c0-0.9,0.8-1.6,1.9-1.6c0.9,0,1.4,0.2,2,0.7l-0.3,0.3c-0.6-0.5-1.1-0.7-1.8-0.7c-0.9,0-1.5,0.5-1.5,1.1
		l0,0c0,0.6,0.3,1,1.7,1.3c1.4,0.3,2,0.8,2,1.6l0,0c0,1-0.8,1.6-2,1.6C255.1,490,254.3,489.7,253.6,489z"/>
	<path class="st3" d="M259.2,483.9h0.4l2.4,3.5l2.4-3.5h0.4v5.9h-0.4v-5.2L262,488l0,0l-2.4-3.4v5.2h-0.4V483.9z"/>
</g>
<g>
	<path class="st2" d="M267.8,486.9L267.8,486.9c0-1.7,1.1-3.1,2.7-3.1s2.6,1.3,2.6,3.1l0,0c0,1.7-1.1,3.1-2.7,3.1
		C268.8,490,267.8,488.7,267.8,486.9z M271.7,486.9L271.7,486.9c0-1.1-0.5-1.9-1.3-1.9s-1.3,0.8-1.3,1.9l0,0c0,1.1,0.5,1.9,1.3,1.9
		S271.7,488,271.7,486.9z"/>
	<path class="st2" d="M276.7,488.6h-2.9l-0.2-0.9l3.3-3.8h1.1v3.6h0.8v1.1H278v1.3h-1.2v-1.3H276.7z M276.7,487.6v-1.9l-1.6,1.9
		H276.7z"/>
	<path class="st2" d="M282,485.1h-2.8V484h4.3v1l-2.7,5h-1.5L282,485.1z"/>
	<path class="st2" d="M285.3,485.2l-1,0.3l-0.3-1.1l1.7-0.5h0.9v6h-1.3L285.3,485.2L285.3,485.2z"/>
	<path class="st2" d="M289.4,489.1l0.8-0.9c0.5,0.4,0.9,0.6,1.4,0.6c0.6,0,1-0.3,1-0.8l0,0c0-0.5-0.4-0.8-1.1-0.8
		c-0.4,0-0.7,0.1-1,0.2l-0.8-0.5l0.2-2.9h3.7v1.1h-2.5l-0.1,1c0.2-0.1,0.5-0.1,0.8-0.1c1.2,0,2.1,0.6,2.1,1.9l0,0
		c0,1.3-0.9,2.1-2.3,2.1C290.6,490,289.9,489.7,289.4,489.1z"/>
	<path class="st2" d="M294.5,488.3L294.5,488.3c0-0.7,0.3-1.2,1-1.5c-0.5-0.3-0.8-0.7-0.8-1.3l0,0c0-0.9,0.8-1.6,2.1-1.6
		s2.1,0.7,2.1,1.6l0,0c0,0.6-0.3,1-0.8,1.3c0.6,0.3,1,0.7,1,1.4l0,0c0,1.1-1,1.8-2.3,1.8C295.5,490,294.5,489.3,294.5,488.3z
		 M297.8,488.2L297.8,488.2c0-0.5-0.4-0.7-1-0.7c-0.6,0-1,0.3-1,0.7l0,0c0,0.4,0.4,0.7,1,0.7C297.4,488.9,297.8,488.6,297.8,488.2z
		 M297.6,485.7L297.6,485.7c0-0.4-0.3-0.7-0.9-0.7c-0.5,0-0.8,0.3-0.8,0.7l0,0c0,0.4,0.3,0.7,0.8,0.7
		C297.3,486.4,297.6,486.1,297.6,485.7z"/>
	<path class="st2" d="M301.6,486.9L301.6,486.9c0-1.7,1.1-3.1,2.7-3.1s2.6,1.3,2.6,3.1l0,0c0,1.7-1.1,3.1-2.7,3.1
		C302.6,490,301.6,488.7,301.6,486.9z M305.5,486.9L305.5,486.9c0-1.1-0.5-1.9-1.3-1.9c-0.8,0-1.3,0.8-1.3,1.9l0,0
		c0,1.1,0.5,1.9,1.3,1.9C305,488.8,305.5,488,305.5,486.9z"/>
	<path class="st2" d="M310.3,485.1h-2.8V484h4.3v1l-2.7,5h-1.5L310.3,485.1z"/>
	<path class="st2" d="M314.3,486.9L314.3,486.9c0-1.7,1.1-3.1,2.7-3.1s2.6,1.3,2.6,3.1l0,0c0,1.7-1.1,3.1-2.7,3.1
		C315.4,490,314.3,488.7,314.3,486.9z M318.3,486.9L318.3,486.9c0-1.1-0.5-1.9-1.3-1.9c-0.8,0-1.3,0.8-1.3,1.9l0,0
		c0,1.1,0.5,1.9,1.3,1.9C317.8,488.8,318.3,488,318.3,486.9z"/>
	<path class="st2" d="M320.2,488.3L320.2,488.3c0-0.7,0.3-1.2,1-1.5c-0.5-0.3-0.8-0.7-0.8-1.3l0,0c0-0.9,0.8-1.6,2.1-1.6
		s2.1,0.7,2.1,1.6l0,0c0,0.6-0.3,1-0.8,1.3c0.6,0.3,1,0.7,1,1.4l0,0c0,1.1-1,1.8-2.3,1.8C321.2,490,320.2,489.3,320.2,488.3z
		 M323.5,488.2L323.5,488.2c0-0.5-0.4-0.7-1-0.7c-0.6,0-1,0.3-1,0.7l0,0c0,0.4,0.4,0.7,1,0.7C323.2,488.9,323.5,488.6,323.5,488.2z
		 M323.4,485.7L323.4,485.7c0-0.4-0.3-0.7-0.9-0.7c-0.5,0-0.8,0.3-0.8,0.7l0,0c0,0.4,0.3,0.7,0.8,0.7
		C323,486.4,323.4,486.1,323.4,485.7z"/>
</g>
<text transform="matrix(1 0 0 1 324.8242 489.8893)" class="st2 st6 st5"> </text>
<text transform="matrix(1 0 0 1 326.7256 489.8893)" class="st2 st6 st5"> </text>
<g>
	<path class="st3" d="M329.6,483.9h0.4v5.9h-0.4V483.9z"/>
	<path class="st3" d="M337.1,484.4H335V484h4.6v0.4h-2.1v5.5h-0.4V484.4z"/>
	<path class="st3" d="M339.2,487.7L339.2,487.7c0-1.3,0.9-2.3,2.1-2.3s2,1,2,2.3c0,0.1,0,0.1,0,0.2h-3.6c0.1,1.1,0.9,1.7,1.7,1.7
		c0.7,0,1.1-0.3,1.5-0.7l0.3,0.3c-0.4,0.5-1,0.8-1.8,0.8C340.2,490,339.2,489.1,339.2,487.7z M342.8,487.5c-0.1-0.9-0.6-1.7-1.6-1.7
		c-0.9,0-1.5,0.7-1.6,1.7H342.8z M341.8,483.7l0.5,0.3l-0.9,0.9H341L341.8,483.7z"/>
	<path class="st3" d="M344.3,483.7h0.4v6.2h-0.4V483.7z"/>
	<path class="st3" d="M346,489.2h0.6v0.7H346V489.2z"/>
</g>
<g>
	<path class="st2" d="M349.3,486.9L349.3,486.9c0-1.7,1.1-3.1,2.7-3.1s2.6,1.3,2.6,3.1l0,0c0,1.7-1.1,3.1-2.7,3.1
		C350.3,490,349.3,488.7,349.3,486.9z M353.2,486.9L353.2,486.9c0-1.1-0.5-1.9-1.3-1.9c-0.8,0-1.3,0.8-1.3,1.9l0,0
		c0,1.1,0.5,1.9,1.3,1.9C352.7,488.8,353.2,488,353.2,486.9z"/>
	<path class="st2" d="M358.2,488.6h-2.9l-0.2-0.9l3.3-3.8h1.1v3.6h0.8v1.1h-0.8v1.3h-1.2v-1.3H358.2z M358.2,487.6v-1.9l-1.6,1.9
		H358.2z"/>
	<path class="st2" d="M362.6,489l0.9-0.9c0.4,0.5,0.8,0.7,1.4,0.7c0.5,0,0.8-0.3,0.8-0.7l0,0c0-0.5-0.4-0.8-1.2-0.8H364l-0.2-0.8
		l1.4-1.4h-2.3V484h4v1l-1.5,1.4c0.8,0.1,1.6,0.6,1.6,1.7l0,0c0,1.1-0.8,1.9-2.1,1.9C363.9,490,363.1,489.6,362.6,489z"/>
	<path class="st2" d="M367.7,488.3L367.7,488.3c0-0.7,0.3-1.2,1-1.5c-0.5-0.3-0.8-0.7-0.8-1.3l0,0c0-0.9,0.8-1.6,2.1-1.6
		s2.1,0.7,2.1,1.6l0,0c0,0.6-0.3,1-0.8,1.3c0.6,0.3,1,0.7,1,1.4l0,0c0,1.1-1,1.8-2.3,1.8C368.7,490,367.7,489.3,367.7,488.3z
		 M371,488.2L371,488.2c0-0.5-0.4-0.7-1-0.7c-0.6,0-1,0.3-1,0.7l0,0c0,0.4,0.4,0.7,1,0.7C370.7,488.9,371,488.6,371,488.2z
		 M370.9,485.7L370.9,485.7c0-0.4-0.3-0.7-0.9-0.7c-0.5,0-0.8,0.3-0.8,0.7l0,0c0,0.4,0.3,0.7,0.8,0.7
		C370.5,486.4,370.9,486.1,370.9,485.7z"/>
	<path class="st2" d="M372.8,488.3L372.8,488.3c0-0.7,0.3-1.2,1-1.5c-0.5-0.3-0.8-0.7-0.8-1.3l0,0c0-0.9,0.8-1.6,2.1-1.6
		c1.3,0,2.1,0.7,2.1,1.6l0,0c0,0.6-0.3,1-0.8,1.3c0.6,0.3,1,0.7,1,1.4l0,0c0,1.1-1,1.8-2.3,1.8C373.8,490,372.8,489.3,372.8,488.3z
		 M376.2,488.2L376.2,488.2c0-0.5-0.4-0.7-1-0.7s-1,0.3-1,0.7l0,0c0,0.4,0.4,0.7,1,0.7C375.8,488.9,376.2,488.6,376.2,488.2z
		 M376,485.7L376,485.7c0-0.4-0.3-0.7-0.9-0.7c-0.5,0-0.8,0.3-0.8,0.7l0,0c0,0.4,0.3,0.7,0.8,0.7C375.6,486.4,376,486.1,376,485.7z"
		/>
	<path class="st2" d="M381,485.2l-1,0.3l-0.3-1.1l1.7-0.5h0.9v6H381L381,485.2L381,485.2z"/>
	<path class="st2" d="M383.2,488.9l2-1.6c0.7-0.6,1-0.9,1-1.4s-0.3-0.8-0.8-0.8s-0.8,0.3-1.2,0.8l-0.9-0.7c0.6-0.8,1.2-1.2,2.2-1.2
		c1.2,0,2,0.7,2,1.8l0,0c0,1-0.5,1.5-1.6,2.3l-1,0.7h2.6v1.1h-4.4v-1H383.2z"/>
	<path class="st2" d="M390.4,489.3l0.7-1c0.4,0.3,0.8,0.5,1.3,0.5c0.7,0,1.1-0.6,1.2-1.4c-0.3,0.2-0.7,0.4-1.2,0.4
		c-1.3,0-2.1-0.7-2.1-1.9l0,0c0-1.2,0.9-2.1,2.3-2.1c0.8,0,1.3,0.2,1.7,0.6c0.4,0.4,0.7,1.1,0.7,2.2l0,0c0,1.9-0.9,3.2-2.6,3.2
		C391.5,490,390.9,489.7,390.4,489.3z M393.6,485.9L393.6,485.9c0-0.5-0.4-0.9-1-0.9c-0.6,0-1,0.4-1,0.9l0,0c0,0.5,0.4,0.9,1,0.9
		C393.2,486.8,393.6,486.4,393.6,485.9z"/>
	<path class="st2" d="M398.5,488.6h-2.9l-0.2-0.9l3.3-3.8h1.1v3.6h0.8v1.1h-0.8v1.3h-1.2v-1.3H398.5z M398.5,487.6v-1.9l-1.6,1.9
		H398.5z"/>
</g>
<text transform="matrix(1 0 0 1 400.6846 489.8893)" class="st2 st6 st5"> </text>
<text transform="matrix(1 0 0 1 402.586 489.8893)" class="st2 st6 st5"> </text>
<g>
	<path class="st3" d="M405.4,483.9h0.4v5.9h-0.4V483.9z"/>
	<path class="st3" d="M411.3,483.9h0.4l2.4,3.5l2.4-3.5h0.4v5.9h-0.4v-5.2l-2.4,3.4l0,0l-2.4-3.4v5.2h-0.4V483.9z"/>
	<path class="st3" d="M417.9,488.6L417.9,488.6c0-0.9,0.8-1.4,1.9-1.4c0.6,0,1,0.1,1.4,0.2v-0.2c0-0.9-0.5-1.3-1.4-1.3
		c-0.5,0-1,0.1-1.4,0.3l-0.2-0.4c0.5-0.2,0.9-0.4,1.5-0.4c0.6,0,1.1,0.2,1.4,0.5s0.4,0.7,0.4,1.2v2.7h-0.2v-0.7
		c-0.3,0.4-0.8,0.8-1.7,0.8C418.8,490,417.9,489.5,417.9,488.6z M421.3,488.3v-0.5c-0.4-0.1-0.8-0.2-1.5-0.2c-0.9,0-1.4,0.4-1.4,1
		l0,0c0,0.6,0.6,1,1.3,1C420.5,489.6,421.3,489.1,421.3,488.3z"/>
	<path class="st3" d="M422.9,483.9h0.5v0.6h-0.5V483.9z M423,485.6h0.4v4.3H423V485.6z"/>
	<path class="st3" d="M424.8,483.7h0.4v6.2h-0.4V483.7z"/>
</g>
<g>
	<path class="st2" d="M428.3,483.7h1.4v1.1h-1.4V483.7z M428.4,485.3h1.3v4.6h-1.3V485.3z"/>
	<path class="st2" d="M430.6,485.3h1.3v0.6c0.3-0.4,0.7-0.7,1.3-0.7c1,0,1.5,0.6,1.5,1.7v2.9h-1.3v-2.5c0-0.6-0.3-0.9-0.8-0.9
		s-0.8,0.3-0.8,0.9v2.5h-1.3v-4.5H430.6z"/>
	<path class="st2" d="M435.9,486.4h-0.5v-1.1h0.5V485c0-0.5,0.1-0.9,0.4-1.1c0.2-0.2,0.6-0.4,1-0.4s0.7,0.1,0.9,0.1v1.1
		c-0.2-0.1-0.4-0.1-0.6-0.1c-0.3,0-0.5,0.2-0.5,0.5v0.2h1v1.1h-1v3.5h-1.3v-3.5H435.9z"/>
	<path class="st2" d="M438.4,487.6L438.4,487.6c0-1.3,1.1-2.4,2.5-2.4s2.5,1,2.5,2.4l0,0c0,1.3-1.1,2.4-2.5,2.4
		C439.4,490,438.4,489,438.4,487.6z M442,487.6L442,487.6c0-0.7-0.5-1.3-1.2-1.3s-1.2,0.6-1.2,1.2l0,0c0,0.7,0.5,1.3,1.2,1.3
		C441.6,488.9,442,488.3,442,487.6z"/>
	<path class="st2" d="M444,487.6c0-2,1.6-3.7,3.7-3.7s3.7,1.6,3.7,3.4c0,1.4-0.8,2.1-1.7,2.1c-0.7,0-1.1-0.3-1.3-0.5
		c-0.3,0.3-0.7,0.5-1.3,0.5c-0.9,0-1.6-0.6-1.6-1.6c0-1.2,0.9-2.1,1.9-2.1c0.6,0,0.9,0.3,1.2,0.6l0.1-0.5l1,0.2l-0.4,2.3
		c0,0.1,0,0.2,0,0.3c0,0.3,0.2,0.5,0.6,0.5c0.6,0,1.1-0.6,1.1-1.7c0-1.6-1.4-3-3.3-3s-3.4,1.5-3.4,3.4s1.4,3.4,3.4,3.4
		c0.8,0,1.4-0.2,2.1-0.6l0.2,0.3c-0.7,0.4-1.4,0.6-2.3,0.6C445.6,491.3,444,489.6,444,487.6z M448.4,487.2c0-0.5-0.3-0.8-0.8-0.8
		c-0.6,0-1,0.5-1,1.2c0,0.5,0.3,0.8,0.8,0.8C448,488.5,448.4,487.9,448.4,487.2z"/>
	<path class="st2" d="M452,487.6L452,487.6c0-1.3,1-2.4,2.4-2.4c0.9,0,1.4,0.3,1.8,0.8l-0.8,0.9c-0.3-0.3-0.6-0.5-1-0.5
		c-0.6,0-1.1,0.6-1.1,1.2l0,0c0,0.7,0.5,1.3,1.2,1.3c0.4,0,0.7-0.2,1-0.5l0.8,0.8c-0.4,0.5-1,0.8-1.9,0.8
		C453,490,452,488.9,452,487.6z"/>
	<path class="st2" d="M456.4,487.6L456.4,487.6c0-1.3,0.9-2.4,2.3-2.4c1.5,0,2.2,1.2,2.2,2.5c0,0.1,0,0.2,0,0.3h-3.2
		c0.1,0.6,0.5,0.9,1.1,0.9c0.4,0,0.7-0.1,1.1-0.5l0.7,0.7c-0.4,0.5-1,0.8-1.9,0.8C457.4,490,456.4,489,456.4,487.6z M459.6,487.3
		c-0.1-0.6-0.4-1-1-1c-0.5,0-0.9,0.4-1,1H459.6z"/>
	<path class="st2" d="M461.6,485.3h1.3v0.9c0.3-0.6,0.7-1,1.5-1v1.4h-0.1c-0.9,0-1.4,0.5-1.4,1.6v1.7h-1.3V485.3z"/>
	<path class="st2" d="M465.1,488.6v-2.2h-0.5v-1.1h0.5v-1.2h1.3v1.2h1.1v1.1h-1.1v1.9c0,0.3,0.1,0.4,0.4,0.4c0.2,0,0.5-0.1,0.6-0.2
		v1c-0.3,0.2-0.6,0.3-1,0.3C465.7,490,465.1,489.7,465.1,488.6z"/>
	<path class="st2" d="M468.2,483.7h1.4v1.1h-1.4V483.7z M468.2,485.3h1.3v4.6h-1.3V485.3z"/>
	<path class="st2" d="M470.5,490.8l0.4-1c0.5,0.3,0.9,0.4,1.5,0.4c0.9,0,1.3-0.4,1.3-1.2v-0.2c-0.4,0.5-0.8,0.7-1.5,0.7
		c-1.1,0-2-0.8-2-2.1l0,0c0-1.4,1-2.1,2-2.1c0.7,0,1.1,0.3,1.5,0.7v-0.7h1.3v3.5c0,0.8-0.2,1.4-0.6,1.8c-0.4,0.4-1.1,0.6-2,0.6
		C471.8,491.3,471.1,491.1,470.5,490.8z M473.8,487.4L473.8,487.4c0-0.6-0.5-1.1-1.1-1.1c-0.6,0-1.1,0.4-1.1,1.1l0,0
		c0,0.6,0.5,1.1,1.1,1.1C473.3,488.5,473.8,488,473.8,487.4z"/>
	<path class="st2" d="M476,485.3h1.3v0.9c0.3-0.6,0.7-1,1.5-1v1.4h-0.1c-0.9,0-1.4,0.5-1.4,1.6v1.7H476V485.3z"/>
	<path class="st2" d="M479,487.6L479,487.6c0-1.3,0.9-2.4,2.3-2.4c1.5,0,2.2,1.2,2.2,2.5c0,0.1,0,0.2,0,0.3h-3.2
		c0.1,0.6,0.5,0.9,1.1,0.9c0.4,0,0.7-0.1,1.1-0.5l0.7,0.7c-0.4,0.5-1,0.8-1.9,0.8C480,490,479,489,479,487.6z M482.2,487.3
		c-0.1-0.6-0.4-1-1-1c-0.5,0-0.9,0.4-1,1H482.2z"/>
	<path class="st2" d="M483.9,487.6L483.9,487.6c0-1.3,0.9-2.4,2.3-2.4c1.5,0,2.2,1.2,2.2,2.5c0,0.1,0,0.2,0,0.3h-3.2
		c0.1,0.6,0.5,0.9,1.1,0.9c0.4,0,0.7-0.1,1.1-0.5l0.7,0.7c-0.4,0.5-1,0.8-1.9,0.8C484.9,490,483.9,489,483.9,487.6z M487.1,487.3
		c-0.1-0.6-0.4-1-1-1c-0.5,0-0.9,0.4-1,1H487.1z"/>
	<path class="st2" d="M489.1,485.3h1.3v0.6c0.3-0.4,0.7-0.7,1.3-0.7c1,0,1.5,0.6,1.5,1.7v2.9h-1.3v-2.5c0-0.6-0.3-0.9-0.8-0.9
		s-0.8,0.3-0.8,0.9v2.5H489v-4.5H489.1z"/>
	<path class="st2" d="M494.1,488.5h1.4v1.4h-1.4V488.5z"/>
	<path class="st2" d="M497.6,489.3v0.6h-1.3v-6.2h1.3v2.3c0.3-0.4,0.7-0.7,1.4-0.7c1.1,0,2.1,0.8,2.1,2.4l0,0c0,1.5-1,2.4-2.1,2.4
		C498.4,490,497.9,489.7,497.6,489.3z M499.8,487.6L499.8,487.6c0-0.8-0.5-1.3-1.1-1.3s-1.1,0.5-1.1,1.3l0,0c0,0.8,0.5,1.3,1.1,1.3
		S499.8,488.4,499.8,487.6z"/>
	<path class="st2" d="M501.6,487.6L501.6,487.6c0-1.3,0.9-2.4,2.3-2.4c1.5,0,2.2,1.2,2.2,2.5c0,0.1,0,0.2,0,0.3h-3.2
		c0.1,0.6,0.5,0.9,1.1,0.9c0.4,0,0.7-0.1,1.1-0.5l0.7,0.7c-0.4,0.5-1,0.8-1.9,0.8C502.6,490,501.6,489,501.6,487.6z M504.8,487.3
		c-0.1-0.6-0.4-1-1-1c-0.5,0-0.9,0.4-1,1H504.8z"/>
</g>
<g>
	<path class="st7" d="M-23.6,499.6h2.5c0.7,0,1.3,0.2,1.7,0.6c0.3,0.3,0.5,0.7,0.5,1.1l0,0c0,1-0.7,1.6-1.7,1.7l2,2.5h-0.7l-1.9-2.5
		h-1.9v2.5h-0.5V499.6z M-21.1,502.7c1,0,1.7-0.5,1.7-1.4l0,0c0-0.8-0.6-1.3-1.7-1.3h-2v2.7H-21.1z"/>
	<path class="st7" d="M-17.7,499.6h2.2c1.3,0,2.2,0.7,2.2,1.8l0,0c0,1.2-1.1,1.9-2.3,1.9h-1.6v2.2h-0.4v-5.9H-17.7z M-15.6,502.9
		c1.1,0,1.9-0.6,1.9-1.5l0,0c0-0.9-0.7-1.4-1.8-1.4h-1.7v2.9H-15.6z"/>
	<path class="st7" d="M-12.2,499.6h0.4l2.4,3.5l2.4-3.5h0.4v5.9H-7v-5.2l-2.4,3.4l0,0l-2.4-3.4v5.2h-0.4
		C-12.2,505.5-12.2,499.6-12.2,499.6z"/>
</g>
<g>
	<path class="st7" d="M-2.8,499.6h0.4v5.5h3.5v0.4h-3.9V499.6z"/>
	<path class="st7" d="M2.2,499.6h0.4v5.9H2.2V499.6z"/>
	<path class="st7" d="M4.3,499.6h4.2v0.4H4.7v2.3h3.4v0.4H4.7v2.4h3.8v0.4H4.2v-5.9H4.3z M6.6,499.1H6.2l-0.9-0.8l0.5-0.2L6.6,499.1
		z"/>
	<path class="st7" d="M9.4,502.6L9.4,502.6c0-1.6,1.2-3.1,2.9-3.1c1,0,1.6,0.3,2.2,0.8l-0.3,0.3c-0.5-0.4-1-0.7-1.9-0.7
		c-1.4,0-2.5,1.2-2.5,2.7l0,0c0,1.5,1,2.7,2.5,2.7c0.8,0,1.5-0.3,1.9-0.7v-1.7h-2v-0.4h2.4v2.3c-0.5,0.5-1.4,0.9-2.3,0.9
		C10.5,505.7,9.4,504.3,9.4,502.6z"/>
	<path class="st7" d="M16.1,499.6h4.2v0.4h-3.8v2.3H20v0.4h-3.4v2.4h3.8v0.4h-4.3V499.6z"/>
</g>
<g>
	<path class="st7" d="M32.4,500h-2.1v-0.4h4.6v0.4h-2.1v5.5h-0.4V500z"/>
	<path class="st7" d="M35.5,499.6H36l2.3,5.5l2.3-5.5h0.5l-2.6,6h-0.4L35.5,499.6z"/>
	<path class="st7" d="M43.6,499.6h0.5l2.8,6h-0.5l-0.8-1.7h-3.5l-0.8,1.7h-0.5L43.6,499.6z M45.4,503.5l-1.6-3.4l-1.6,3.4H45.4z"/>
</g>
<g>
	<path class="st7" d="M49.9,499.6h2.8c0.7,0,1.2,0.2,1.6,0.5c0.3,0.3,0.4,0.6,0.4,1l0,0c0,0.7-0.4,1-0.8,1.3
		c0.7,0.3,1.1,0.7,1.1,1.5l0,0c0,1.1-0.9,1.6-2.2,1.6H50v-5.9H49.9z M52.4,502c0.6,0,0.9-0.2,0.9-0.6l0,0c0-0.4-0.3-0.6-0.9-0.6
		h-1.3v1.3h1.3V502z M52.8,504.4c0.6,0,0.9-0.2,0.9-0.6l0,0c0-0.4-0.3-0.6-1-0.6h-1.5v1.3h1.6V504.4z"/>
	<path class="st7" d="M55.8,499.6h4.5v1.2h-3.2v1.2h2.8v1.2h-2.8v1.3h3.2v1.2h-4.5V499.6z"/>
	<path class="st7" d="M63.3,502.6L63.3,502.6c0-1.7,1.1-3.1,2.7-3.1c1.6,0,2.6,1.3,2.6,3.1l0,0c0,1.7-1.1,3.1-2.7,3.1
		S63.3,504.3,63.3,502.6z M67.3,502.6L67.3,502.6c0-1.1-0.5-1.9-1.3-1.9c-0.8,0-1.3,0.8-1.3,1.9l0,0c0,1.1,0.5,1.9,1.3,1.9
		C66.8,504.5,67.3,503.7,67.3,502.6z"/>
	<path class="st7" d="M72.2,504.3h-2.9l-0.2-0.9l3.3-3.8h1.1v3.6h0.8v1.1h-0.8v1.3h-1.2v-1.3H72.2z M72.2,503.2v-1.9l-1.6,1.9H72.2z
		"/>
	<path class="st7" d="M74.8,504.8l0.8-0.9c0.5,0.4,0.9,0.6,1.4,0.6c0.6,0,1-0.3,1-0.8l0,0c0-0.5-0.4-0.8-1.1-0.8
		c-0.4,0-0.7,0.1-1,0.2l-0.8-0.5l0.2-2.9H79v1.1h-2.5l-0.1,1c0.2-0.1,0.5-0.1,0.8-0.1c1.2,0,2.1,0.6,2.1,1.9l0,0
		c0,1.3-0.9,2.1-2.3,2.1C76.1,505.7,75.4,505.3,74.8,504.8z"/>
	<path class="st7" d="M81,500.9l-1,0.3l-0.3-1.1l1.7-0.5h0.9v6H81C81,505.6,81,500.9,81,500.9z"/>
	<path class="st7" d="M83.4,504.2h1.4v1.4h-1.4V504.2z"/>
	<path class="st7" d="M85.7,505l0.7-1c0.4,0.3,0.8,0.5,1.3,0.5c0.7,0,1.1-0.6,1.2-1.4c-0.3,0.2-0.7,0.4-1.2,0.4
		c-1.3,0-2.1-0.7-2.1-1.9l0,0c0-1.2,0.9-2.1,2.3-2.1c0.8,0,1.3,0.2,1.7,0.6c0.4,0.4,0.7,1.1,0.7,2.2l0,0c0,1.9-0.9,3.2-2.6,3.2
		C86.7,505.7,86.2,505.4,85.7,505z M88.9,501.6L88.9,501.6c0-0.5-0.4-0.9-1-0.9c-0.6,0-1,0.4-1,0.9l0,0c0,0.5,0.4,0.9,1,0.9
		C88.5,502.4,88.9,502.1,88.9,501.6z"/>
	<path class="st7" d="M91.9,500.9l-1,0.3l-0.3-1.1l1.7-0.5h0.9v6h-1.3C91.9,505.6,91.9,500.9,91.9,500.9z"/>
	<path class="st7" d="M94.2,504.5l2-1.6c0.7-0.6,1-0.9,1-1.4s-0.3-0.8-0.8-0.8c-0.5,0-0.8,0.3-1.2,0.8l-0.9-0.7
		c0.6-0.8,1.2-1.2,2.2-1.2c1.2,0,2,0.7,2,1.8l0,0c0,1-0.5,1.5-1.6,2.3l-1,0.7h2.6v1.1h-4.4v-1H94.2z"/>
	<path class="st7" d="M99.3,504.2h1.4v1.4h-1.4C99.3,505.6,99.3,504.2,99.3,504.2z"/>
	<path class="st7" d="M101.6,505l0.7-1c0.4,0.3,0.8,0.5,1.3,0.5c0.7,0,1.1-0.6,1.2-1.4c-0.3,0.2-0.7,0.4-1.2,0.4
		c-1.3,0-2.1-0.7-2.1-1.9l0,0c0-1.2,0.9-2.1,2.3-2.1c0.8,0,1.3,0.2,1.7,0.6s0.7,1.1,0.7,2.2l0,0c0,1.9-0.9,3.2-2.6,3.2
		C102.7,505.7,102.1,505.4,101.6,505z M104.8,501.6L104.8,501.6c0-0.5-0.4-0.9-1-0.9c-0.6,0-1,0.4-1,0.9l0,0c0,0.5,0.4,0.9,1,0.9
		C104.5,502.4,104.8,502.1,104.8,501.6z"/>
	<path class="st7" d="M106.8,502.6L106.8,502.6c0-1.7,1.1-3.1,2.7-3.1c1.6,0,2.6,1.3,2.6,3.1l0,0c0,1.7-1.1,3.1-2.7,3.1
		C107.8,505.7,106.8,504.3,106.8,502.6z M110.8,502.6L110.8,502.6c0-1.1-0.5-1.9-1.3-1.9s-1.3,0.8-1.3,1.9l0,0
		c0,1.1,0.5,1.9,1.3,1.9S110.8,503.7,110.8,502.6z"/>
	<path class="st7" d="M115.7,504.3h-2.9l-0.2-0.9l3.3-3.8h1.1v3.6h0.8v1.1H117v1.3h-1.2v-1.3H115.7z M115.7,503.2v-1.9l-1.6,1.9
		H115.7z"/>
</g>
<text transform="matrix(1 0 0 1 117.8316 505.5671)" class="st7 st4 st5"> </text>
<g>
	<path class="st7" d="M311.7,499.6h4.2v0.4h-3.7v2.4h3.4v0.4h-3.4v2.7h-0.4v-5.9H311.7z"/>
	<path class="st7" d="M316.5,503.4L316.5,503.4c0-1.2,0.9-2.3,2.2-2.3c1.3,0,2.2,1,2.2,2.3l0,0c0,1.2-0.9,2.3-2.2,2.3
		S316.5,504.6,316.5,503.4z M320.5,503.4L320.5,503.4c0-1.1-0.8-1.9-1.8-1.9s-1.8,0.8-1.8,1.9l0,0c0,1,0.8,1.9,1.8,1.9
		C319.7,505.3,320.5,504.4,320.5,503.4z"/>
	<path class="st7" d="M322,501.2h0.4v1.2c0.3-0.8,1.1-1.3,1.9-1.3v0.5l0,0c-1,0-1.9,0.8-1.9,2.2v1.8H322V501.2z"/>
	<path class="st7" d="M325.3,504.5v-2.8h-0.6v-0.4h0.6v-1.4h0.4v1.4h1.5v0.4h-1.5v2.8c0,0.6,0.4,0.8,0.9,0.8c0.2,0,0.4,0,0.6-0.2
		v0.4c-0.2,0.1-0.4,0.2-0.7,0.2C325.9,505.6,325.3,505.3,325.3,504.5z"/>
	<path class="st7" d="M328.3,499.5h0.5v0.6h-0.5V499.5z M328.3,501.2h0.4v4.3h-0.4V501.2z"/>
	<path class="st7" d="M329.7,505l0.2-0.3c0.5,0.4,1,0.6,1.6,0.6c0.6,0,1-0.3,1-0.8l0,0c0-0.5-0.5-0.7-1.1-0.9
		c-0.7-0.2-1.5-0.4-1.5-1.2l0,0c0-0.7,0.6-1.2,1.4-1.2c0.5,0,1.1,0.2,1.5,0.5l-0.2,0.3c-0.4-0.3-0.9-0.4-1.3-0.4c-0.6,0-1,0.3-1,0.8
		l0,0c0,0.5,0.6,0.7,1.2,0.8c0.7,0.2,1.4,0.5,1.4,1.2l0,0c0,0.8-0.7,1.3-1.5,1.3C330.9,505.6,330.2,505.4,329.7,505z"/>
</g>
<g>
	<path class="st7" d="M336.3,499.6h2.8c0.7,0,1.2,0.2,1.6,0.5c0.3,0.3,0.4,0.6,0.4,1l0,0c0,0.7-0.4,1-0.8,1.3
		c0.7,0.3,1.1,0.7,1.1,1.5l0,0c0,1.1-0.9,1.6-2.2,1.6h-2.9V499.6z M338.8,502c0.6,0,0.9-0.2,0.9-0.6l0,0c0-0.4-0.3-0.6-0.9-0.6h-1.3
		v1.3h1.3V502z M339.1,504.4c0.6,0,0.9-0.2,0.9-0.6l0,0c0-0.4-0.3-0.6-1-0.6h-1.5v1.3h1.6V504.4z"/>
	<path class="st7" d="M342.2,499.6h4.5v1.2h-3.2v1.2h2.8v1.2h-2.8v1.3h3.2v1.2h-4.5V499.6z"/>
	<path class="st7" d="M348.1,505c-0.4-0.4-0.7-1.1-0.7-2.3l0,0c0-1.8,0.8-3.2,2.6-3.2c0.8,0,1.3,0.2,1.9,0.7l-0.7,1
		c-0.4-0.3-0.7-0.5-1.2-0.5c-0.7,0-1.1,0.6-1.2,1.4c0.3-0.2,0.6-0.4,1.2-0.4c1.2,0,2.1,0.7,2.1,1.9l0,0c0,1.2-1,2.1-2.3,2.1
		C349,505.7,348.5,505.4,348.1,505z M350.8,503.7L350.8,503.7c0-0.5-0.4-0.9-1-0.9c-0.6,0-1,0.4-1,0.9l0,0c0,0.5,0.4,0.9,1,0.9
		C350.4,504.5,350.8,504.2,350.8,503.7z"/>
	<path class="st7" d="M352.7,503.9L352.7,503.9c0-0.7,0.3-1.2,1-1.5c-0.5-0.3-0.8-0.7-0.8-1.3l0,0c0-0.9,0.8-1.6,2.1-1.6
		s2.1,0.7,2.1,1.6l0,0c0,0.6-0.3,1-0.8,1.3c0.6,0.3,1,0.7,1,1.4l0,0c0,1.1-1,1.8-2.3,1.8C353.7,505.6,352.7,505,352.7,503.9z
		 M356,503.8L356,503.8c0-0.5-0.4-0.7-1-0.7c-0.6,0-1,0.3-1,0.7l0,0c0,0.4,0.4,0.7,1,0.7C355.6,504.6,356,504.2,356,503.8z
		 M355.8,501.3L355.8,501.3c0-0.4-0.3-0.7-0.9-0.7c-0.5,0-0.8,0.3-0.8,0.7l0,0c0,0.4,0.3,0.7,0.8,0.7
		C355.5,502,355.8,501.7,355.8,501.3z"/>
	<path class="st7" d="M360.1,504.5l2-1.6c0.7-0.6,1-0.9,1-1.4s-0.3-0.8-0.8-0.8s-0.8,0.3-1.2,0.8l-0.9-0.7c0.6-0.8,1.2-1.2,2.2-1.2
		c1.2,0,2,0.7,2,1.8l0,0c0,1-0.5,1.5-1.6,2.3l-1,0.7h2.6v1.1H360v-1H360.1z"/>
	<path class="st7" d="M368,504.3h-2.9l-0.2-0.9l3.3-3.8h1.1v3.6h0.8v1.1h-0.8v1.3h-1.2v-1.3H368z M368,503.2v-1.9l-1.6,1.9H368z"/>
	<path class="st7" d="M370.7,502.6L370.7,502.6c0-1.7,1.1-3.1,2.7-3.1s2.6,1.3,2.6,3.1l0,0c0,1.7-1.1,3.1-2.7,3.1
		S370.7,504.3,370.7,502.6z M374.6,502.6L374.6,502.6c0-1.1-0.5-1.9-1.3-1.9c-0.8,0-1.3,0.8-1.3,1.9l0,0c0,1.1,0.5,1.9,1.3,1.9
		C374.1,504.5,374.6,503.7,374.6,502.6z"/>
	<path class="st7" d="M376.6,502.6L376.6,502.6c0-1.7,1.1-3.1,2.7-3.1s2.6,1.3,2.6,3.1l0,0c0,1.7-1.1,3.1-2.7,3.1
		C377.7,505.7,376.6,504.3,376.6,502.6z M380.6,502.6L380.6,502.6c0-1.1-0.5-1.9-1.3-1.9c-0.8,0-1.3,0.8-1.3,1.9l0,0
		c0,1.1,0.5,1.9,1.3,1.9C380.1,504.5,380.6,503.7,380.6,502.6z"/>
	<path class="st7" d="M384.8,503.9L384.8,503.9c0-0.7,0.3-1.2,1-1.5c-0.5-0.3-0.8-0.7-0.8-1.3l0,0c0-0.9,0.8-1.6,2.1-1.6
		c1.3,0,2.1,0.7,2.1,1.6l0,0c0,0.6-0.3,1-0.8,1.3c0.6,0.3,1,0.7,1,1.4l0,0c0,1.1-1,1.8-2.3,1.8C385.8,505.6,384.8,505,384.8,503.9z
		 M388.1,503.8L388.1,503.8c0-0.5-0.4-0.7-1-0.7c-0.6,0-1,0.3-1,0.7l0,0c0,0.4,0.4,0.7,1,0.7C387.8,504.6,388.1,504.2,388.1,503.8z
		 M388,501.3L388,501.3c0-0.4-0.3-0.7-0.9-0.7c-0.5,0-0.8,0.3-0.8,0.7l0,0c0,0.4,0.3,0.7,0.8,0.7C387.6,502,388,501.7,388,501.3z"/>
	<path class="st7" d="M389.9,504.6l0.9-0.9c0.4,0.5,0.8,0.7,1.4,0.7c0.5,0,0.8-0.3,0.8-0.7l0,0c0-0.5-0.4-0.8-1.2-0.8h-0.5l-0.2-0.8
		l1.4-1.4h-2.3v-1.1h4v1l-1.5,1.4c0.8,0.1,1.6,0.6,1.6,1.7l0,0c0,1.1-0.8,1.9-2.1,1.9C391.1,505.7,390.4,505.2,389.9,504.6z"/>
	<path class="st7" d="M395,503.9L395,503.9c0-0.7,0.3-1.2,1-1.5c-0.5-0.3-0.8-0.7-0.8-1.3l0,0c0-0.9,0.8-1.6,2.1-1.6
		c1.3,0,2.1,0.7,2.1,1.6l0,0c0,0.6-0.3,1-0.8,1.3c0.6,0.3,1,0.7,1,1.4l0,0c0,1.1-1,1.8-2.3,1.8C396,505.6,395,505,395,503.9z
		 M398.3,503.8L398.3,503.8c0-0.5-0.4-0.7-1-0.7c-0.6,0-1,0.3-1,0.7l0,0c0,0.4,0.4,0.7,1,0.7C397.9,504.6,398.3,504.2,398.3,503.8z
		 M398.1,501.3L398.1,501.3c0-0.4-0.3-0.7-0.9-0.7c-0.5,0-0.8,0.3-0.8,0.7l0,0c0,0.4,0.3,0.7,0.8,0.7
		C397.8,502,398.1,501.7,398.1,501.3z"/>
	<path class="st7" d="M403.1,504.3h-2.9l-0.2-0.9l3.3-3.8h1.1v3.6h0.8v1.1h-0.9v1.3h-1.2V504.3z M403.1,503.2v-1.9l-1.6,1.9H403.1z"
		/>
	<path class="st7" d="M405.8,505l0.7-1c0.4,0.3,0.8,0.5,1.3,0.5c0.7,0,1.1-0.6,1.2-1.4c-0.3,0.2-0.7,0.4-1.2,0.4
		c-1.3,0-2.1-0.7-2.1-1.9l0,0c0-1.2,0.9-2.1,2.3-2.1c0.8,0,1.3,0.2,1.7,0.6c0.4,0.4,0.7,1.1,0.7,2.2l0,0c0,1.9-0.9,3.2-2.6,3.2
		C406.9,505.7,406.3,505.4,405.8,505z M409,501.6L409,501.6c0-0.5-0.4-0.9-1-0.9c-0.6,0-1,0.4-1,0.9l0,0c0,0.5,0.4,0.9,1,0.9
		C408.7,502.4,409,502.1,409,501.6z"/>
	<path class="st7" d="M411,503.9L411,503.9c0-0.7,0.3-1.2,1-1.5c-0.5-0.3-0.8-0.7-0.8-1.3l0,0c0-0.9,0.8-1.6,2.1-1.6
		s2.1,0.7,2.1,1.6l0,0c0,0.6-0.3,1-0.8,1.3c0.6,0.3,1,0.7,1,1.4l0,0c0,1.1-1,1.8-2.3,1.8C411.9,505.6,411,505,411,503.9z
		 M414.3,503.8L414.3,503.8c0-0.5-0.4-0.7-1-0.7c-0.6,0-1,0.3-1,0.7l0,0c0,0.4,0.4,0.7,1,0.7C413.9,504.6,414.3,504.2,414.3,503.8z
		 M414.1,501.3L414.1,501.3c0-0.4-0.3-0.7-0.9-0.7c-0.5,0-0.8,0.3-0.8,0.7l0,0c0,0.4,0.3,0.7,0.8,0.7
		C413.8,502,414.1,501.7,414.1,501.3z"/>
	<path class="st7" d="M416,504.6l0.9-0.9c0.4,0.5,0.8,0.7,1.4,0.7c0.5,0,0.8-0.3,0.8-0.7l0,0c0-0.5-0.4-0.8-1.2-0.8h-0.5l-0.2-0.8
		l1.4-1.4h-2.3v-1.1h4v1l-1.5,1.4c0.8,0.1,1.6,0.6,1.6,1.7l0,0c0,1.1-0.8,1.9-2.1,1.9C417.3,505.7,416.5,505.2,416,504.6z"/>
	<path class="st7" d="M424.1,504.3h-2.9l-0.2-0.9l3.3-3.8h1.1v3.6h0.8v1.1h-0.9v1.3h-1.2V504.3z M424.1,503.2v-1.9l-1.6,1.9H424.1z"
		/>
</g>
<g>
	<path class="st7" d="M434,499.6h0.4v5.9H434V499.6z"/>
	<path class="st7" d="M443,499.6h2.5c0.7,0,1.2,0.2,1.5,0.5c0.2,0.2,0.4,0.6,0.4,0.9l0,0c0,0.8-0.5,1.2-1,1.4
		c0.7,0.2,1.3,0.6,1.3,1.4l0,0c0,1-0.8,1.6-2.1,1.6H443L443,499.6L443,499.6z M445.5,502.4c0.9,0,1.5-0.4,1.5-1.2l0,0
		c0-0.7-0.5-1.1-1.5-1.1h-2v2.3H445.5z M445.7,505.2c1,0,1.7-0.5,1.7-1.2l0,0c0-0.7-0.6-1.2-1.8-1.2h-2v2.4H445.7z"/>
	<path class="st7" d="M449,499.6h0.4v5.9H449V499.6z"/>
	<path class="st7" d="M450.8,502.6L450.8,502.6c0-1.7,1.3-3.1,3-3.1c1.1,0,1.7,0.4,2.3,1l-0.3,0.3c-0.5-0.5-1.1-0.9-2-0.9
		c-1.4,0-2.5,1.2-2.5,2.7l0,0c0,1.5,1.1,2.7,2.5,2.7c0.9,0,1.4-0.3,2-0.9l0.3,0.3c-0.6,0.6-1.3,1-2.4,1
		C452,505.7,450.8,504.3,450.8,502.6z"/>
</g>
<g>
	<path class="st7" d="M458.9,502.6L458.9,502.6c0-1.7,1.3-3.1,3.1-3.1c1.1,0,1.7,0.3,2.3,0.8l-0.8,1c-0.5-0.4-0.9-0.6-1.6-0.6
		c-1,0-1.7,0.8-1.7,1.9l0,0c0,1.1,0.7,1.9,1.8,1.9c0.5,0,0.9-0.1,1.2-0.4v-0.8h-1.3v-1.1h2.6v2.6c-0.6,0.5-1.5,0.9-2.5,0.9
		C460.1,505.7,458.9,504.4,458.9,502.6z"/>
	<path class="st7" d="M465.5,499.6h4.5v1.2h-3.2v1.2h2.8v1.2h-2.8v1.3h3.2v1.2h-4.5V499.6z"/>
	<path class="st7" d="M471,499.6h2.8c0.7,0,1.2,0.2,1.6,0.5c0.3,0.3,0.4,0.6,0.4,1l0,0c0,0.7-0.4,1-0.8,1.3c0.7,0.3,1.1,0.7,1.1,1.5
		l0,0c0,1.1-0.9,1.6-2.2,1.6h-2.8v-5.9H471z M473.5,502c0.6,0,0.9-0.2,0.9-0.6l0,0c0-0.4-0.3-0.6-0.9-0.6h-1.3v1.3h1.3V502z
		 M473.8,504.4c0.6,0,0.9-0.2,0.9-0.6l0,0c0-0.4-0.3-0.6-1-0.6h-1.5v1.3h1.6V504.4z"/>
	<path class="st7" d="M478.9,499.6h1.2l2.5,6h-1.4l-0.5-1.3h-2.5l-0.5,1.3h-1.3L478.9,499.6z M480.3,503.1l-0.8-1.9l-0.8,1.9H480.3z
		"/>
	<path class="st7" d="M483.3,499.6h2.8c0.7,0,1.2,0.2,1.6,0.5c0.3,0.3,0.4,0.6,0.4,1l0,0c0,0.7-0.4,1-0.8,1.3
		c0.7,0.3,1.1,0.7,1.1,1.5l0,0c0,1.1-0.9,1.6-2.2,1.6h-2.8v-5.9H483.3z M485.8,502c0.6,0,0.9-0.2,0.9-0.6l0,0c0-0.4-0.3-0.6-0.9-0.6
		h-1.3v1.3h1.3V502z M486.2,504.4c0.6,0,0.9-0.2,0.9-0.6l0,0c0-0.4-0.3-0.6-1-0.6h-1.5v1.3h1.6V504.4z"/>
	<path class="st7" d="M489.2,499.6h4.5v1.2h-3.2v1.2h2.8v1.2h-2.8v1.3h3.2v1.2h-4.5V499.6z"/>
	<path class="st7" d="M494.7,499.6h2.8c0.7,0,1.2,0.2,1.6,0.5c0.3,0.3,0.4,0.6,0.4,1l0,0c0,0.7-0.4,1-0.8,1.3
		c0.7,0.3,1.1,0.7,1.1,1.5l0,0c0,1.1-0.9,1.6-2.2,1.6h-2.8v-5.9H494.7z M497.2,502c0.6,0,0.9-0.2,0.9-0.6l0,0c0-0.4-0.3-0.6-0.9-0.6
		h-1.3v1.3h1.3V502z M497.5,504.4c0.6,0,0.9-0.2,0.9-0.6l0,0c0-0.4-0.3-0.6-1-0.6h-1.5v1.3h1.6V504.4z"/>
	<path class="st7" d="M500.6,499.6h2.8c0.7,0,1.2,0.2,1.6,0.5c0.3,0.3,0.4,0.6,0.4,1l0,0c0,0.7-0.4,1-0.8,1.3
		c0.7,0.3,1.1,0.7,1.1,1.5l0,0c0,1.1-0.9,1.6-2.2,1.6h-2.8v-5.9H500.6z M503.1,502c0.6,0,0.9-0.2,0.9-0.6l0,0c0-0.4-0.3-0.6-0.9-0.6
		h-1.3v1.3h1.3V502z M503.4,504.4c0.6,0,0.9-0.2,0.9-0.6l0,0c0-0.4-0.3-0.6-1-0.6h-1.5v1.3h1.6V504.4z"/>
</g>
</svg>
