<?xml version="1.0" encoding="utf-8"?>
<!-- Generator: Adobe Illustrator 19.0.0, SVG Export Plug-In . SVG Version: 6.00 Build 0)  -->
<svg version="1.1" id="Calque_1" xmlns="http://www.w3.org/2000/svg" xmlns:xlink="http://www.w3.org/1999/xlink" x="0px" y="0px"
	 viewBox="0 0 595.3 841.9" style="enable-background:new 0 0 595.3 841.9;" xml:space="preserve"  width="596" height="842">
<style type="text/css">
	.st0{clip-path:url(#SVGID_2_);}
	.st1{clip-path:url(#SVGID_4_);}
	.st2{clip-path:url(#SVGID_2_);fill:none;stroke:#196A29;}
	.st3{opacity:8.000180e-002;clip-path:url(#SVGID_8_);}
	.st4{clip-path:url(#SVGID_10_);}
	.st5{clip-path:url(#SVGID_12_);fill:#5A9E3C;}
	.st6{clip-path:url(#SVGID_12_);fill-rule:evenodd;clip-rule:evenodd;fill:#5A9E3C;}
	.st7{clip-path:url(#SVGID_2_);fill:#FFFFFF;}
</style>
<g>
	<defs>
		<rect id="SVGID_1_" width="595.3" height="841.9"/>
	</defs>
	<clipPath id="SVGID_2_">
		<use xlink:href="#SVGID_1_"  style="overflow:visible;"/>
	</clipPath>
	<g class="st0">
		<defs>
			<rect id="SVGID_3_" x="26.6" y="20.7" width="85.4" height="45"/>
		</defs>
		<clipPath id="SVGID_4_">
			<use xlink:href="#SVGID_3_"  style="overflow:visible;"/>
		</clipPath>
		<g class="st1">
			<defs>
				<rect id="SVGID_5_" x="26.6" y="20.7" width="85.4" height="45"/>
			</defs>
			<clipPath id="SVGID_6_">
				<use xlink:href="#SVGID_5_"  style="overflow:visible;"/>
			</clipPath>
			<g style="clip-path:url(#SVGID_6_);">
				
					<image style="overflow:visible;" width="356" height="188" xlink:href="31C9C3DF.png"  transform="matrix(0.24 0 0 0.2392 26.6457 20.6932)">
				</image>
			</g>
		</g>
	</g>
	<line class="st2" x1="102" y1="27.5" x2="566.9" y2="27.5"/>
	<g class="st0">
		<defs>
			<rect id="SVGID_7_" width="595.3" height="841.9"/>
		</defs>
		<clipPath id="SVGID_8_">
			<use xlink:href="#SVGID_7_"  style="overflow:visible;"/>
		</clipPath>
		<g class="st3">
			<g>
				<defs>
					<rect id="SVGID_9_" x="208.1" y="642.5" width="377.4" height="258.4"/>
				</defs>
				<clipPath id="SVGID_10_">
					<use xlink:href="#SVGID_9_"  style="overflow:visible;"/>
				</clipPath>
				<g class="st4">
					<defs>
						<rect id="SVGID_11_" x="209.1" y="643.5" width="375.4" height="256.4"/>
					</defs>
					<clipPath id="SVGID_12_">
						<use xlink:href="#SVGID_11_"  style="overflow:visible;"/>
					</clipPath>
					<path class="st5" d="M350.8,839c-1.9,0.9-5.9,1.9-11.2,1.9c-13.7,0-22-8.6-22-21.7c0-14.2,9.9-22.7,23.1-22.7
						c5.2,0,8.8,1.1,10.4,1.9l-1.7,6.3c-2-0.9-4.9-1.7-8.4-1.7c-8.8,0-15.1,5.5-15.1,15.8c0,9.5,5.5,15.5,15,15.5
						c3.1,0,6.5-0.6,8.6-1.5L350.8,839z"/>
					<polygon class="st5" points="384.4,821.1 368.2,821.1 368.2,833.7 386.3,833.7 386.3,840.2 360.3,840.2 360.3,797.1 
						385.4,797.1 385.4,803.6 368.2,803.6 368.2,814.7 384.4,814.7 					"/>
					<path class="st5" d="M396,797.8c3-0.6,7.3-1,11.9-1c6.2,0,10.3,1,13.3,3.4c2.4,2,3.7,5,3.7,8.7c0,5.6-3.8,9.3-7.9,10.7v0.2
						c3.1,1.1,5,4.2,6,8.3c1.4,5.4,2.6,10.3,3.4,12h-8c-0.6-1.3-1.7-4.8-2.9-10.2c-1.3-5.6-3.3-7.4-7.7-7.5h-4v17.7H396V797.8z
						 M403.8,816.7h4.7c5.3,0,8.6-2.8,8.6-7.1c0-4.7-3.3-6.9-8.4-6.9c-2.5,0-4.1,0.2-4.9,0.4V816.7z"/>
					<polygon class="st5" points="443.7,803.7 431.5,803.7 431.5,797.1 464,797.1 464,803.7 451.6,803.7 451.6,840.2 443.7,840.2 
											"/>
					<path class="st5" d="M531.7,838.2c-2.7,1-8.1,2.4-13.8,2.4c-7.3,0-12.8-1.9-16.9-5.7c-3.8-3.6-6-9.3-6-15.8
						c0.1-13.7,9.7-22.4,24-22.4c5.3,0,9.5,1.1,11.4,2l-1.7,6.3c-2.4-1.1-5.2-1.9-9.8-1.9c-9.2,0-15.6,5.4-15.6,15.5
						c0,9.8,6,15.6,14.9,15.6c2.9,0,4.9-0.4,5.9-0.8v-10.8h-7.6v-6.2h15.2V838.2z"/>
					<path class="st5" d="M542.6,797.8c3-0.6,7.3-1,11.9-1c6.2,0,10.3,1,13.3,3.4c2.4,2,3.7,5,3.7,8.7c0,5.6-3.8,9.3-7.9,10.7v0.2
						c3.1,1.1,5,4.2,6,8.3c1.4,5.4,2.6,10.3,3.4,12h-8.1c-0.6-1.3-1.7-4.8-2.9-10.2c-1.3-5.6-3.3-7.4-7.7-7.5h-4v17.7h-7.8V797.8z
						 M550.4,816.7h4.7c5.3,0,8.6-2.8,8.6-7.1c0-4.7-3.3-6.9-8.4-6.9c-2.5,0-4.1,0.2-4.9,0.4V816.7z"/>
					<polygon class="st5" points="605.8,821.1 589.6,821.1 589.6,833.7 607.7,833.7 607.7,840.2 581.7,840.2 581.7,797.1 
						606.8,797.1 606.8,803.6 589.6,803.6 589.6,814.7 605.8,814.7 					"/>
					<polygon class="st5" points="641.5,821.1 625.3,821.1 625.3,833.7 643.4,833.7 643.4,840.2 617.4,840.2 617.4,797.1 
						642.5,797.1 642.5,803.6 625.3,803.6 625.3,814.7 641.5,814.7 					"/>
					<path class="st5" d="M653.1,840.2v-43.1h9l11.1,18.5c2.8,4.8,5.4,9.8,7.3,14.4h0.1c-0.6-5.7-0.7-11.3-0.7-17.9v-15h7.3v43.1
						h-8.2l-11.2-19c-2.7-4.7-5.6-10-7.7-14.8l-0.3,0.1c0.3,5.6,0.4,11.2,0.4,18.3v15.4H653.1z"/>
					<path class="st6" d="M260.7,765.2c-3,6.9,3,63.6,3,82.5c0,18.9,4.8,28.1,4.8,28.1s1.8-19.5,1.8-42.4
						C270.4,810.4,259.5,763.4,260.7,765.2 M404.9,724.8c4.9,6,9.7,12,14.3,17.7c1.1-6.7,2.9-19.7,2.9-26.7c0-9.7-18.1-8-18.1-8
						L404.9,724.8z M333.3,888.4c0,0,91.9-9.7,121-6.3c29,3.4,81.7,2.9,98,5.7c16.3,2.9,0-12-27.2-11.5
						c-27.2,0.6-62.3-6.3-104.7-3.4c-42.4,2.9-72.6,8.6-80.5,11.5C332.1,887.2,333.3,888.4,333.3,888.4 M331.4,731.5
						c0,0-4.3,29.9,0.9,34.3c5.2,4.4,42.5,0.9,42.5,0.9s5.2-36.9-0.9-37.8C367.8,728,331.4,729.7,331.4,731.5 M497.7,700.2
						c0,0-2.1,14.2,0.4,16.3c2.5,2.1,20.2,0.4,20.2,0.4s2.5-17.6-0.4-18C515.1,698.5,497.7,699.3,497.7,700.2 M237.7,755.4
						c0,0,88.3-53.9,96.8-71.1c8.5-17.2,17.5-21.8,31.5-6.3c5.8,6.4,20.2,23.7,35.2,42.1l-2.5-6.5c0,0-3.6-18.3,1.2-17.8
						c4.8,0.6,29.6,6.9,29.6,6.9v25.1c17.4-14.1,60.2-49.5,65.2-62.7c6.3-16.6,13.1-21,23.6-6.1c10.4,14.9,58.5,90.7,59.4,95.1
						c0.9,4.4-57.6-75.2-64.4-77.4c-6.8-2.2-5-6.1-27.7,16c-17.9,17.5-44.6,37.7-56.2,44.6v18c9,11.4,15.4,19.9,15.7,21.3
						c1.2,4.6-76.8-78-85.9-80.3c-9.1-2.3-6.7-6.3-36.9,16.6c-30.2,22.9-79.2,50.4-82.3,48.7C237.1,760,237.7,755.4,237.7,755.4"/>
					<rect x="475.1" y="797.6" class="st5" width="8.6" height="42.4"/>
					<polygon class="st5" points="471.3,791.6 487.5,791.6 479.4,779.2 					"/>
				</g>
			</g>
		</g>
	</g>
	<rect x="315.5" y="777.3" class="st7" width="279.8" height="64.6"/>
</g>
</svg>
