<?xml version="1.0" encoding="utf-8"?>
<!-- Generator: Adobe Illustrator 16.0.0, SVG Export Plug-In . SVG Version: 6.00 Build 0)  -->
<!DOCTYPE svg PUBLIC "-//W3C//DTD SVG 1.1//EN" "http://www.w3.org/Graphics/SVG/1.1/DTD/svg11.dtd">
<svg version="1.1" id="Calque_1" xmlns:sketch="http://www.bohemiancoding.com/sketch/ns"
	 xmlns="http://www.w3.org/2000/svg" xmlns:xlink="http://www.w3.org/1999/xlink" x="0px" y="0px" width="75px" height="48px"
	 viewBox="24.5 18 430 262" enable-background="new 24.5 18 430 262" xml:space="preserve">
<title></title>
<desc></desc>
<g id="round-rect">
	<g id="maestro_card_payment">
		<g id="logo-2" transform="translate(31.000000, 25.000000)">
			<path id="path618" fill="#4186CD" d="M209.257,217.896c25.315-22.933,41.14-56.074,41.14-92.908
				c0-36.831-15.823-69.945-41.14-92.88C187.107,11.95,157.51-0.318,125.307-0.318C56.059-0.317,0.031,55.782,0.031,124.99
				c0,69.235,56.028,125.333,125.275,125.333C157.506,250.326,187.103,238.031,209.257,217.896"/>
			<path id="path620" fill="#4487CA" d="M209.257,217.896c25.315-22.933,41.14-56.074,41.14-92.908
				c0-36.831-15.823-69.945-41.14-92.88V217.896z"/>
			<path id="path624" fill="#CA4638" d="M293.394-0.314c-32.391,0-61.987,12.268-84.139,32.427
				c-4.468,4.123-8.748,8.552-12.656,13.285h25.314c3.538,4.199,6.703,8.629,9.496,13.262h-44.305
				c-2.605,4.25-5.024,8.679-7.26,13.262h58.82c2.045,4.303,3.723,8.729,5.211,13.285H174.63c-1.488,4.303-2.792,8.732-3.722,13.262
				h76.693c1.861,8.552,2.792,17.435,2.792,26.522c0,13.919-2.235,27.311-6.518,39.809h-69.242
				c1.488,4.553,3.164,8.982,5.211,13.282h58.82c-2.235,4.586-4.469,9.013-7.261,13.265H187.1c2.792,4.635,6.144,9.063,9.496,13.266
				h25.314c-3.908,4.73-8.189,9.16-12.658,13.283c22.15,20.135,51.748,32.43,84.139,32.43c69.06,0,125.089-56.1,125.089-125.333
				C418.483,55.785,362.451-0.314,293.394-0.314"/>
			<path id="path626" fill="#231F20" d="M405.265,194.607h0.56c0.19,0,0.37,0.027,0.37-0.053c0.189-0.102,0.373-0.254,0.373-0.404
				c0-0.156-0.187-0.307-0.373-0.383c0-0.078-0.37-0.056-0.37-0.056h-0.56V194.607L405.265,194.607z M405.265,196.643h-0.743v-3.563
				h1.489c0.37,0,0.557,0,0.93,0.18c0.188,0.203,0.37,0.533,0.37,0.895c0,0.402-0.187,0.765-0.56,0.91l0.56,1.582h-0.93l-0.37-1.426
				h-0.749v1.422H405.265L405.265,196.643z M405.825,197.943c1.677,0,3.165-1.375,3.165-3.082c0-1.709-1.488-3.082-3.165-3.082
				c-1.673,0-2.979,1.373-2.979,3.082C402.846,196.568,404.152,197.943,405.825,197.943L405.825,197.943z M401.73,194.861
				c0-2.242,1.862-4.047,4.095-4.047c2.235,0,4.096,1.805,4.096,4.047c0,2.24-1.862,4.045-4.096,4.045
				C403.593,198.906,401.73,197.104,401.73,194.861L401.73,194.861z"/>
			<path id="path628" fill="#231F20" d="M105.76,159.865H89.935l9.306-48.848l-21.407,48.848H64.802l-2.605-48.568l-10.422,48.568
				H37.441l12.098-63.531h24.76l0.37,39.326l17.126-39.326h26.245L105.76,159.865"/>
			<path id="path630" fill="#231F20" d="M279.802,159.225c-4.281,1.174-7.633,1.682-11.168,1.682
				c-8.004,0-12.288-3.995-12.288-11.352c0-1.451,0-3.002,0.37-4.636l0.93-5.063l0.746-4.072l7.26-39.455h15.45l-2.232,11.861h8.003
				l-2.231,12.548h-8.003l-4.096,21.56c-0.187,0.965-0.187,1.654-0.187,2.139c0,2.672,1.489,3.842,5.211,3.842
				c1.862,0,3.162-0.149,4.282-0.482L279.802,159.225"/>
			<path id="path632" fill="#231F20" d="M218.007,124.509c0,6.542,3.538,11.024,11.911,14.406c6.331,2.599,7.443,3.362,7.443,5.704
				c0,3.234-2.792,4.68-9.116,4.68c-4.654,0-9.122-0.631-14.146-2.059l-2.051,11.936l0.561,0.102l2.979,0.535
				c0.931,0.152,2.235,0.308,4.096,0.457c3.722,0.279,6.7,0.437,8.746,0.437c16.568,0,24.202-5.474,24.202-17.259
				c0-7.076-3.165-11.25-10.984-14.385c-6.7-2.621-7.443-3.183-7.443-5.596c0-2.802,2.605-4.227,7.633-4.227
				c3.162,0,7.443,0.307,11.353,0.791l2.236-11.964c-4.096-0.561-10.239-1.018-13.777-1.018
				C223.964,107.048,217.82,114.99,218.007,124.509"/>
			<path id="path634" fill="#231F20" d="M145.594,136.854c-1.674-0.18-2.419-0.227-3.539-0.227c-8.746,0-13.215,2.645-13.215,7.861
				c0,3.205,2.232,5.271,5.585,5.271C140.753,149.762,145.408,144.492,145.594,136.854L145.594,136.854L145.594,136.854z
				 M156.203,159.865h-13.031l0.374-5.37c-4.096,4.249-9.307,6.261-16.384,6.261c-8.563,0-14.333-5.754-14.333-14.104
				c0-12.598,10.052-19.928,27.361-19.928c1.862,0,4.095,0.123,6.33,0.401c0.557-1.704,0.743-2.441,0.743-3.358
				c0-3.436-2.792-4.709-10.053-4.709c-4.469,0-9.492,0.561-13.03,1.451l-2.05,0.534l-1.489,0.33l2.231-11.604
				c7.817-1.988,12.842-2.749,18.612-2.749c13.4,0,20.478,5.244,20.478,15.17c0,2.545-0.187,4.479-1.303,10.233l-3.165,18.326
				l-0.557,3.281l-0.373,2.621l-0.373,1.809v1.404H156.203z"/>
			<path id="path636" fill="#231F20" d="M199.764,127.994c0-1.066,0.187-1.957,0.187-2.621c0-4.199-2.792-6.671-7.447-6.671
				c-5.023,0-8.563,3.309-9.864,9.263L199.764,127.994L199.764,127.994z M207.394,158.744c-5.397,1.428-10.612,2.111-16.01,2.085
				c-17.496,0-26.433-7.942-26.433-23.136c0-17.741,11.541-30.799,27.178-30.799c12.843,0,21.034,7.305,21.034,18.782
				c0,3.822-0.56,7.507-2.049,12.751h-30.9c-0.187,0.786-0.187,1.146-0.187,1.627c0,5.98,4.655,9.037,13.774,9.037
				c5.584,0,10.611-0.99,16.195-3.26L207.394,158.744L207.394,158.744z"/>
			<path id="path638" fill="#231F20" d="M357.801,130.264c0-5.397-2.232-10.514-8.561-10.514c-8.004,0-12.842,9.419-12.842,17.715
				c0,7,3.349,11.711,8.938,11.604c3.349,0,10.607-4.605,11.91-12.651C357.613,134.563,357.801,132.504,357.801,130.264
				L357.801,130.264z M373.623,136.443c-2.235,17.182-14.334,24.795-30.341,24.795c-17.499,0-24.571-10.689-24.571-23.797
				c0-18.33,11.914-30.724,30.529-30.724c16.192,0,24.76,10.207,24.76,23.318C373.996,133.215,373.996,133.441,373.623,136.443
				L373.623,136.443z"/>
			<path id="path640" fill="#FFFFFF" d="M378.834,151.924h0.558c0,0,0.188,0,0.373-0.076c0.183-0.078,0.187-0.254,0.187-0.408
				c0-0.127,0-0.278-0.187-0.354c0-0.076-0.373-0.076-0.558-0.076h-0.373V151.924L378.834,151.924z M378.834,153.936h-0.745v-3.563
				h1.488c0.188,0,0.561,0.025,0.93,0.206c0.188,0.177,0.37,0.534,0.37,0.892c0,0.379-0.188,0.764-0.557,0.914l0.557,1.553h-0.931
				l-0.56-1.399h-0.553V153.936L378.834,153.936z M379.39,155.232c1.679,0,2.98-1.375,2.98-3.082c0-1.682-1.303-3.055-2.98-3.055
				c-1.673,0-3.162,1.373-3.162,3.055C376.228,153.857,377.719,155.232,379.39,155.232L379.39,155.232z M375.3,152.15
				c0-2.215,1.861-4.021,4.095-4.021c2.235,0,4.095,1.806,4.095,4.021c0,2.24-1.862,4.045-4.095,4.045
				C377.158,156.195,375.3,154.393,375.3,152.15L375.3,152.15z"/>
			<path id="path642" fill="#FFFFFF" d="M109.667,156.195H94.03l9.306-48.844l-21.406,48.844H67.781l-2.604-48.538l-9.307,48.538
				H41.722l12.099-63.53h24.383l1.116,39.353l17.313-39.353h25.314L109.667,156.195"/>
			<path id="path644" fill="#FFFFFF" d="M283.716,155.59c-4.281,1.17-7.634,1.678-11.173,1.678c-8.003,0-12.288-4.02-12.288-11.348
				c0-1.455,0.188-3.002,0.373-4.633l0.931-5.07l0.743-4.1l7.264-39.452h15.45l-2.232,11.861h8.003l-2.234,12.575h-8.004
				l-4.096,21.557c-0.187,0.943-0.187,1.654-0.187,2.141c0,2.676,1.676,3.82,5.396,3.82c1.677,0,2.982-0.154,4.097-0.487
				L283.716,155.59"/>
			<path id="path646" fill="#231F20" d="M323.734,119.366l-0.37-1.627l3.165-8.095c-0.749-0.077-1.119-0.1-1.119-0.15
				c-0.93-0.18-1.303-0.28-1.488-0.28c-0.37-0.103-0.931-0.126-1.486-0.126c-5.211,0-8.749,2.265-13.591,8.375l1.68-9.189h-16.196
				l-9.496,51.593h15.453c2.047-11.838,2.979-18.578,4.282-24.182c2.045-9.291,8.937-13.517,13.96-12.576
				c0.557,0.103,0.93,0.103,1.673,0.383l0.931,0.354L323.734,119.366"/>
			<path id="path648" fill="#FFFFFF" d="M329.133,104.96c-1.304-0.51-1.489-0.51-1.674-0.56c-0.748-0.181-1.306-0.28-1.306-0.307
				c-0.557-0.077-1.116-0.126-1.676-0.126c-5.024,0-8.746,2.291-13.588,8.402l1.489-7.842h-14.146l-9.496,51.67h15.637
				c5.584-31.587,8.004-37.134,15.449-37.134c0.562,0,1.116,0.05,1.863,0.126l1.862,0.38L329.133,104.96"/>
			<path id="path650" fill="#FFFFFF" d="M221.911,120.87c0,6.515,3.723,11.021,12.103,14.405c6.326,2.572,7.261,3.336,7.261,5.705
				c0,3.205-2.792,4.656-8.938,4.656c-4.841,0-9.123-0.639-14.146-2.039l-2.232,11.914l0.743,0.123l2.792,0.508
				c0.93,0.184,2.423,0.334,4.282,0.463c3.722,0.281,6.514,0.432,8.563,0.432c16.749,0,24.384-5.447,24.384-17.23
				c0-7.102-3.162-11.252-11.168-14.382c-6.516-2.622-7.265-3.206-7.265-5.627c0-2.775,2.608-4.2,7.633-4.2
				c3.162,0,7.262,0.28,11.355,0.764l2.232-11.961c-4.096-0.561-10.235-1.021-13.957-1.021
				C228.055,103.382,221.911,111.324,221.911,120.87"/>
			<path id="path652" fill="#FFFFFF" d="M148.946,133.188c-1.676-0.176-2.422-0.203-3.538-0.203c-8.75,0-13.218,2.646-13.218,7.861
				c0,3.209,2.049,5.271,5.584,5.271C144.105,146.119,148.573,140.822,148.946,133.188L148.946,133.188L148.946,133.188z
				 M160.298,156.195h-13.029l0.373-5.342c-3.908,4.244-9.308,6.231-16.383,6.231c-8.378,0-14.147-5.753-14.147-14.103
				c0-12.578,10.052-19.928,27.361-19.928c1.676,0,3.907,0.15,6.327,0.407c0.372-1.708,0.557-2.418,0.557-3.359
				c0-3.412-2.792-4.683-10.053-4.683c-4.469,0-9.495,0.534-12.845,1.424l-2.231,0.561l-1.303,0.333l2.049-11.634
				c7.815-1.984,12.841-2.722,18.611-2.722c13.4,0,20.479,5.243,20.479,15.146c0,2.545-0.188,4.479-1.116,10.229l-3.352,18.355
				l-0.558,3.283l-0.373,2.621l-0.187,1.776L160.298,156.195L160.298,156.195z"/>
			<path id="path654" fill="#FFFFFF" d="M203.113,124.356v-2.648c0-4.199-2.604-6.645-7.261-6.645
				c-5.024,0-8.563,3.282-10.052,9.266L203.113,124.356L203.113,124.356z M211.305,155.102c-5.215,1.401-10.426,2.088-15.826,2.088
				c-17.496,0-26.618-7.94-26.618-23.16c0-17.714,11.538-30.773,27.175-30.773c12.845,0,21.034,7.305,21.034,18.759
				c0,3.819-0.56,7.536-1.866,12.775h-30.896c-0.188,0.791-0.188,1.147-0.188,1.627c0,5.983,4.651,9.04,13.588,9.04
				c5.584,0,10.611-1.021,16.192-3.286L211.305,155.102L211.305,155.102z"/>
			<path id="path656" fill="#FFFFFF" d="M361.521,126.164c0-5.397-2.232-10.511-8.561-10.511c-8.004,0-12.842,9.417-12.842,17.715
				c0,7.024,3.354,11.737,8.938,11.631c3.352,0,10.607-4.606,11.911-12.651C361.339,130.463,361.521,128.404,361.521,126.164
				L361.521,126.164z M377.719,132.785c-2.424,17.178-14.337,24.813-30.342,24.813c-17.686,0-24.759-10.717-24.759-23.826
				c0-18.3,12.099-30.718,30.718-30.718c16.188,0,24.756,10.207,24.756,23.315C378.092,129.572,378.092,129.779,377.719,132.785
				L377.719,132.785z"/>
		</g>
	</g>
</g>
</svg>
