<?xml version="1.0" encoding="utf-8"?>
<!-- Generator: Adobe Illustrator 16.0.0, SVG Export Plug-In . SVG Version: 6.00 Build 0)  -->
<!DOCTYPE svg PUBLIC "-//W3C//DTD SVG 1.1//EN" "http://www.w3.org/Graphics/SVG/1.1/DTD/svg11.dtd">
<svg version="1.1" id="Layer_1" xmlns="http://www.w3.org/2000/svg" xmlns:xlink="http://www.w3.org/1999/xlink" x="0px" y="0px"
	 width="75px" height="48px" viewBox="0 0 327 198" enable-background="new 0 0 327 198" xml:space="preserve">
<g id="Mastercard">
	<g>
		<polygon fill="#F7A826" points="229.795,192.953 234.698,192.826 239.533,192.479 244.277,191.877 248.986,191.053 
			253.564,190.007 258.082,188.738 262.503,187.248 266.828,185.57 271.055,183.668 275.157,181.609 279.129,179.326 
			283.005,176.885 286.72,174.256 290.307,171.466 293.767,168.52 297.069,165.382 300.24,162.117 303.219,158.693 306.038,155.145 
			308.697,151.468 311.162,147.634 313.469,143.701 315.552,139.646 317.473,135.462 319.171,131.186 320.677,126.809 
			321.96,122.342 323.015,117.809 323.848,113.15 324.457,108.459 324.81,103.675 324.937,98.826 324.81,94.008 324.457,89.255 
			323.848,84.564 323.015,79.968 321.96,75.438 320.677,70.998 319.171,66.625 317.473,62.377 315.552,58.229 313.469,54.17 
			311.162,50.271 308.697,46.438 306.038,42.76 303.219,39.242 300.24,35.818 297.069,32.555 293.767,29.449 290.307,26.502 
			286.72,23.714 283.005,21.082 279.129,18.642 275.157,16.392 271.055,14.332 266.828,12.43 262.503,10.75 258.082,9.261 
			253.564,7.992 248.986,6.947 244.277,6.123 239.533,5.521 234.698,5.173 229.795,5.046 224.926,5.173 220.089,5.521 
			215.347,6.123 210.67,6.947 206.091,7.992 201.573,9.261 197.184,10.75 192.86,12.43 188.663,14.332 184.594,16.392 
			180.623,18.642 176.78,21.082 173.062,23.714 169.474,26.502 166.048,29.449 162.749,32.555 159.608,35.818 156.63,39.242 
			153.81,42.76 151.183,46.438 148.716,50.271 146.442,54.17 144.329,58.229 142.436,62.377 140.74,66.625 139.266,70.998 
			137.984,75.438 136.927,79.968 136.094,84.564 135.488,89.255 135.135,94.008 135.007,98.826 135.135,103.675 135.488,108.459 
			136.094,113.15 136.927,117.809 137.984,122.342 139.266,126.809 140.74,131.186 142.436,135.462 144.329,139.646 
			146.442,143.701 148.716,147.634 151.183,151.468 153.81,155.145 156.63,158.693 159.608,162.117 162.749,165.382 166.048,168.52 
			169.474,171.466 173.062,174.256 176.78,176.885 180.623,179.326 184.594,181.609 188.663,183.668 192.86,185.57 197.184,187.248 
			201.573,188.738 206.091,190.007 210.67,191.053 215.347,191.877 220.089,192.479 224.926,192.826 		"/>
		<polygon fill="#ED1C2E" points="102.746,192.953 107.616,192.826 112.453,192.479 117.196,191.877 121.872,191.053 
			126.453,190.007 130.968,188.738 135.357,187.248 139.682,185.57 143.878,183.668 147.948,181.609 151.92,179.326 
			155.764,176.885 159.48,174.256 163.067,171.466 166.495,168.52 169.796,165.382 172.935,162.117 175.914,158.693 
			178.732,155.145 181.359,151.468 183.827,147.634 186.1,143.701 188.215,139.646 190.104,135.462 191.803,131.186 
			193.275,126.809 194.556,122.342 195.616,117.809 196.449,113.15 197.055,108.459 197.41,103.675 197.537,98.826 197.41,94.008 
			197.055,89.255 196.449,84.564 195.616,79.968 194.556,75.438 193.275,70.998 191.803,66.625 190.104,62.377 188.215,58.229 
			186.1,54.17 183.827,50.271 181.359,46.438 178.732,42.76 175.914,39.242 172.935,35.818 169.796,32.555 166.495,29.449 
			163.067,26.502 159.48,23.714 155.764,21.082 151.92,18.642 147.948,16.392 143.878,14.332 139.682,12.43 135.357,10.75 
			130.968,9.261 126.453,7.992 121.872,6.947 117.196,6.123 112.453,5.521 107.616,5.173 102.746,5.046 97.846,5.173 93.01,5.521 
			88.267,6.123 83.557,6.947 78.977,7.992 74.461,9.261 70.04,10.75 65.715,12.43 61.489,14.332 57.386,16.392 53.414,18.642 
			49.539,21.082 45.822,23.714 42.233,26.502 38.774,29.449 35.475,32.555 32.302,35.818 29.323,39.242 26.506,42.76 23.847,46.438 
			21.38,50.271 19.073,54.17 16.989,58.229 15.068,62.377 13.372,66.625 11.865,70.998 10.584,75.438 9.526,79.968 8.696,84.564 
			8.085,89.255 7.733,94.008 7.603,98.826 7.733,103.675 8.085,108.459 8.696,113.15 9.526,117.809 10.584,122.342 11.865,126.809 
			13.372,131.186 15.068,135.462 16.989,139.646 19.073,143.701 21.38,147.634 23.847,151.468 26.506,155.145 29.323,158.693 
			32.302,162.117 35.475,165.382 38.774,168.52 42.233,171.466 45.822,174.256 49.539,176.885 53.414,179.326 57.386,181.609 
			61.489,183.668 65.715,185.57 70.04,187.248 74.461,188.738 78.977,190.007 83.557,191.053 88.267,191.877 93.01,192.479 
			97.846,192.826 		"/>
		<polygon fill="#F7A826" points="155.156,41.08 205.609,41.08 205.609,35.979 159.511,35.979 		"/>
		<polygon fill="#F7A826" points="147.595,52.427 205.609,52.427 205.609,47.324 150.637,47.324 		"/>
		<polygon fill="#F7A826" points="141.957,63.74 205.609,63.74 205.609,58.638 144.2,58.638 		"/>
		<polygon fill="#F7A826" points="138.081,75.086 205.609,75.086 205.609,69.984 139.682,69.984 		"/>
		<polygon fill="#F7A826" points="140.324,129.916 205.77,129.916 205.77,124.814 138.721,124.814 		"/>
		<polygon fill="#F7A826" points="145.161,141.262 205.77,141.262 205.77,136.16 142.759,136.16 		"/>
		<polygon fill="#F7A826" points="151.952,152.578 205.77,152.578 205.77,147.475 148.716,147.475 		"/>
		<polygon fill="#F7A826" points="161.307,163.923 205.77,163.923 205.77,158.789 156.789,158.789 		"/>
		<polygon fill="#F7A826" points="135.806,86.402 205.609,86.402 205.609,81.299 136.799,81.299 		"/>
		<polygon fill="#F7A826" points="178.348,118.604 204.969,118.604 204.969,113.5 179.308,113.5 		"/>
		<polygon fill="#F7A826" points="180.463,107.287 204.969,107.287 204.969,102.152 181.425,102.152 		"/>
		<polygon fill="#F7A826" points="134.045,102.152 140.965,102.152 140.965,107.287 134.366,107.287 		"/>
		<polygon fill="#FFFFFF" points="121.135,95.973 120.684,95.941 120.239,95.877 119.822,95.814 119.406,95.752 119.019,95.689 
			118.604,95.625 118.186,95.563 117.74,95.498 117.291,95.434 116.78,95.402 116.203,95.371 115.594,95.339 114.921,95.339 
			114.183,95.371 113.35,95.434 112.423,95.498 111.781,95.593 111.173,95.689 110.628,95.877 110.146,96.068 109.699,96.289 
			109.283,96.543 108.961,96.861 108.672,97.146 108.48,97.494 108.323,97.843 108.257,98.224 108.257,98.605 108.352,99.016 
			108.48,99.427 108.74,99.84 109.056,100.252 109.699,100.854 110.468,101.33 111.364,101.74 112.325,102.09 113.35,102.406 
			114.407,102.756 115.464,103.136 116.491,103.549 117.452,104.086 118.347,104.752 119.147,105.545 119.822,106.527 
			120.335,107.73 120.656,109.158 120.783,110.869 120.656,112.865 120.429,114.355 120.046,115.654 119.532,116.859 
			118.892,117.904 118.156,118.824 117.323,119.615 116.425,120.314 115.432,120.916 114.407,121.39 113.35,121.803 112.26,122.119 
			111.14,122.373 110.051,122.563 108.994,122.658 107.936,122.722 106.942,122.754 105.564,122.754 104.285,122.722 
			103.164,122.722 102.106,122.689 101.145,122.658 100.282,122.595 99.512,122.531 98.773,122.438 98.101,122.373 97.493,122.246 
			96.885,122.152 96.339,121.992 95.796,121.867 95.282,121.677 94.77,121.486 94.224,121.295 95.667,114.293 95.957,114.355 
			96.308,114.449 96.756,114.578 97.301,114.703 97.878,114.83 98.518,114.957 99.224,115.115 99.993,115.242 100.794,115.369 
			101.627,115.494 102.492,115.592 103.388,115.688 104.316,115.719 105.246,115.75 106.175,115.75 107.103,115.719 
			108.034,115.527 108.768,115.273 109.345,114.925 109.794,114.482 110.114,114.039 110.372,113.529 110.532,113.023 
			110.661,112.549 110.722,111.63 110.434,110.838 109.891,110.203 109.091,109.664 108.13,109.189 107.008,108.714 
			105.758,108.271 104.508,107.764 103.227,107.193 102.01,106.527 100.888,105.701 99.864,104.72 99.061,103.516 98.485,102.09 
			98.198,100.377 98.23,98.35 98.389,97.113 98.616,95.941 98.936,94.863 99.318,93.85 99.831,92.898 100.409,92.074 
			101.082,91.283 101.882,90.586 102.812,89.984 103.837,89.479 104.989,89 106.27,88.652 107.713,88.367 109.283,88.146 
			111.011,88.018 112.905,87.986 114.087,87.986 115.176,88.018 116.17,88.05 117.067,88.082 117.868,88.146 118.604,88.209 
			119.244,88.271 119.822,88.334 120.367,88.398 120.814,88.492 121.231,88.557 121.616,88.619 121.935,88.684 122.225,88.715 
			122.511,88.779 122.768,88.813 		"/>
		<polyline fill="none" stroke="#FFFFFF" stroke-width="0.216" stroke-miterlimit="2.6131" points="121.135,95.973 121.135,95.973 
			120.684,95.941 120.239,95.877 119.822,95.814 119.406,95.752 119.019,95.689 118.604,95.625 118.186,95.563 117.74,95.498 
			117.291,95.434 116.78,95.402 116.203,95.371 115.594,95.339 114.921,95.339 114.183,95.371 113.35,95.434 112.423,95.498 
			112.423,95.498 111.781,95.593 111.173,95.689 110.628,95.877 110.146,96.068 109.699,96.289 109.283,96.543 108.961,96.861 
			108.672,97.146 108.48,97.494 108.323,97.843 108.257,98.224 108.257,98.605 108.352,99.016 108.48,99.427 108.74,99.84 
			109.056,100.252 109.056,100.252 109.699,100.854 110.468,101.33 111.364,101.74 112.325,102.09 113.35,102.406 114.407,102.756 
			115.464,103.136 116.491,103.549 117.452,104.086 118.347,104.752 119.147,105.545 119.822,106.527 120.335,107.73 
			120.656,109.158 120.783,110.869 120.656,112.865 120.656,112.865 120.429,114.355 120.046,115.654 119.532,116.859 
			118.892,117.904 118.156,118.824 117.323,119.615 116.425,120.314 115.432,120.916 114.407,121.39 113.35,121.803 112.26,122.119 
			111.14,122.373 110.051,122.563 108.994,122.658 107.936,122.722 106.942,122.754 106.942,122.754 105.564,122.754 
			104.285,122.722 103.164,122.722 102.106,122.689 101.145,122.658 100.282,122.595 99.512,122.531 98.773,122.438 98.101,122.373 
			97.493,122.246 96.885,122.152 96.339,121.992 95.796,121.867 95.282,121.677 94.77,121.486 94.224,121.295 95.667,114.293 
			95.667,114.293 95.957,114.355 96.308,114.449 96.756,114.578 97.301,114.703 97.878,114.83 98.518,114.957 99.224,115.115 
			99.993,115.242 100.794,115.369 101.627,115.494 102.492,115.592 103.388,115.688 104.316,115.719 105.246,115.75 106.175,115.75 
			107.103,115.719 107.103,115.719 108.034,115.527 108.768,115.273 109.345,114.925 109.794,114.482 110.114,114.039 
			110.372,113.529 110.532,113.023 110.661,112.549 110.661,112.549 110.722,111.63 110.434,110.838 109.891,110.203 
			109.091,109.664 108.13,109.189 107.008,108.714 105.758,108.271 104.508,107.764 103.227,107.193 102.01,106.527 
			100.888,105.701 99.864,104.72 99.061,103.516 98.485,102.09 98.198,100.377 98.23,98.35 98.23,98.35 98.389,97.113 
			98.616,95.941 98.936,94.863 99.318,93.85 99.831,92.898 100.409,92.074 101.082,91.283 101.882,90.586 102.812,89.984 
			103.837,89.479 104.989,89 106.27,88.652 107.713,88.367 109.283,88.146 111.011,88.018 112.905,87.986 112.905,87.986 
			114.087,87.986 115.176,88.018 116.17,88.05 117.067,88.082 117.868,88.146 118.604,88.209 119.244,88.271 119.822,88.334 
			120.367,88.398 120.814,88.492 121.231,88.557 121.616,88.619 121.935,88.684 122.225,88.715 122.511,88.779 122.768,88.813 
			121.135,95.973 		"/>
		<polygon fill="#FFFFFF" points="128.727,80.982 137.6,80.982 136.287,88.652 141.637,88.652 140.482,95.814 134.845,95.656 
			131.77,113.341 131.739,113.974 131.898,114.513 132.219,114.925 132.635,115.273 133.211,115.494 133.854,115.688 
			134.555,115.813 135.326,115.875 136.031,115.844 136.671,115.781 137.25,115.688 137.76,115.561 138.177,115.433 
			138.466,115.338 138.658,115.273 138.721,115.242 137.6,121.138 137.377,121.295 137.151,121.423 136.927,121.549 
			136.703,121.677 136.479,121.771 136.222,121.867 135.934,121.962 135.645,122.057 135.326,122.152 135.007,122.214 
			134.623,122.277 134.239,122.342 133.822,122.404 133.34,122.468 132.827,122.531 132.283,122.595 129.847,122.595 128.565,122.5 
			127.448,122.373 126.42,122.183 125.554,121.962 124.818,121.677 124.21,121.359 123.665,120.979 123.249,120.566 
			122.929,120.123 122.704,119.584 122.544,119.045 122.448,118.443 122.416,117.779 122.416,117.08 122.511,116.354 
			122.607,115.561 		"/>
		<polyline fill="none" stroke="#FFFFFF" stroke-width="0.216" stroke-miterlimit="2.6131" points="128.727,80.982 137.6,80.982 
			136.287,88.652 141.637,88.652 140.482,95.814 134.845,95.656 131.77,113.341 131.77,113.341 131.739,113.974 131.898,114.513 
			132.219,114.925 132.635,115.273 133.211,115.494 133.854,115.688 134.555,115.813 135.326,115.875 135.326,115.875 
			136.031,115.844 136.671,115.781 137.25,115.688 137.76,115.561 138.177,115.433 138.466,115.338 138.658,115.273 
			138.721,115.242 137.6,121.138 137.6,121.138 137.377,121.295 137.151,121.423 136.927,121.549 136.703,121.677 136.479,121.771 
			136.222,121.867 135.934,121.962 135.645,122.057 135.326,122.152 135.007,122.214 134.623,122.277 134.239,122.342 
			133.822,122.404 133.34,122.468 132.827,122.531 132.283,122.595 129.847,122.595 129.847,122.595 128.565,122.5 127.448,122.373 
			126.42,122.183 125.554,121.962 124.818,121.677 124.21,121.359 123.665,120.979 123.249,120.566 122.929,120.123 
			122.704,119.584 122.544,119.045 122.448,118.443 122.416,117.779 122.416,117.08 122.511,116.354 122.607,115.561 
			128.727,80.982 		"/>
		<polygon fill="#FFFFFF" points="148.716,107.764 148.619,108.301 148.59,108.871 148.652,109.475 148.781,110.076 
			149.005,110.679 149.261,111.25 149.614,111.851 149.997,112.39 150.447,112.929 150.927,113.404 151.439,113.88 152.016,114.26 
			152.593,114.609 153.233,114.895 153.874,115.115 154.515,115.242 155.347,115.369 156.148,115.464 156.98,115.561 
			157.813,115.623 158.646,115.654 159.511,115.654 160.344,115.623 161.211,115.561 162.077,115.433 162.94,115.273 
			163.837,115.084 164.703,114.799 165.597,114.449 166.526,114.07 167.424,113.563 168.353,113.023 167.073,120.82 
			166.559,121.074 166.048,121.326 165.535,121.52 165.053,121.707 164.574,121.867 164.06,122.023 163.548,122.152 
			163.003,122.246 162.427,122.342 161.788,122.404 161.115,122.468 160.377,122.531 159.546,122.563 158.679,122.563 
			157.685,122.595 156.63,122.595 155.059,122.563 153.458,122.404 151.855,122.183 150.255,121.803 148.685,121.326 
			147.177,120.725 145.739,119.934 144.392,119.014 143.142,117.938 142.052,116.638 141.126,115.179 140.355,113.5 139.809,111.63 
			139.459,109.506 139.364,107.16 139.523,104.563 139.65,103.549 139.844,102.375 140.097,101.139 140.453,99.807 140.933,98.445 
			141.51,97.082 142.245,95.689 143.142,94.357 144.167,93.089 145.417,91.885 146.827,90.807 148.428,89.857 150.285,89.064 
			152.369,88.492 154.675,88.113 157.268,87.986 158.517,88.018 159.834,88.146 161.144,88.367 162.461,88.684 163.741,89.158 
			164.991,89.73 166.143,90.49 167.201,91.377 168.162,92.455 168.962,93.723 169.602,95.181 170.052,96.861 170.307,98.762 
			170.34,100.916 170.116,103.326 169.635,105.988 169.474,107.921 146.121,107.921 147.595,101.677 161.626,101.677 
			161.691,100.886 161.659,100.125 161.594,99.427 161.467,98.795 161.241,98.191 161.017,97.652 160.698,97.177 160.377,96.734 
			159.993,96.354 159.576,96.035 159.095,95.752 158.616,95.498 158.103,95.307 157.59,95.181 157.046,95.086 156.469,95.021 
			155.86,95.054 155.285,95.148 154.739,95.275 154.196,95.466 153.649,95.719 153.169,96.005 152.688,96.354 152.272,96.734 
			151.855,97.177 151.471,97.652 151.119,98.158 150.832,98.699 150.543,99.271 150.318,99.904 150.127,100.537 149.997,101.201 		
			"/>
		<polyline fill="none" stroke="#FFFFFF" stroke-width="0.216" stroke-miterlimit="2.6131" points="148.716,107.764 
			148.716,107.764 148.619,108.301 148.59,108.871 148.652,109.475 148.781,110.076 149.005,110.679 149.261,111.25 
			149.614,111.851 149.997,112.39 150.447,112.929 150.927,113.404 151.439,113.88 152.016,114.26 152.593,114.609 153.233,114.895 
			153.874,115.115 154.515,115.242 154.515,115.242 155.347,115.369 156.148,115.464 156.98,115.561 157.813,115.623 
			158.646,115.654 159.511,115.654 160.344,115.623 161.211,115.561 162.077,115.433 162.94,115.273 163.837,115.084 
			164.703,114.799 165.597,114.449 166.526,114.07 167.424,113.563 168.353,113.023 167.073,120.82 167.073,120.82 166.559,121.074 
			166.048,121.326 165.535,121.52 165.053,121.707 164.574,121.867 164.06,122.023 163.548,122.152 163.003,122.246 
			162.427,122.342 161.788,122.404 161.115,122.468 160.377,122.531 159.546,122.563 158.679,122.563 157.685,122.595 
			156.63,122.595 156.63,122.595 155.059,122.563 153.458,122.404 151.855,122.183 150.255,121.803 148.685,121.326 
			147.177,120.725 145.739,119.934 144.392,119.014 143.142,117.938 142.052,116.638 141.126,115.179 140.355,113.5 139.809,111.63 
			139.459,109.506 139.364,107.16 139.523,104.563 139.523,104.563 139.65,103.549 139.844,102.375 140.097,101.139 140.453,99.807 
			140.933,98.445 141.51,97.082 142.245,95.689 143.142,94.357 144.167,93.089 145.417,91.885 146.827,90.807 148.428,89.857 
			150.285,89.064 152.369,88.492 154.675,88.113 157.268,87.986 157.268,87.986 158.517,88.018 159.834,88.146 161.144,88.367 
			162.461,88.684 163.741,89.158 164.991,89.73 166.143,90.49 167.201,91.377 168.162,92.455 168.962,93.723 169.602,95.181 
			170.052,96.861 170.307,98.762 170.34,100.916 170.116,103.326 169.635,105.988 169.474,107.921 146.121,107.921 147.595,101.677 
			161.626,101.677 161.626,101.677 161.691,100.886 161.659,100.125 161.594,99.427 161.467,98.795 161.241,98.191 161.017,97.652 
			160.698,97.177 160.377,96.734 159.993,96.354 159.576,96.035 159.095,95.752 158.616,95.498 158.103,95.307 157.59,95.181 
			157.046,95.086 156.469,95.021 156.469,95.021 155.86,95.054 155.285,95.148 154.739,95.275 154.196,95.466 153.649,95.719 
			153.169,96.005 152.688,96.354 152.272,96.734 151.855,97.177 151.471,97.652 151.119,98.158 150.832,98.699 150.543,99.271 
			150.318,99.904 150.127,100.537 149.997,101.201 148.716,107.764 		"/>
		<polygon fill="#FFFFFF" points="225.118,90.554 224.702,90.332 224.286,90.142 223.838,89.92 223.358,89.697 222.877,89.508 
			222.331,89.318 221.787,89.127 221.21,88.938 220.601,88.779 219.993,88.652 219.322,88.525 218.649,88.431 217.911,88.367 
			217.173,88.304 216.406,88.304 215.605,88.304 214.803,88.304 213.969,88.367 213.105,88.462 212.21,88.619 211.31,88.873 
			210.416,89.223 209.517,89.666 208.62,90.236 207.757,90.934 206.923,91.758 206.122,92.771 205.352,93.945 204.648,95.339 
			203.974,96.924 203.368,98.699 202.855,100.729 202.663,101.867 202.534,102.979 202.469,104.086 202.503,105.164 202.598,106.24 
			202.823,107.256 203.11,108.205 203.463,109.158 203.943,110.014 204.519,110.838 205.192,111.566 205.961,112.23 
			206.828,112.801 207.821,113.277 208.91,113.689 210.128,113.974 210.543,114.07 211.024,114.164 211.598,114.229 
			212.241,114.293 212.946,114.355 213.681,114.355 214.485,114.355 215.284,114.293 216.117,114.195 216.95,114.039 
			217.75,113.816 218.552,113.563 219.351,113.214 220.089,112.801 220.761,112.295 221.403,111.725 219.962,120.188 
			219.769,120.345 219.577,120.533 219.322,120.757 219.033,120.947 218.678,121.201 218.23,121.423 217.719,121.645 
			217.141,121.834 216.406,122.057 215.573,122.214 214.613,122.342 213.49,122.468 212.241,122.531 210.8,122.563 209.164,122.531 
			207.371,122.438 205.897,122.277 204.424,121.962 202.951,121.486 201.476,120.854 200.067,120.092 198.722,119.14 
			197.44,118.031 196.256,116.764 195.199,115.338 194.302,113.752 193.533,111.979 192.957,110.045 192.573,107.921 
			192.443,105.671 192.508,103.199 192.86,100.57 193.115,99.271 193.405,98.002 193.724,96.766 194.045,95.593 194.397,94.484 
			194.812,93.373 195.23,92.328 195.677,91.346 196.161,90.363 196.64,89.445 197.184,88.557 197.76,87.732 198.337,86.941 
			198.979,86.18 199.619,85.482 200.291,84.818 201.029,84.184 201.765,83.58 202.534,83.043 203.336,82.535 204.201,82.059 
			205.064,81.648 205.961,81.268 206.89,80.918 207.885,80.604 208.877,80.348 209.901,80.127 210.992,79.938 212.08,79.777 
			213.236,79.65 214.387,79.588 215.605,79.556 216.63,79.588 217.623,79.65 218.583,79.744 219.545,79.873 220.443,80 
			221.306,80.189 222.139,80.348 222.908,80.537 223.644,80.729 224.286,80.918 224.894,81.109 225.408,81.299 225.855,81.457 
			226.24,81.584 226.53,81.711 226.719,81.775 		"/>
		<polyline fill="none" stroke="#FFFFFF" stroke-width="0.216" stroke-miterlimit="2.6131" points="225.118,90.554 225.118,90.554 
			224.702,90.332 224.286,90.142 223.838,89.92 223.358,89.697 222.877,89.508 222.331,89.318 221.787,89.127 221.21,88.938 
			220.601,88.779 219.993,88.652 219.322,88.525 218.649,88.431 217.911,88.367 217.173,88.304 216.406,88.304 215.605,88.304 
			215.605,88.304 214.803,88.304 213.969,88.367 213.105,88.462 212.21,88.619 211.31,88.873 210.416,89.223 209.517,89.666 
			208.62,90.236 207.757,90.934 206.923,91.758 206.122,92.771 205.352,93.945 204.648,95.339 203.974,96.924 203.368,98.699 
			202.855,100.729 202.855,100.729 202.663,101.867 202.534,102.979 202.469,104.086 202.503,105.164 202.598,106.24 
			202.823,107.256 203.11,108.205 203.463,109.158 203.943,110.014 204.519,110.838 205.192,111.566 205.961,112.23 
			206.828,112.801 207.821,113.277 208.91,113.689 210.128,113.974 210.128,113.974 210.543,114.07 211.024,114.164 
			211.598,114.229 212.241,114.293 212.946,114.355 213.681,114.355 214.485,114.355 215.284,114.293 216.117,114.195 
			216.95,114.039 217.75,113.816 218.552,113.563 219.351,113.214 220.089,112.801 220.761,112.295 221.403,111.725 
			219.962,120.188 219.962,120.188 219.769,120.345 219.577,120.533 219.322,120.757 219.033,120.947 218.678,121.201 
			218.23,121.423 217.719,121.645 217.141,121.834 216.406,122.057 215.573,122.214 214.613,122.342 213.49,122.468 
			212.241,122.531 210.8,122.563 209.164,122.531 207.371,122.438 207.371,122.438 205.897,122.277 204.424,121.962 
			202.951,121.486 201.476,120.854 200.067,120.092 198.722,119.14 197.44,118.031 196.256,116.764 195.199,115.338 
			194.302,113.752 193.533,111.979 192.957,110.045 192.573,107.921 192.443,105.671 192.508,103.199 192.86,100.57 192.86,100.57 
			193.115,99.271 193.405,98.002 193.724,96.766 194.045,95.593 194.397,94.484 194.812,93.373 195.23,92.328 195.677,91.346 
			196.161,90.363 196.64,89.445 197.184,88.557 197.76,87.732 198.337,86.941 198.979,86.18 199.619,85.482 200.291,84.818 
			201.029,84.184 201.765,83.58 202.534,83.043 203.336,82.535 204.201,82.059 205.064,81.648 205.961,81.268 206.89,80.918 
			207.885,80.604 208.877,80.348 209.901,80.127 210.992,79.938 212.08,79.777 213.236,79.65 214.387,79.588 215.605,79.556 
			215.605,79.556 216.63,79.588 217.623,79.65 218.583,79.744 219.545,79.873 220.443,80 221.306,80.189 222.139,80.348 
			222.908,80.537 223.644,80.729 224.286,80.918 224.894,81.109 225.408,81.299 225.855,81.457 226.24,81.584 226.53,81.711 
			226.719,81.775 225.118,90.554 		"/>
		<polygon fill="#FFFFFF" points="303.988,122.595 295.114,122.595 295.754,119.078 295.754,118.76 295.241,119.395 
			294.698,119.964 294.154,120.473 293.577,120.916 293,121.326 292.423,121.677 291.846,121.962 291.238,122.246 290.63,122.468 
			290.019,122.627 289.412,122.785 288.771,122.881 288.13,122.976 287.521,123.039 286.881,123.072 286.24,123.072 
			284.575,122.943 283.037,122.595 281.627,122.057 280.346,121.326 279.193,120.408 278.166,119.332 277.269,118.158 
			276.502,116.828 275.862,115.4 275.348,113.912 274.996,112.359 274.739,110.742 274.642,109.125 274.676,107.479 
			274.836,105.861 275.126,104.244 275.605,102.375 276.182,100.6 276.855,98.984 277.656,97.463 278.489,96.035 279.448,94.77 
			280.444,93.629 281.499,92.582 282.621,91.662 283.804,90.869 285.025,90.174 286.24,89.635 287.521,89.191 288.802,88.906 
			290.085,88.715 291.399,88.652 292.327,88.684 293.222,88.779 294.055,88.938 294.825,89.158 295.562,89.412 296.203,89.697 
			296.844,90.047 297.421,90.396 297.932,90.775 298.413,91.188 298.829,91.599 299.215,92.012 299.534,92.424 299.823,92.834 
			300.079,93.216 300.271,93.597 300.271,93.597 302.513,81.141 311.226,81.141 		"/>
		<polyline fill="none" stroke="#FFFFFF" stroke-width="0.216" stroke-miterlimit="2.6131" points="303.988,122.595 
			295.114,122.595 295.754,119.078 295.754,118.76 295.754,118.76 295.241,119.395 294.698,119.964 294.154,120.473 
			293.577,120.916 293,121.326 292.423,121.677 291.846,121.962 291.238,122.246 290.63,122.468 290.019,122.627 289.412,122.785 
			288.771,122.881 288.13,122.976 287.521,123.039 286.881,123.072 286.24,123.072 286.24,123.072 284.575,122.943 283.037,122.595 
			281.627,122.057 280.346,121.326 279.193,120.408 278.166,119.332 277.269,118.158 276.502,116.828 275.862,115.4 
			275.348,113.912 274.996,112.359 274.739,110.742 274.642,109.125 274.676,107.479 274.836,105.861 275.126,104.244 
			275.126,104.244 275.605,102.375 276.182,100.6 276.855,98.984 277.656,97.463 278.489,96.035 279.448,94.77 280.444,93.629 
			281.499,92.582 282.621,91.662 283.804,90.869 285.025,90.174 286.24,89.635 287.521,89.191 288.802,88.906 290.085,88.715 
			291.399,88.652 291.399,88.652 292.327,88.684 293.222,88.779 294.055,88.938 294.825,89.158 295.562,89.412 296.203,89.697 
			296.844,90.047 297.421,90.396 297.932,90.775 298.413,91.188 298.829,91.599 299.215,92.012 299.534,92.424 299.823,92.834 
			300.079,93.216 300.271,93.597 300.271,93.597 302.513,81.141 311.226,81.141 303.988,122.595 		"/>
		<polygon fill="#FCB331" points="289.476,114.925 290.373,114.863 291.206,114.673 291.974,114.449 292.711,114.101 
			293.384,113.721 294.026,113.246 294.633,112.707 295.177,112.136 295.658,111.502 296.109,110.805 296.524,110.076 
			296.876,109.316 297.197,108.523 297.452,107.699 297.676,106.844 297.837,105.988 297.997,105.1 298.093,104.181 
			298.093,103.326 298.06,102.439 297.966,101.615 297.837,100.822 297.614,100.063 297.355,99.332 297.036,98.699 296.653,98.096 
			296.236,97.589 295.754,97.146 295.21,96.766 294.633,96.512 294.026,96.354 293.353,96.289 292.488,96.354 291.687,96.48 
			290.949,96.734 290.212,97.051 289.572,97.463 288.931,97.971 288.386,98.509 287.842,99.111 287.362,99.807 286.913,100.537 
			286.497,101.297 286.144,102.121 285.824,102.979 285.569,103.832 285.31,104.752 285.12,105.671 284.96,107.066 285.025,108.587 
			285.248,110.14 285.664,111.63 286.303,112.929 287.137,113.974 288.196,114.673 		"/>
		<polygon fill="#FFFFFF" points="92.751,115.561 91.47,122.595 83.398,122.595 83.623,121.295 83.784,120.123 83.911,119.236 
			84.038,118.76 83.591,119.27 83.078,119.773 82.469,120.25 81.798,120.693 81.027,121.138 80.226,121.52 79.393,121.898 
			78.53,122.214 77.599,122.5 76.671,122.722 75.743,122.912 74.782,123.039 73.851,123.104 72.924,123.134 72.025,123.039 
			71.162,122.912 70.04,122.627 69.014,122.313 68.119,121.898 67.318,121.423 66.614,120.916 65.971,120.345 65.46,119.742 
			65.009,119.109 64.626,118.443 64.306,117.744 64.05,117.049 63.856,116.354 63.728,115.623 63.633,114.895 63.568,114.195 
			63.568,113.5 63.664,112.264 63.856,111.09 64.177,109.98 64.594,108.904 65.105,107.89 65.683,106.971 66.355,106.084 
			67.127,105.291 67.926,104.563 68.823,103.896 69.752,103.295 70.713,102.787 71.739,102.345 72.795,101.994 73.885,101.709 
			75.005,101.521 75.071,101.521 75.229,101.486 75.455,101.455 75.805,101.425 76.189,101.361 76.638,101.33 77.119,101.266 
			77.665,101.201 78.21,101.139 78.754,101.076 79.331,101.045 79.843,100.98 80.354,100.949 80.834,100.916 81.284,100.886 
			81.636,100.886 82.374,100.886 83.141,100.916 83.846,100.949 84.552,100.949 85.129,100.98 85.577,101.012 85.896,101.045 
			85.993,101.045 86.057,100.822 86.25,100.252 86.41,99.586 86.473,98.984 86.345,98.285 86.057,97.652 85.674,97.082 
			85.162,96.607 84.552,96.195 83.879,95.91 83.113,95.719 82.275,95.656 81.382,95.625 80.42,95.593 79.427,95.593 78.399,95.625 
			77.343,95.689 76.321,95.781 75.294,95.877 74.3,96.005 73.34,96.132 72.411,96.289 71.579,96.449 70.809,96.607 70.104,96.798 
			69.53,96.986 69.08,97.209 68.726,97.398 71.003,89.761 71.705,89.479 72.411,89.223 73.178,89 73.948,88.842 74.716,88.684 
			75.551,88.557 76.383,88.431 77.247,88.367 78.145,88.304 79.073,88.271 80.035,88.24 81.027,88.24 82.054,88.24 83.113,88.24 
			84.23,88.271 85.352,88.304 86.25,88.367 87.211,88.525 88.203,88.746 89.228,89.031 90.221,89.412 91.182,89.857 92.144,90.396 
			93.041,90.996 93.841,91.695 94.547,92.455 95.185,93.313 95.667,94.262 95.989,95.275 96.18,96.354 96.18,97.558 95.989,98.826 
					"/>
		<polyline fill="none" stroke="#FFFFFF" stroke-width="0.216" stroke-miterlimit="2.6131" points="92.751,115.561 91.47,122.595 
			83.398,122.595 83.398,122.595 83.623,121.295 83.784,120.123 83.911,119.236 84.038,118.76 84.038,118.76 83.591,119.27 
			83.078,119.773 82.469,120.25 81.798,120.693 81.027,121.138 80.226,121.52 79.393,121.898 78.53,122.214 77.599,122.5 
			76.671,122.722 75.743,122.912 74.782,123.039 73.851,123.104 72.924,123.134 72.025,123.039 71.162,122.912 71.162,122.912 
			70.04,122.627 69.014,122.313 68.119,121.898 67.318,121.423 66.614,120.916 65.971,120.345 65.46,119.742 65.009,119.109 
			64.626,118.443 64.306,117.744 64.05,117.049 63.856,116.354 63.728,115.623 63.633,114.895 63.568,114.195 63.568,113.5 
			63.568,113.5 63.664,112.264 63.856,111.09 64.177,109.98 64.594,108.904 65.105,107.89 65.683,106.971 66.355,106.084 
			67.127,105.291 67.926,104.563 68.823,103.896 69.752,103.295 70.713,102.787 71.739,102.345 72.795,101.994 73.885,101.709 
			75.005,101.521 75.005,101.521 75.071,101.521 75.229,101.486 75.455,101.455 75.805,101.425 76.189,101.361 76.638,101.33 
			77.119,101.266 77.665,101.201 78.21,101.139 78.754,101.076 79.331,101.045 79.843,100.98 80.354,100.949 80.834,100.916 
			81.284,100.886 81.636,100.886 81.636,100.886 82.374,100.886 83.141,100.916 83.846,100.949 84.552,100.949 85.129,100.98 
			85.577,101.012 85.896,101.045 85.993,101.045 85.993,101.045 86.057,100.822 86.25,100.252 86.41,99.586 86.473,98.984 
			86.473,98.984 86.345,98.285 86.057,97.652 85.674,97.082 85.162,96.607 84.552,96.195 83.879,95.91 83.113,95.719 82.275,95.656 
			82.275,95.656 81.382,95.625 80.42,95.593 79.427,95.593 78.399,95.625 77.343,95.689 76.321,95.781 75.294,95.877 74.3,96.005 
			73.34,96.132 72.411,96.289 71.579,96.449 70.809,96.607 70.104,96.798 69.53,96.986 69.08,97.209 68.726,97.398 71.003,89.761 
			71.003,89.761 71.705,89.479 72.411,89.223 73.178,89 73.948,88.842 74.716,88.684 75.551,88.557 76.383,88.431 77.247,88.367 
			78.145,88.304 79.073,88.271 80.035,88.24 81.027,88.24 82.054,88.24 83.113,88.24 84.23,88.271 85.352,88.304 85.352,88.304 
			86.25,88.367 87.211,88.525 88.203,88.746 89.228,89.031 90.221,89.412 91.182,89.857 92.144,90.396 93.041,90.996 93.841,91.695 
			94.547,92.455 95.185,93.313 95.667,94.262 95.989,95.275 96.18,96.354 96.18,97.558 95.989,98.826 92.751,115.561 		"/>
		<polygon fill="#ED1C2E" points="85.032,107.287 84.999,107.13 84.872,106.971 84.679,106.875 84.359,106.813 84.008,106.748 
			83.591,106.716 83.113,106.716 82.631,106.716 82.117,106.748 81.573,106.813 81.059,106.875 80.547,106.939 80.065,107.002 
			79.619,107.099 79.234,107.193 78.882,107.287 78.657,107.351 78.399,107.445 78.049,107.572 77.698,107.73 77.281,107.921 
			76.864,108.145 76.416,108.365 75.998,108.619 75.551,108.936 75.133,109.252 74.749,109.633 74.396,110.014 74.076,110.426 
			73.851,110.869 73.659,111.375 73.562,111.883 73.532,112.959 73.692,113.816 74.013,114.449 74.427,114.925 74.908,115.242 
			75.455,115.433 75.967,115.527 76.478,115.561 77.439,115.527 78.303,115.433 79.138,115.305 79.874,115.115 80.515,114.895 
			81.123,114.609 81.668,114.324 82.149,113.974 82.565,113.658 82.951,113.277 83.268,112.929 83.526,112.549 83.75,112.168 
			83.942,111.787 84.102,111.439 84.199,111.09 84.456,110.172 84.679,109.125 84.872,108.111 		"/>
		<polygon fill="#FFFFFF" points="25.351,122.595 16.638,122.595 23.911,80.982 39.063,80.982 40.504,105.671 50.979,80.982 
			66.804,80.982 59.373,122.595 50.659,122.595 56.169,91.505 55.815,91.505 42.78,122.595 32.943,122.595 32.88,121.295 
			32.656,117.841 32.369,112.929 32.047,107.287 31.727,101.615 31.438,96.639 31.216,93.025 31.15,91.505 31.052,91.505 
			30.863,91.505 30.671,91.505 30.671,91.505 		"/>
		<polyline fill="none" stroke="#FFFFFF" stroke-width="0.216" stroke-miterlimit="2.6131" points="25.351,122.595 16.638,122.595 
			23.911,80.982 39.063,80.982 40.504,105.671 50.979,80.982 66.804,80.982 59.373,122.595 50.659,122.595 56.169,91.505 
			55.815,91.505 42.78,122.595 32.943,122.595 32.943,122.595 32.88,121.295 32.656,117.841 32.369,112.929 32.047,107.287 
			31.727,101.615 31.438,96.639 31.216,93.025 31.15,91.505 31.15,91.505 31.052,91.505 30.863,91.505 30.671,91.505 30.671,91.505 
			25.351,122.595 		"/>
		<polygon fill="#FFFFFF" points="251.74,115.561 250.427,122.595 242.385,122.595 242.449,121.295 242.484,120.154 
			242.484,119.299 242.545,118.918 242.129,119.395 241.65,119.869 241.073,120.314 240.43,120.757 239.759,121.168 
			238.989,121.549 238.189,121.929 237.388,122.246 236.524,122.5 235.627,122.754 234.728,122.912 233.832,123.039 
			232.904,123.104 232.006,123.134 231.139,123.039 230.277,122.912 229.123,122.627 228.097,122.313 227.202,121.898 
			226.368,121.423 225.663,120.916 225.054,120.345 224.541,119.742 224.094,119.109 223.71,118.443 223.421,117.744 
			223.165,117.049 223.004,116.354 222.877,115.623 222.781,114.895 222.716,114.195 222.716,113.5 222.781,112.264 222.972,111.09 
			223.26,109.98 223.677,108.904 224.157,107.89 224.766,106.971 225.439,106.084 226.176,105.291 227.01,104.563 227.874,103.896 
			228.802,103.295 229.795,102.787 230.789,102.345 231.845,101.994 232.904,101.709 233.993,101.521 234.055,101.521 
			234.217,101.486 234.439,101.455 234.761,101.425 235.177,101.361 235.627,101.33 236.108,101.266 236.618,101.201 
			237.163,101.139 237.74,101.076 238.285,101.045 238.83,100.98 239.342,100.949 239.791,100.916 240.239,100.886 240.592,100.886 
			241.362,100.886 242.129,100.916 242.864,100.949 243.571,100.949 244.179,100.98 244.693,101.012 244.98,101.045 245.11,101.045 
			245.172,100.822 245.267,100.252 245.364,99.586 245.428,98.984 245.3,98.285 245.045,97.652 244.627,97.082 244.146,96.607 
			243.571,96.195 242.899,95.91 242.194,95.719 241.424,95.656 240.528,95.625 239.568,95.593 238.573,95.593 237.547,95.625 
			236.491,95.689 235.466,95.781 234.439,95.877 233.448,96.005 232.487,96.132 231.557,96.289 230.724,96.449 229.957,96.607 
			229.251,96.798 228.675,96.986 228.226,97.209 227.874,97.398 230.117,89.761 230.822,89.479 231.557,89.223 232.294,89 
			233.064,88.842 233.864,88.684 234.665,88.557 235.497,88.431 236.364,88.367 237.26,88.304 238.189,88.271 239.118,88.24 
			240.111,88.24 241.103,88.24 242.129,88.24 243.218,88.271 244.307,88.304 245.204,88.367 246.166,88.525 247.159,88.746 
			248.183,89.031 249.177,89.412 250.169,89.857 251.13,90.396 252.029,90.996 252.828,91.695 253.564,92.455 254.206,93.313 
			254.685,94.262 255.04,95.275 255.262,96.354 255.262,97.558 255.101,98.826 		"/>
		<polygon fill="#FFFFFF" points="250.427,122.816 250.619,122.627 251.931,115.592 251.548,115.527 250.235,122.563 
			250.427,122.373 250.427,122.816 250.586,122.785 250.619,122.627 		"/>
		<polygon fill="#FFFFFF" points="242.194,122.595 242.385,122.816 250.427,122.816 250.427,122.373 242.385,122.373 
			242.576,122.595 242.194,122.595 242.161,122.816 242.385,122.816 		"/>
		<polygon fill="#FFFFFF" points="242.706,119.045 242.417,118.793 242.288,119.299 242.257,120.154 242.257,121.295 
			242.194,122.595 242.576,122.595 242.64,121.295 242.706,120.154 242.673,119.299 242.673,119.045 242.385,118.793 		"/>
		<polygon fill="#FFFFFF" points="230.245,123.104 230.245,123.104 231.139,123.229 232.006,123.324 232.904,123.293 
			233.832,123.229 234.761,123.104 235.657,122.943 236.555,122.689 237.452,122.438 238.254,122.119 239.085,121.738 
			239.853,121.359 240.528,120.916 241.2,120.473 241.778,120.027 242.288,119.521 242.706,119.045 242.385,118.793 241.969,119.27 
			241.519,119.712 240.945,120.154 240.336,120.599 239.664,120.979 238.891,121.359 238.124,121.738 237.324,122.057 
			236.491,122.313 235.593,122.563 234.698,122.722 233.832,122.849 232.904,122.912 232.006,122.943 231.139,122.849 
			230.31,122.722 230.31,122.722 		"/>
		<polygon fill="#FFFFFF" points="222.492,113.5 222.492,113.5 222.525,114.195 222.588,114.895 222.682,115.654 222.812,116.384 
			222.972,117.08 223.228,117.809 223.517,118.539 223.932,119.203 224.382,119.869 224.894,120.473 225.535,121.074 
			226.274,121.582 227.105,122.088 228.033,122.5 229.092,122.816 230.245,123.104 230.31,122.722 229.156,122.438 228.162,122.119 
			227.297,121.707 226.464,121.264 225.791,120.757 225.214,120.218 224.702,119.615 224.253,119.014 223.903,118.348 
			223.614,117.683 223.358,117.02 223.198,116.32 223.07,115.592 222.972,114.895 222.908,114.195 222.939,113.5 222.939,113.5 		
			"/>
		<polygon fill="#FFFFFF" points="233.993,101.33 233.993,101.33 232.872,101.521 231.782,101.805 230.724,102.152 229.7,102.597 
			228.705,103.105 227.745,103.736 226.88,104.404 226.047,105.164 225.28,105.955 224.605,106.844 223.965,107.793 223.486,108.84 
			223.07,109.918 222.781,111.059 222.588,112.264 222.492,113.5 222.939,113.5 222.972,112.264 223.165,111.121 223.454,110.045 
			223.869,108.968 224.349,107.984 224.926,107.099 225.597,106.209 226.303,105.418 227.136,104.72 228.002,104.055 
			228.899,103.484 229.891,102.979 230.851,102.533 231.909,102.186 232.935,101.9 233.993,101.709 233.993,101.709 		"/>
		<polygon fill="#FFFFFF" points="240.592,100.664 240.592,100.664 240.239,100.664 239.791,100.729 239.342,100.759 
			238.83,100.791 238.285,100.854 237.74,100.886 237.163,100.949 236.618,101.012 236.108,101.076 235.627,101.139 
			235.177,101.171 234.761,101.234 234.439,101.266 234.182,101.297 234.055,101.33 233.993,101.33 233.993,101.709 
			234.055,101.709 234.248,101.677 234.439,101.646 234.761,101.615 235.177,101.551 235.627,101.521 236.108,101.455 
			236.618,101.392 237.163,101.33 237.74,101.266 238.285,101.234 238.83,101.171 239.342,101.139 239.791,101.107 240.239,101.107 
			240.592,101.107 240.592,101.107 		"/>
		<polygon fill="#FFFFFF" points="244.915,101.012 245.11,100.854 244.98,100.854 244.693,100.822 244.179,100.791 243.571,100.729 
			242.864,100.729 242.129,100.729 241.362,100.664 240.592,100.664 240.592,101.107 241.362,101.107 242.129,101.107 
			242.864,101.171 243.571,101.171 244.179,101.171 244.693,101.201 244.98,101.234 245.11,101.234 245.3,101.076 245.11,101.234 
			245.267,101.266 245.3,101.076 		"/>
		<polygon fill="#FFFFFF" points="245.237,98.984 245.204,98.984 245.172,99.586 245.076,100.22 244.98,100.791 244.915,101.012 
			245.3,101.076 245.364,100.854 245.46,100.283 245.555,99.586 245.654,98.984 245.621,98.984 		"/>
		<polygon fill="#FFFFFF" points="241.424,95.846 241.424,95.877 242.161,95.91 242.834,96.101 243.473,96.385 244.019,96.766 
			244.467,97.209 244.851,97.748 245.11,98.318 245.237,98.984 245.621,98.984 245.492,98.255 245.237,97.558 244.788,96.955 
			244.277,96.449 243.667,96.005 242.962,95.719 242.224,95.529 241.424,95.434 241.424,95.466 		"/>
		<polygon fill="#FFFFFF" points="227.681,97.367 228.002,97.558 228.322,97.398 228.739,97.177 229.283,96.986 229.989,96.798 
			230.756,96.639 231.59,96.48 232.519,96.322 233.448,96.195 234.439,96.068 235.466,95.973 236.491,95.877 237.547,95.814 
			238.573,95.814 239.568,95.814 240.528,95.814 241.424,95.846 241.424,95.466 240.528,95.434 239.568,95.371 238.573,95.371 
			237.547,95.434 236.491,95.498 235.466,95.593 234.439,95.689 233.448,95.814 232.454,95.941 231.526,96.101 230.695,96.259 
			229.923,96.416 229.219,96.607 228.611,96.798 228.129,97.02 227.745,97.24 228.067,97.431 		"/>
		<polygon fill="#FFFFFF" points="230.052,89.57 229.923,89.73 227.681,97.367 228.067,97.431 230.31,89.793 230.179,89.951 
			230.052,89.57 229.957,89.604 229.923,89.73 		"/>
		<polygon fill="#FFFFFF" points="244.307,88.113 244.307,88.113 243.218,88.05 242.129,88.018 241.103,88.018 240.111,88.018 
			239.118,88.018 238.189,88.082 237.26,88.113 236.364,88.177 235.497,88.24 234.632,88.367 233.832,88.492 233.031,88.652 
			232.261,88.813 231.494,89.031 230.756,89.285 230.052,89.57 230.179,89.951 230.885,89.666 231.621,89.412 232.326,89.191 
			233.094,89.031 233.896,88.873 234.698,88.746 235.497,88.619 236.364,88.557 237.26,88.492 238.189,88.462 239.118,88.462 
			240.111,88.462 241.103,88.462 242.129,88.462 243.218,88.492 244.307,88.492 244.307,88.492 		"/>
		<polygon fill="#FFFFFF" points="255.295,98.857 255.295,98.857 255.455,97.558 255.455,96.354 255.233,95.244 254.879,94.199 
			254.367,93.216 253.723,92.328 252.956,91.537 252.156,90.839 251.226,90.236 250.265,89.666 249.24,89.223 248.248,88.842 
			247.192,88.557 246.198,88.334 245.204,88.177 244.307,88.113 244.307,88.492 245.204,88.557 246.133,88.715 247.127,88.938 
			248.119,89.223 249.113,89.604 250.074,90.047 251.034,90.554 251.9,91.156 252.7,91.854 253.406,92.582 254.045,93.406 
			254.495,94.324 254.845,95.307 255.072,96.354 255.072,97.558 254.91,98.795 254.91,98.795 		"/>
		<polygon fill="#FFFFFF" points="251.931,115.592 251.931,115.592 255.295,98.857 254.91,98.795 251.548,115.527 251.548,115.527 
					"/>
		<polygon fill="#FCB331" points="243.987,107.287 243.924,107.099 243.795,106.939 243.571,106.844 243.251,106.748 
			242.899,106.716 242.484,106.688 242,106.688 241.519,106.716 241.008,106.779 240.496,106.844 239.983,106.906 239.503,106.971 
			239.021,107.066 238.603,107.13 238.189,107.225 237.869,107.287 237.644,107.32 237.388,107.414 237.069,107.51 236.714,107.636 
			236.299,107.826 235.915,108.016 235.466,108.238 235.05,108.523 234.632,108.809 234.217,109.158 233.864,109.506 
			233.51,109.918 233.223,110.361 233,110.838 232.806,111.345 232.711,111.883 232.679,112.959 232.838,113.816 233.094,114.449 
			233.48,114.925 233.96,115.242 234.505,115.433 235.05,115.527 235.593,115.561 236.555,115.527 237.452,115.433 238.285,115.273 
			239.021,115.053 239.728,114.799 240.336,114.513 240.912,114.195 241.424,113.816 241.872,113.467 242.257,113.055 
			242.611,112.675 242.899,112.264 243.122,111.883 243.282,111.502 243.41,111.121 243.506,110.773 243.635,109.886 
			243.795,108.968 243.924,108.08 		"/>
		<polygon fill="#FFFFFF" points="254.141,122.595 263.176,122.595 263.176,122.595 266.413,104.563 266.539,103.865 
			266.73,103.166 266.924,102.47 267.179,101.773 267.501,101.076 267.885,100.41 268.301,99.775 268.814,99.175 269.39,98.635 
			270.031,98.129 270.766,97.652 271.601,97.273 272.531,96.955 273.554,96.703 274.676,96.512 275.925,96.449 276.374,96.449 
			276.629,96.449 276.724,96.449 276.724,96.449 278.166,88.304 277.269,88.367 276.406,88.462 275.605,88.619 274.836,88.842 
			274.131,89.096 273.459,89.412 272.819,89.761 272.211,90.142 271.634,90.586 271.089,91.029 270.575,91.537 270.062,92.043 
			269.583,92.582 269.103,93.186 268.622,93.754 268.174,94.389 269.134,88.652 260.133,88.652 		"/>
		<polyline fill="none" stroke="#FFFFFF" stroke-width="0.216" stroke-miterlimit="2.6131" points="254.141,122.595 
			263.176,122.595 263.176,122.595 266.413,104.563 266.413,104.563 266.539,103.865 266.73,103.166 266.924,102.47 
			267.179,101.773 267.501,101.076 267.885,100.41 268.301,99.775 268.814,99.175 269.39,98.635 270.031,98.129 270.766,97.652 
			271.601,97.273 272.531,96.955 273.554,96.703 274.676,96.512 275.925,96.449 275.925,96.449 276.374,96.449 276.629,96.449 
			276.724,96.449 276.724,96.449 278.166,88.304 278.166,88.304 277.269,88.367 276.406,88.462 275.605,88.619 274.836,88.842 
			274.131,89.096 273.459,89.412 272.819,89.761 272.211,90.142 271.634,90.586 271.089,91.029 270.575,91.537 270.062,92.043 
			269.583,92.582 269.103,93.186 268.622,93.754 268.174,94.389 269.134,88.652 260.133,88.652 254.141,122.595 254.141,122.595 		
			"/>
		<polygon fill="#FFFFFF" points="169.314,122.595 178.348,122.595 178.51,122.595 181.584,104.563 181.711,103.865 
			181.872,103.199 182.033,102.533 182.257,101.9 182.512,101.266 182.832,100.664 183.217,100.093 183.666,99.555 184.179,99.078 
			184.756,98.605 185.46,98.224 186.228,97.875 187.126,97.589 188.119,97.336 189.209,97.177 190.457,97.082 190.552,97.082 
			190.682,97.113 190.841,97.146 191.002,97.146 191.163,97.177 191.29,97.209 191.386,97.24 191.418,97.24 191.451,97.113 
			191.547,96.734 191.675,96.164 191.835,95.466 192.058,94.642 192.284,93.754 192.573,92.867 192.86,91.98 193.115,91.377 
			193.436,90.775 193.757,90.174 194.077,89.635 194.366,89.158 194.59,88.779 194.751,88.557 194.812,88.462 194.782,88.462 
			194.654,88.431 194.494,88.398 194.269,88.367 194.045,88.367 193.788,88.334 193.564,88.304 193.341,88.304 192.346,88.367 
			191.451,88.462 190.618,88.619 189.848,88.813 189.113,89.064 188.439,89.381 187.83,89.697 187.253,90.078 186.709,90.49 
			186.197,90.965 185.717,91.441 185.238,91.98 184.756,92.52 184.306,93.121 183.827,93.754 183.345,94.389 184.499,88.652 
			175.305,88.652 		"/>
		<polyline fill="none" stroke="#FFFFFF" stroke-width="0.216" stroke-miterlimit="2.6131" points="169.314,122.595 
			178.348,122.595 178.51,122.595 181.584,104.563 181.584,104.563 181.711,103.865 181.872,103.199 182.033,102.533 182.257,101.9 
			182.512,101.266 182.832,100.664 183.217,100.093 183.666,99.555 184.179,99.078 184.756,98.605 185.46,98.224 186.228,97.875 
			187.126,97.589 188.119,97.336 189.209,97.177 190.457,97.082 190.457,97.082 190.552,97.082 190.682,97.113 190.841,97.146 
			191.002,97.146 191.163,97.177 191.29,97.209 191.386,97.24 191.418,97.24 191.418,97.24 191.451,97.113 191.547,96.734 
			191.675,96.164 191.835,95.466 192.058,94.642 192.284,93.754 192.573,92.867 192.86,91.98 192.86,91.98 193.115,91.377 
			193.436,90.775 193.757,90.174 194.077,89.635 194.366,89.158 194.59,88.779 194.751,88.557 194.812,88.462 194.812,88.462 
			194.782,88.462 194.654,88.431 194.494,88.398 194.269,88.367 194.045,88.367 193.788,88.334 193.564,88.304 193.341,88.304 
			193.341,88.304 192.346,88.367 191.451,88.462 190.618,88.619 189.848,88.813 189.113,89.064 188.439,89.381 187.83,89.697 
			187.253,90.078 186.709,90.49 186.197,90.965 185.717,91.441 185.238,91.98 184.756,92.52 184.306,93.121 183.827,93.754 
			183.345,94.389 184.499,88.652 175.305,88.652 169.314,122.595 169.314,122.595 		"/>
	</g>
</g>
</svg>
