<?xml version="1.0" encoding="utf-8"?>
<!-- Generator: Adobe Illustrator 16.0.0, SVG Export Plug-In . SVG Version: 6.00 Build 0)  -->
<!DOCTYPE svg PUBLIC "-//W3C//DTD SVG 1.1//EN" "http://www.w3.org/Graphics/SVG/1.1/DTD/svg11.dtd">
<svg version="1.1" id="Calque_1" xmlns="http://www.w3.org/2000/svg" xmlns:xlink="http://www.w3.org/1999/xlink" x="0px" y="0px"
	 width="75px" height="48px" viewBox="19.5 175.5 471 155.636" enable-background="new 19.5 175.5 471 155.636"
	 xml:space="preserve">
<g id="形状_1_3_" enable-background="new    ">
	<g id="形状_1">
		<g>
			<path fill="#005BAC" d="M211.328,184.445l-23.465,144.208h37.542l23.468-144.208H211.328z M156.276,184.445l-35.794,99.185
				l-4.234-21.357l0.003,0.007l-0.933-4.787c-4.332-9.336-14.365-27.08-33.31-42.223c-5.602-4.477-11.247-8.296-16.705-11.56
				l32.53,124.943h39.116l59.733-144.208H156.276z M302.798,224.48c0-16.304,36.563-14.209,52.629-5.356l5.356-30.972
				c0,0-16.533-6.288-33.768-6.288c-18.632,0-62.875,8.148-62.875,47.739c0,37.26,51.928,37.723,51.928,57.285
				c0,19.562-46.574,16.065-61.944,3.726l-5.586,32.373c0,0,16.764,8.148,42.382,8.148c25.616,0,64.272-13.271,64.272-49.37
				C355.192,244.272,302.798,240.78,302.798,224.48z M455.998,184.445h-30.186c-13.938,0-17.332,10.747-17.332,10.747
				l-55.988,133.461h39.131l7.828-21.419h47.729l4.402,21.419h34.473L455.998,184.445z M410.27,277.641l19.728-53.966l11.099,53.966
				H410.27z"/>
		</g>
	</g>
</g>
<g id="形状_1_2_" enable-background="new    ">
	<g id="形状_1_1_">
		<g>
			<path fill="#F6AC1D" d="M104.132,198.022c0,0-1.554-13.016-18.144-13.016H25.715l-0.705,2.446c0,0,28.972,5.906,56.767,28.033
				c26.562,21.148,35.227,47.51,35.227,47.51L104.132,198.022z"/>
		</g>
	</g>
</g>
</svg>
