<?xml version="1.0" encoding="utf-8"?>
<!-- Generator: Adobe Illustrator 16.0.0, SVG Export Plug-In . SVG Version: 6.00 Build 0)  -->
<!DOCTYPE svg PUBLIC "-//W3C//DTD SVG 1.1//EN" "http://www.w3.org/Graphics/SVG/1.1/DTD/svg11.dtd">
<svg version="1.1" id="Calque_1" xmlns:sketch="http://www.bohemiancoding.com/sketch/ns"
	 xmlns="http://www.w3.org/2000/svg" xmlns:xlink="http://www.w3.org/1999/xlink" x="0px" y="0px" width="75px" height="48px"
	 viewBox="-2.5 -2.5 164 104" enable-background="new -2.5 -2.5 164 104" xml:space="preserve">
<title></title>
<g id="Page-1">
	<g id="american-express" transform="translate(-1.000000, 0.000000)">
		<path id="Rectangle-1" fill="#306FC5" d="M149,0C141,0,56.301,0,9,0C5,0,1,4,1,8v80c0,8,4,12,12,12c44.623,0,128,0,136,0
			s12-4,12-12V12C161,4,157,0,149,0z"/>
		<path id="Shape" fill="#FFFFFF" d="M14.52,36.625l-3.099-7.551L8.34,36.625H14.52z M82.785,33.619
			c-0.621,0.377-1.357,0.39-2.239,0.39h-5.5v-4.208h5.575c0.789,0,1.612,0.036,2.147,0.342c0.588,0.276,0.951,0.863,0.951,1.675
			C83.719,32.646,83.373,33.312,82.785,33.619C82.785,33.619,83.373,33.312,82.785,33.619L82.785,33.619L82.785,33.619z
			 M122.021,36.625l-3.133-7.551l-3.115,7.551H122.021L122.021,36.625L122.021,36.625L122.021,36.625z M48.883,44.798h-4.641
			l-0.017-14.834L37.66,44.798h-3.975l-6.583-14.848v14.848h-9.208l-1.74-4.225H6.728L4.97,44.798H0.053l8.107-18.941h6.727
			l7.7,17.934V25.857h7.389l5.925,12.85l5.442-12.85h7.538L48.883,44.798L48.883,44.798L48.883,44.798L48.883,44.798z
			 M67.381,44.798H52.257V25.857h15.124v3.944H56.785v3.415h10.343v3.882H56.785v3.783h10.597V44.798L67.381,44.798L67.381,44.798
			L67.381,44.798z M88.706,30.958c0,3.02-2.016,4.58-3.19,5.049c0.99,0.377,1.837,1.043,2.24,1.595
			c0.639,0.942,0.749,1.784,0.749,3.476v3.721h-4.566l-0.017-2.389c0-1.14,0.109-2.778-0.715-3.69
			c-0.662-0.666-1.67-0.811-3.3-0.811h-4.86v6.889H70.52V25.857h10.414c2.313,0,4.018,0.062,5.482,0.908
			C87.848,27.611,88.706,28.846,88.706,30.958C88.706,30.958,88.706,28.846,88.706,30.958L88.706,30.958L88.706,30.958z
			 M95.951,44.798h-4.619V25.857h4.619V44.798L95.951,44.798L95.951,44.798L95.951,44.798z M149.545,44.798h-6.416l-8.582-14.216
			v14.216h-9.22l-1.763-4.225h-9.404l-1.709,4.225h-5.299c-2.199,0-4.986-0.486-6.564-2.095c-1.591-1.608-2.418-3.787-2.418-7.231
			c0-2.809,0.494-5.377,2.439-7.406c1.465-1.512,3.756-2.209,6.877-2.209h4.383v4.059h-4.291c-1.652,0-2.586,0.246-3.484,1.122
			c-0.771,0.798-1.301,2.306-1.301,4.291c0,2.029,0.402,3.492,1.244,4.448c0.697,0.749,1.963,0.977,3.155,0.977h2.034l6.381-14.896
			h6.783l7.665,17.916V25.858h6.894l7.959,13.191V25.858h4.637V44.798L149.545,44.798L149.545,44.798L149.545,44.798z M0,48.519
			h7.735l1.745-4.207h3.905l1.74,4.207h15.22v-3.217l1.358,3.23h7.901l1.358-3.278v3.265h37.825l-0.018-6.906h0.732
			c0.512,0.018,0.662,0.065,0.662,0.911v5.995h19.563v-1.608c1.578,0.846,4.032,1.608,7.262,1.608h8.23l1.762-4.207h3.904
			l1.723,4.207h15.859v-3.997l2.402,3.997h12.709V22.102h-12.578v3.12l-1.761-3.12h-12.906v3.12l-1.618-3.12h-17.434
			c-2.918,0-5.482,0.407-7.555,1.542v-1.542H87.697v1.542c-1.318-1.17-3.115-1.542-5.113-1.542H38.632l-2.949,6.823l-3.029-6.823
			H18.81v3.12l-1.521-3.12H5.483L0,34.662L0,48.519L0,48.519z M161.039,62.467h-8.251c-0.823,0-1.371,0.031-1.832,0.342
			c-0.478,0.307-0.661,0.763-0.661,1.363c0,0.715,0.402,1.201,0.99,1.412c0.477,0.166,0.99,0.215,1.744,0.215l2.453,0.064
			c2.477,0.062,4.129,0.487,5.137,1.525c0.184,0.145,0.295,0.307,0.42,0.469V62.467z M161.039,74.957
			c-1.1,1.608-3.242,2.424-6.143,2.424h-8.744v-4.063h8.708c0.864,0,1.468-0.113,1.832-0.469c0.315-0.293,0.536-0.719,0.536-1.236
			c0-0.552-0.221-0.99-0.554-1.252c-0.329-0.289-0.807-0.422-1.595-0.422c-4.252-0.145-9.555,0.133-9.555-5.863
			c0-2.748,1.744-5.641,6.496-5.641h9.018v-3.77h-8.379c-2.529,0-4.365,0.605-5.666,1.547v-1.547h-12.394
			c-1.981,0-4.308,0.492-5.409,1.547v-1.547h-22.131v1.547c-1.762-1.27-4.733-1.547-6.105-1.547H86.357v1.547
			c-1.394-1.35-4.492-1.547-6.381-1.547H63.639L59.9,58.713l-3.501-4.047H31.993v26.436h23.946l3.853-4.109l3.629,4.109l14.76,0.014
			v-6.219h1.451c1.958,0.029,4.269-0.049,6.306-0.93v7.135h12.176v-6.891h0.586c0.75,0,0.824,0.031,0.824,0.78v6.109h36.984
			c2.348,0,4.803-0.601,6.161-1.692v1.692H154.4c2.441,0,4.825-0.343,6.639-1.218V74.957L161.039,74.957L161.039,74.957
			L161.039,74.957z M142.98,67.389c0.881,0.912,1.354,2.064,1.354,4.014c0,4.076-2.547,5.979-7.112,5.979h-8.817v-4.063h8.781
			c0.859,0,1.469-0.113,1.85-0.469c0.313-0.293,0.535-0.719,0.535-1.236c0-0.552-0.242-0.99-0.553-1.252
			c-0.346-0.289-0.824-0.422-1.611-0.422c-4.234-0.145-9.537,0.133-9.537-5.863c0-2.748,1.727-5.641,6.473-5.641h9.076v4.032h-8.305
			c-0.822,0-1.358,0.03-1.814,0.343c-0.495,0.307-0.68,0.762-0.68,1.363c0,0.715,0.422,1.2,0.991,1.41
			c0.478,0.166,0.991,0.215,1.763,0.215l2.437,0.066C140.268,65.925,141.955,66.35,142.98,67.389
			C142.98,67.389,141.955,66.35,142.98,67.389L142.98,67.389L142.98,67.389z M102.127,66.219c-0.605,0.359-1.355,0.391-2.236,0.391
			h-5.5v-4.256h5.576c0.805,0,1.611,0.018,2.16,0.342c0.586,0.307,0.938,0.895,0.938,1.705S102.713,65.863,102.127,66.219
			C102.127,66.219,102.713,65.863,102.127,66.219L102.127,66.219L102.127,66.219z M104.861,68.576
			c1.008,0.372,1.832,1.039,2.217,1.591c0.641,0.925,0.732,1.788,0.751,3.458v3.756h-4.546V75.01c0-1.139,0.109-2.826-0.731-3.707
			c-0.661-0.68-1.67-0.842-3.321-0.842h-4.839v6.92h-4.55V58.436h10.453c2.293,0,3.961,0.101,5.447,0.894
			c1.43,0.863,2.328,2.046,2.328,4.207C108.069,66.561,106.053,68.104,104.861,68.576C104.861,68.576,106.053,68.104,104.861,68.576
			L104.861,68.576L104.861,68.576z M110.58,58.436h15.111v3.918H115.09v3.443h10.342v3.866H115.09v3.77l10.602,0.017v3.932H110.58
			V58.436L110.58,58.436L110.58,58.436L110.58,58.436z M80.034,67.178h-5.851v-4.824h5.903c1.634,0,2.769,0.666,2.769,2.323
			C82.855,66.314,81.773,67.178,80.034,67.178L80.034,67.178L80.034,67.178L80.034,67.178z M69.674,75.658l-6.951-7.718l6.951-7.472
			V75.658L69.674,75.658L69.674,75.658L69.674,75.658z M51.723,73.433H40.591v-3.77h9.94v-3.866h-9.94v-3.443h11.351l4.952,5.521
			L51.723,73.433L51.723,73.433L51.723,73.433L51.723,73.433z M87.717,64.677c0,5.263-3.927,6.349-7.884,6.349h-5.649v6.355h-8.8
			l-5.575-6.271l-5.793,6.271H36.082V58.436h18.209l5.57,6.209l5.759-6.209h14.466C83.68,58.436,87.717,59.43,87.717,64.677
			C87.717,64.677,87.717,59.43,87.717,64.677L87.717,64.677L87.717,64.677z"/>
	</g>
</g>
</svg>
