<?xml version="1.0" encoding="utf-8"?>
<!-- Generator: Adobe Illustrator 16.0.0, SVG Export Plug-In . SVG Version: 6.00 Build 0)  -->
<!DOCTYPE svg PUBLIC "-//W3C//DTD SVG 1.1//EN" "http://www.w3.org/Graphics/SVG/1.1/DTD/svg11.dtd">
<svg version="1.1"
	 id="Calque_1" xmlns:cc="http://creativecommons.org/ns#" xmlns:dc="http://purl.org/dc/elements/1.1/" xmlns:rdf="http://www.w3.org/1999/02/22-rdf-syntax-ns#"
	 xmlns="http://www.w3.org/2000/svg" xmlns:xlink="http://www.w3.org/1999/xlink" x="0px" y="0px" width="75px" height="48px"
	 viewBox="0.75 14.708 15.5 8.5" enable-background="new 0.75 14.708 15.5 8.5" xml:space="preserve">
<g transform="translate(0 -1028.4)">
	<g transform="matrix(1.9176 0 0 1.1179 18.509 -115.45)">
		<g transform="translate(0 -1.5096)">
			<g transform="translate(-18.773 13.418)">
				<path fill="#F39C12" d="M11.207,1029.172c-0.456,0-0.856,0.181-1.141,0.447H9.643v0.252v0.14v0.056v0.056v0.391
					c0,0.741,0.7,1.342,1.564,1.342c0.864,0,1.564-0.601,1.564-1.342v-0.391v-0.056v-0.056v-0.14v-0.252h-0.424
					C12.063,1029.353,11.663,1029.172,11.207,1029.172z"/>
				<path fill="#F1C40F" d="M12.771,1029.609c0,0.741-0.7,1.342-1.564,1.342c-0.864,0-1.564-0.601-1.564-1.342
					s0.701-1.342,1.564-1.342C12.071,1028.267,12.771,1028.868,12.771,1029.609z"/>
			</g>
			<g>
				<g transform="translate(-18.773 11.629)">
					<path fill="#F39C12" d="M11.207,1029.172c-0.456,0-0.856,0.181-1.141,0.447H9.643v0.252v0.14v0.056v0.056v0.391
						c0,0.741,0.7,1.342,1.564,1.342c0.864,0,1.564-0.601,1.564-1.342v-0.391v-0.056v-0.056v-0.14v-0.252h-0.424
						C12.063,1029.353,11.663,1029.172,11.207,1029.172z"/>
					<path fill="#F1C40F" d="M12.771,1029.609c0,0.741-0.7,1.342-1.564,1.342c-0.864,0-1.564-0.601-1.564-1.342
						c0-0.741,0.701-1.342,1.564-1.342C12.071,1028.267,12.771,1028.868,12.771,1029.609z"/>
				</g>
				<g transform="translate(-18.773 9.8401)">
					<path fill="#F39C12" d="M11.207,1029.172c-0.456,0-0.856,0.182-1.141,0.447H9.643v0.252v0.14v0.056v0.056v0.391
						c0,0.742,0.7,1.342,1.564,1.342c0.864,0,1.564-0.6,1.564-1.342v-0.391v-0.056v-0.056v-0.14v-0.252h-0.424
						C12.063,1029.354,11.663,1029.172,11.207,1029.172z"/>
					<path fill="#F1C40F" d="M12.771,1029.609c0,0.741-0.7,1.342-1.564,1.342c-0.864,0-1.564-0.601-1.564-1.342
						c0-0.741,0.701-1.342,1.564-1.342C12.071,1028.267,12.771,1028.868,12.771,1029.609z"/>
				</g>
				<g transform="translate(-15.123 13.418)">
					<path fill="#F39C12" d="M11.207,1029.172c-0.456,0-0.856,0.181-1.141,0.447H9.642v0.252v0.14v0.056v0.056v0.391
						c0,0.741,0.7,1.342,1.564,1.342c0.864,0,1.565-0.601,1.565-1.342v-0.391v-0.056v-0.056v-0.14v-0.252h-0.424
						C12.063,1029.353,11.663,1029.172,11.207,1029.172z"/>
					<path fill="#F1C40F" d="M12.772,1029.609c0,0.741-0.701,1.342-1.565,1.342c-0.864,0-1.564-0.601-1.564-1.342
						s0.7-1.342,1.564-1.342C12.071,1028.267,12.772,1028.868,12.772,1029.609z"/>
				</g>
				<g transform="translate(-14.08 12.524)">
					<path fill="#F39C12" d="M11.207,1029.172c-0.457,0-0.856,0.182-1.141,0.447H9.642v0.252v0.14v0.056v0.056v0.391
						c0,0.742,0.701,1.342,1.565,1.342c0.864,0,1.564-0.6,1.564-1.342v-0.391v-0.056v-0.056v-0.14v-0.252h-0.424
						C12.063,1029.354,11.663,1029.172,11.207,1029.172z"/>
					<path fill="#F1C40F" d="M12.772,1029.609c0,0.741-0.701,1.342-1.564,1.342c-0.865,0-1.565-0.601-1.565-1.342
						c0-0.741,0.7-1.342,1.565-1.342C12.071,1028.267,12.772,1028.868,12.772,1029.609z"/>
				</g>
			</g>
		</g>
	</g>
</g>
</svg>
